<svg width="360" height="80" viewBox="0 0 360 80" fill="none" xmlns="http://www.w3.org/2000/svg">
<rect x="23.95" width="312" height="79" rx="18" fill="#448AF7"/>
<path d="M68.8788 33L67.7988 30.34H61.2188L60.1588 33H55.8988L62.1188 18.72H67.0388L73.2588 33H68.8788ZM64.5188 22.04L62.4588 27.16H66.5788L64.5188 22.04ZM74.4247 33V22.5H78.3847V33H74.4247ZM74.4047 21.2V18.6H78.4047V21.2H74.4047ZM89.3354 33V31.58C88.3754 32.74 87.0288 33.32 85.2954 33.32C84.3221 33.32 83.4488 33.1 82.6754 32.66C81.9154 32.22 81.3154 31.5933 80.8754 30.78C80.4488 29.9533 80.2354 28.9933 80.2354 27.9C80.2354 26.8067 80.4488 25.8267 80.8754 24.96C81.3154 24.0933 81.9421 23.4133 82.7554 22.92C83.5821 22.4267 84.5488 22.18 85.6554 22.18C87.2154 22.18 88.4154 22.6733 89.2554 23.66V18.72H93.2154V33H89.3354ZM89.2754 27.58C89.2754 26.8333 89.0488 26.2333 88.5954 25.78C88.1421 25.3267 87.5288 25.1 86.7554 25.1C85.9421 25.1 85.3154 25.3267 84.8754 25.78C84.4488 26.2333 84.2354 26.9 84.2354 27.78C84.2354 28.62 84.4488 29.2667 84.8754 29.72C85.3021 30.1733 85.9088 30.4 86.6954 30.4C87.4554 30.4 88.0888 30.16 88.5954 29.68C89.0488 29.24 89.2754 28.68 89.2754 28V27.58ZM98.8018 28.68C98.8685 29.3333 99.1218 29.8333 99.5618 30.18C100.015 30.5133 100.635 30.68 101.422 30.68C102.688 30.68 103.462 30.3267 103.742 29.62H107.402C106.855 32.0867 104.828 33.32 101.322 33.32C99.3352 33.32 97.7952 32.8467 96.7018 31.9C95.6085 30.9533 95.0618 29.6133 95.0618 27.88C95.0618 26.7733 95.3152 25.7933 95.8218 24.94C96.3285 24.0733 97.0618 23.4 98.0218 22.92C98.9818 22.4267 100.115 22.18 101.422 22.18C103.355 22.18 104.855 22.66 105.922 23.62C106.988 24.5667 107.522 25.9133 107.522 27.66V28.68H98.8018ZM103.842 26.58C103.775 25.38 102.948 24.78 101.362 24.78C100.708 24.78 100.148 24.9467 99.6818 25.28C99.2285 25.6133 98.9618 26.0467 98.8818 26.58H103.842ZM116.733 25.7C116.613 25.3267 116.379 25.0533 116.033 24.88C115.686 24.7067 115.206 24.62 114.593 24.62C113.993 24.62 113.526 24.6933 113.193 24.84C112.859 24.9733 112.693 25.1733 112.693 25.44C112.693 25.68 112.819 25.8667 113.073 26C113.339 26.1333 113.786 26.24 114.413 26.32L115.853 26.52C117.106 26.6933 118.066 26.9133 118.733 27.18C119.413 27.4467 119.893 27.7933 120.173 28.22C120.453 28.6333 120.593 29.18 120.593 29.86C120.593 30.9933 120.106 31.8533 119.133 32.44C118.159 33.0267 116.733 33.32 114.853 33.32C112.893 33.32 111.406 33.0133 110.393 32.4C109.379 31.7867 108.806 30.8667 108.673 29.64H112.373C112.613 30.4133 113.419 30.8 114.793 30.8C115.433 30.8 115.919 30.7333 116.253 30.6C116.586 30.4533 116.753 30.24 116.753 29.96C116.753 29.72 116.626 29.54 116.373 29.42C116.119 29.3 115.673 29.2 115.033 29.12L113.713 28.94C112.539 28.78 111.606 28.56 110.913 28.28C110.233 27.9867 109.739 27.62 109.433 27.18C109.126 26.7267 108.973 26.1667 108.973 25.5C108.973 24.4467 109.466 23.6333 110.453 23.06C111.439 22.4733 112.819 22.18 114.593 22.18C116.313 22.18 117.639 22.4333 118.573 22.94C119.506 23.4467 120.106 24.2533 120.373 25.36L116.733 25.7ZM121.628 28.72V25.26H129.848V28.72H121.628ZM146.942 33V26.86C146.942 26.2867 146.822 25.8667 146.582 25.6C146.355 25.32 145.975 25.18 145.442 25.18C144.855 25.18 144.329 25.4 143.862 25.84C143.462 26.24 143.262 26.68 143.262 27.16V33H139.302V26.86C139.302 26.2733 139.182 25.8467 138.942 25.58C138.715 25.3133 138.335 25.18 137.802 25.18C137.509 25.18 137.222 25.24 136.942 25.36C136.675 25.48 136.435 25.6533 136.222 25.88C135.822 26.28 135.622 26.7467 135.622 27.28V33H131.662V22.5H135.542V23.96C136.582 22.7733 137.855 22.18 139.362 22.18C140.189 22.18 140.895 22.34 141.482 22.66C142.069 22.98 142.515 23.4467 142.822 24.06C143.875 22.8067 145.262 22.18 146.982 22.18C148.222 22.18 149.182 22.5333 149.862 23.24C150.555 23.9333 150.902 24.9067 150.902 26.16V33H146.942ZM165.649 27.72C165.649 29.4533 165.062 30.82 163.889 31.82C162.715 32.82 161.109 33.32 159.069 33.32C157.029 33.32 155.449 32.84 154.329 31.88C153.209 30.9067 152.649 29.5467 152.649 27.8C152.649 26.0533 153.235 24.68 154.409 23.68C155.582 22.68 157.189 22.18 159.229 22.18C161.269 22.18 162.849 22.6667 163.969 23.64C165.089 24.6 165.649 25.96 165.649 27.72ZM161.649 27.74C161.649 26.8867 161.435 26.2333 161.009 25.78C160.582 25.3267 159.962 25.1 159.149 25.1C158.349 25.1 157.729 25.3267 157.289 25.78C156.862 26.2333 156.649 26.8933 156.649 27.76C156.649 28.6133 156.862 29.2667 157.289 29.72C157.715 30.1733 158.335 30.4 159.149 30.4C159.949 30.4 160.562 30.1733 160.989 29.72C161.429 29.2667 161.649 28.6067 161.649 27.74ZM167.506 33V22.5H171.466V33H167.506ZM167.486 21.2V18.6H171.486V21.2H167.486ZM186.738 33V31.7C186.178 32.26 185.565 32.6667 184.898 32.92C184.245 33.1733 183.485 33.3 182.618 33.3C181.205 33.3 180.118 33.0267 179.358 32.48C178.598 31.92 178.218 31.12 178.218 30.08C178.218 28.9467 178.705 28.0933 179.678 27.52C180.665 26.9467 182.198 26.6333 184.278 26.58L186.598 26.52V26.06C186.598 25.6333 186.431 25.3067 186.098 25.08C185.765 24.84 185.291 24.72 184.678 24.72C184.065 24.72 183.558 24.8067 183.158 24.98C182.771 25.1533 182.531 25.3933 182.438 25.7L178.898 25.44C179.151 24.3333 179.758 23.5133 180.718 22.98C181.691 22.4467 183.038 22.18 184.758 22.18C188.425 22.18 190.258 23.6 190.258 26.44V33H186.738ZM186.598 28.54L184.518 28.6C183.585 28.6267 182.918 28.7333 182.518 28.92C182.118 29.0933 181.918 29.3867 181.918 29.8C181.918 30.44 182.531 30.76 183.758 30.76C184.211 30.76 184.625 30.7067 184.998 30.6C185.385 30.4933 185.698 30.34 185.938 30.14C186.378 29.7667 186.598 29.34 186.598 28.86V28.54ZM183.738 21.3L179.858 17.92H184.218L187.258 21.3H183.738ZM197.554 33V22.5H201.434V23.98C202.407 22.8733 203.634 22.32 205.114 22.32C205.527 22.32 205.941 22.36 206.354 22.44L205.914 25.5C205.461 25.42 205.027 25.38 204.614 25.38C203.641 25.38 202.867 25.6067 202.294 26.06C202.041 26.26 201.847 26.4933 201.714 26.76C201.581 27.0267 201.514 27.3 201.514 27.58V33H197.554ZM210.405 28.68C210.472 29.3333 210.725 29.8333 211.165 30.18C211.619 30.5133 212.239 30.68 213.025 30.68C214.292 30.68 215.065 30.3267 215.345 29.62H219.005C218.459 32.0867 216.432 33.32 212.925 33.32C210.939 33.32 209.399 32.8467 208.305 31.9C207.212 30.9533 206.665 29.6133 206.665 27.88C206.665 26.7733 206.919 25.7933 207.425 24.94C207.932 24.0733 208.665 23.4 209.625 22.92C210.585 22.4267 211.719 22.18 213.025 22.18C214.959 22.18 216.459 22.66 217.525 23.62C218.592 24.5667 219.125 25.9133 219.125 27.66V28.68H210.405ZM215.445 26.58C215.379 25.38 214.552 24.78 212.965 24.78C212.312 24.78 211.752 24.9467 211.285 25.28C210.832 25.6133 210.565 26.0467 210.485 26.58H215.445ZM229.361 32.7C228.348 33.0333 227.261 33.2 226.101 33.2C224.608 33.2 223.521 32.8867 222.841 32.26C222.174 31.6333 221.841 30.6133 221.841 29.2V25.38H219.841V22.5H221.841V19.74H225.801V22.5H228.921V25.38H225.801V28.92C225.801 29.3867 225.914 29.7333 226.141 29.96C226.381 30.1733 226.761 30.28 227.281 30.28C227.721 30.28 228.254 30.1867 228.881 30L229.361 32.7ZM230.744 33V22.5H234.624V23.98C235.597 22.8733 236.824 22.32 238.304 22.32C238.717 22.32 239.131 22.36 239.544 22.44L239.104 25.5C238.651 25.42 238.217 25.38 237.804 25.38C236.831 25.38 236.057 25.6067 235.484 26.06C235.231 26.26 235.037 26.4933 234.904 26.76C234.771 27.0267 234.704 27.3 234.704 27.58V33H230.744ZM252.855 27.72C252.855 29.4533 252.269 30.82 251.095 31.82C249.922 32.82 248.315 33.32 246.275 33.32C244.235 33.32 242.655 32.84 241.535 31.88C240.415 30.9067 239.855 29.5467 239.855 27.8C239.855 26.0533 240.442 24.68 241.615 23.68C242.789 22.68 244.395 22.18 246.435 22.18C248.475 22.18 250.055 22.6667 251.175 23.64C252.295 24.6 252.855 25.96 252.855 27.72ZM248.855 27.74C248.855 26.8867 248.642 26.2333 248.215 25.78C247.789 25.3267 247.169 25.1 246.355 25.1C245.555 25.1 244.935 25.3267 244.495 25.78C244.069 26.2333 243.855 26.8933 243.855 27.76C243.855 28.6133 244.069 29.2667 244.495 29.72C244.922 30.1733 245.542 30.4 246.355 30.4C247.155 30.4 247.769 30.1733 248.195 29.72C248.635 29.2667 248.855 28.6067 248.855 27.74ZM262.773 33V31.54C261.653 32.7267 260.306 33.32 258.733 33.32C257.44 33.32 256.426 32.9667 255.693 32.26C254.973 31.5533 254.613 30.5733 254.613 29.32V22.5H258.573V28.58C258.573 29.18 258.713 29.62 258.993 29.9C259.273 30.18 259.7 30.32 260.273 30.32C260.9 30.32 261.48 30.0867 262.013 29.62C262.226 29.4333 262.393 29.2133 262.513 28.96C262.633 28.6933 262.693 28.4267 262.693 28.16V22.5H266.653V33H262.773ZM272.352 33L267.772 22.5H271.932L274.512 29.58L277.132 22.5H281.152L276.572 33H272.352ZM284.891 28.68C284.958 29.3333 285.211 29.8333 285.651 30.18C286.104 30.5133 286.724 30.68 287.511 30.68C288.778 30.68 289.551 30.3267 289.831 29.62H293.491C292.944 32.0867 290.918 33.32 287.411 33.32C285.424 33.32 283.884 32.8467 282.791 31.9C281.698 30.9533 281.151 29.6133 281.151 27.88C281.151 26.7733 281.404 25.7933 281.911 24.94C282.418 24.0733 283.151 23.4 284.111 22.92C285.071 22.4267 286.204 22.18 287.511 22.18C289.444 22.18 290.944 22.66 292.011 23.62C293.078 24.5667 293.611 25.9133 293.611 27.66V28.68H284.891ZM289.931 26.58C289.864 25.38 289.038 24.78 287.451 24.78C286.798 24.78 286.238 24.9467 285.771 25.28C285.318 25.6133 285.051 26.0467 284.971 26.58H289.931ZM295.462 33V22.5H299.342V23.98C300.315 22.8733 301.542 22.32 303.022 22.32C303.435 22.32 303.848 22.36 304.262 22.44L303.822 25.5C303.368 25.42 302.935 25.38 302.522 25.38C301.548 25.38 300.775 25.6067 300.202 26.06C299.948 26.26 299.755 26.4933 299.622 26.76C299.488 27.0267 299.422 27.3 299.422 27.58V33H295.462ZM133.952 55V48.86C133.952 48.2867 133.832 47.8667 133.592 47.6C133.365 47.32 132.985 47.18 132.452 47.18C131.865 47.18 131.338 47.4 130.872 47.84C130.472 48.24 130.272 48.68 130.272 49.16V55H126.312V48.86C126.312 48.2733 126.192 47.8467 125.952 47.58C125.725 47.3133 125.345 47.18 124.812 47.18C124.518 47.18 124.232 47.24 123.952 47.36C123.685 47.48 123.445 47.6533 123.232 47.88C122.832 48.28 122.632 48.7467 122.632 49.28V55H118.672V44.5H122.552V45.96C123.592 44.7733 124.865 44.18 126.372 44.18C127.198 44.18 127.905 44.34 128.492 44.66C129.078 44.98 129.525 45.4467 129.832 46.06C130.885 44.8067 132.272 44.18 133.992 44.18C135.232 44.18 136.192 44.5333 136.872 45.24C137.565 45.9333 137.912 46.9067 137.912 48.16V55H133.952ZM143.398 50.68C143.465 51.3333 143.718 51.8333 144.158 52.18C144.611 52.5133 145.231 52.68 146.018 52.68C147.285 52.68 148.058 52.3267 148.338 51.62H151.998C151.451 54.0867 149.425 55.32 145.918 55.32C143.931 55.32 142.391 54.8467 141.298 53.9C140.205 52.9533 139.658 51.6133 139.658 49.88C139.658 48.7733 139.911 47.7933 140.418 46.94C140.925 46.0733 141.658 45.4 142.618 44.92C143.578 44.4267 144.711 44.18 146.018 44.18C147.951 44.18 149.451 44.66 150.518 45.62C151.585 46.5667 152.118 47.9133 152.118 49.66V50.68H143.398ZM148.438 48.58C148.371 47.38 147.545 46.78 145.958 46.78C145.305 46.78 144.745 46.9467 144.278 47.28C143.825 47.6133 143.558 48.0467 143.478 48.58H148.438ZM161.329 47.7C161.209 47.3267 160.976 47.0533 160.629 46.88C160.282 46.7067 159.802 46.62 159.189 46.62C158.589 46.62 158.122 46.6933 157.789 46.84C157.456 46.9733 157.289 47.1733 157.289 47.44C157.289 47.68 157.416 47.8667 157.669 48C157.936 48.1333 158.382 48.24 159.009 48.32L160.449 48.52C161.702 48.6933 162.662 48.9133 163.329 49.18C164.009 49.4467 164.489 49.7933 164.769 50.22C165.049 50.6333 165.189 51.18 165.189 51.86C165.189 52.9933 164.702 53.8533 163.729 54.44C162.756 55.0267 161.329 55.32 159.449 55.32C157.489 55.32 156.002 55.0133 154.989 54.4C153.976 53.7867 153.402 52.8667 153.269 51.64H156.969C157.209 52.4133 158.016 52.8 159.389 52.8C160.029 52.8 160.516 52.7333 160.849 52.6C161.182 52.4533 161.349 52.24 161.349 51.96C161.349 51.72 161.222 51.54 160.969 51.42C160.716 51.3 160.269 51.2 159.629 51.12L158.309 50.94C157.136 50.78 156.202 50.56 155.509 50.28C154.829 49.9867 154.336 49.62 154.029 49.18C153.722 48.7267 153.569 48.1667 153.569 47.5C153.569 46.4467 154.062 45.6333 155.049 45.06C156.036 44.4733 157.416 44.18 159.189 44.18C160.909 44.18 162.236 44.4333 163.169 44.94C164.102 45.4467 164.702 46.2533 164.969 47.36L161.329 47.7ZM179.685 55V53.7C179.125 54.26 178.512 54.6667 177.845 54.92C177.192 55.1733 176.432 55.3 175.565 55.3C174.152 55.3 173.065 55.0267 172.305 54.48C171.545 53.92 171.165 53.12 171.165 52.08C171.165 50.9467 171.652 50.0933 172.625 49.52C173.612 48.9467 175.145 48.6333 177.225 48.58L179.545 48.52V48.06C179.545 47.6333 179.379 47.3067 179.045 47.08C178.712 46.84 178.239 46.72 177.625 46.72C177.012 46.72 176.505 46.8067 176.105 46.98C175.719 47.1533 175.479 47.3933 175.385 47.7L171.845 47.44C172.099 46.3333 172.705 45.5133 173.665 44.98C174.639 44.4467 175.985 44.18 177.705 44.18C181.372 44.18 183.205 45.6 183.205 48.44V55H179.685ZM179.545 50.54L177.465 50.6C176.532 50.6267 175.865 50.7333 175.465 50.92C175.065 51.0933 174.865 51.3867 174.865 51.8C174.865 52.44 175.479 52.76 176.705 52.76C177.159 52.76 177.572 52.7067 177.945 52.6C178.332 52.4933 178.645 52.34 178.885 52.14C179.325 51.7667 179.545 51.34 179.545 50.86V50.54ZM200.74 55V48.86C200.74 48.2867 200.62 47.8667 200.38 47.6C200.153 47.32 199.773 47.18 199.24 47.18C198.653 47.18 198.126 47.4 197.66 47.84C197.26 48.24 197.06 48.68 197.06 49.16V55H193.1V48.86C193.1 48.2733 192.98 47.8467 192.74 47.58C192.513 47.3133 192.133 47.18 191.6 47.18C191.306 47.18 191.02 47.24 190.74 47.36C190.473 47.48 190.233 47.6533 190.02 47.88C189.62 48.28 189.42 48.7467 189.42 49.28V55H185.46V44.5H189.34V45.96C190.38 44.7733 191.653 44.18 193.16 44.18C193.986 44.18 194.693 44.34 195.28 44.66C195.866 44.98 196.313 45.4467 196.62 46.06C197.673 44.8067 199.06 44.18 200.78 44.18C202.02 44.18 202.98 44.5333 203.66 45.24C204.353 45.9333 204.7 46.9067 204.7 48.16V55H200.74ZM206.946 55V44.5H210.906V55H206.946ZM206.926 43.2V40.6H210.926V43.2H206.926ZM220.617 47.7C220.497 47.3267 220.264 47.0533 219.917 46.88C219.57 46.7067 219.09 46.62 218.477 46.62C217.877 46.62 217.41 46.6933 217.077 46.84C216.744 46.9733 216.577 47.1733 216.577 47.44C216.577 47.68 216.704 47.8667 216.957 48C217.224 48.1333 217.67 48.24 218.297 48.32L219.737 48.52C220.99 48.6933 221.95 48.9133 222.617 49.18C223.297 49.4467 223.777 49.7933 224.057 50.22C224.337 50.6333 224.477 51.18 224.477 51.86C224.477 52.9933 223.99 53.8533 223.017 54.44C222.044 55.0267 220.617 55.32 218.737 55.32C216.777 55.32 215.29 55.0133 214.277 54.4C213.264 53.7867 212.69 52.8667 212.557 51.64H216.257C216.497 52.4133 217.304 52.8 218.677 52.8C219.317 52.8 219.804 52.7333 220.137 52.6C220.47 52.4533 220.637 52.24 220.637 51.96C220.637 51.72 220.51 51.54 220.257 51.42C220.004 51.3 219.557 51.2 218.917 51.12L217.597 50.94C216.424 50.78 215.49 50.56 214.797 50.28C214.117 49.9867 213.624 49.62 213.317 49.18C213.01 48.7267 212.857 48.1667 212.857 47.5C212.857 46.4467 213.35 45.6333 214.337 45.06C215.324 44.4733 216.704 44.18 218.477 44.18C220.197 44.18 221.524 44.4333 222.457 44.94C223.39 45.4467 223.99 46.2533 224.257 47.36L220.617 47.7ZM225.992 55V51.04H229.732V55H225.992ZM231.971 55V51.04H235.711V55H231.971ZM237.95 55V51.04H241.69V55H237.95Z" fill="white"/>
<path d="M340.937 79.1846C335.737 79.9846 330.604 77.1212 328.937 75.2879C330.655 71.1914 320.049 61.2419 327.049 61.2415C328.668 61.2415 330.05 57.0014 335.937 60.1846C335.958 61.4714 335.937 65.9258 335.937 66.6842C335.937 77.1842 341.937 78.5813 340.937 79.1846Z" fill="#448AF7"/>
</svg>
