<svg width="313" height="79" viewBox="0 0 313 79" fill="none" xmlns="http://www.w3.org/2000/svg">
<rect x="0.949951" width="312" height="79" rx="18" fill="#448AF7"/>
<path d="M45.8788 33L44.7988 30.34H38.2188L37.1588 33H32.8988L39.1188 18.72H44.0388L50.2588 33H45.8788ZM41.5188 22.04L39.4588 27.16H43.5788L41.5188 22.04ZM51.4247 33V22.5H55.3847V33H51.4247ZM51.4047 21.2V18.6H55.4047V21.2H51.4047ZM66.3354 33V31.58C65.3754 32.74 64.0288 33.32 62.2954 33.32C61.3221 33.32 60.4488 33.1 59.6754 32.66C58.9154 32.22 58.3154 31.5933 57.8754 30.78C57.4488 29.9533 57.2354 28.9933 57.2354 27.9C57.2354 26.8067 57.4488 25.8267 57.8754 24.96C58.3154 24.0933 58.9421 23.4133 59.7554 22.92C60.5821 22.4267 61.5488 22.18 62.6554 22.18C64.2154 22.18 65.4154 22.6733 66.2554 23.66V18.72H70.2154V33H66.3354ZM66.2754 27.58C66.2754 26.8333 66.0488 26.2333 65.5954 25.78C65.1421 25.3267 64.5288 25.1 63.7554 25.1C62.9421 25.1 62.3154 25.3267 61.8754 25.78C61.4488 26.2333 61.2354 26.9 61.2354 27.78C61.2354 28.62 61.4488 29.2667 61.8754 29.72C62.3021 30.1733 62.9088 30.4 63.6954 30.4C64.4554 30.4 65.0888 30.16 65.5954 29.68C66.0488 29.24 66.2754 28.68 66.2754 28V27.58ZM75.8018 28.68C75.8685 29.3333 76.1218 29.8333 76.5618 30.18C77.0152 30.5133 77.6352 30.68 78.4218 30.68C79.6885 30.68 80.4618 30.3267 80.7418 29.62H84.4018C83.8552 32.0867 81.8285 33.32 78.3218 33.32C76.3352 33.32 74.7952 32.8467 73.7018 31.9C72.6085 30.9533 72.0618 29.6133 72.0618 27.88C72.0618 26.7733 72.3152 25.7933 72.8218 24.94C73.3285 24.0733 74.0618 23.4 75.0218 22.92C75.9818 22.4267 77.1152 22.18 78.4218 22.18C80.3552 22.18 81.8552 22.66 82.9218 23.62C83.9885 24.5667 84.5218 25.9133 84.5218 27.66V28.68H75.8018ZM80.8418 26.58C80.7752 25.38 79.9485 24.78 78.3618 24.78C77.7085 24.78 77.1485 24.9467 76.6818 25.28C76.2285 25.6133 75.9618 26.0467 75.8818 26.58H80.8418ZM93.7326 25.7C93.6126 25.3267 93.3792 25.0533 93.0326 24.88C92.6859 24.7067 92.2059 24.62 91.5926 24.62C90.9926 24.62 90.5259 24.6933 90.1926 24.84C89.8592 24.9733 89.6926 25.1733 89.6926 25.44C89.6926 25.68 89.8192 25.8667 90.0726 26C90.3392 26.1333 90.7859 26.24 91.4126 26.32L92.8526 26.52C94.1059 26.6933 95.0659 26.9133 95.7326 27.18C96.4126 27.4467 96.8926 27.7933 97.1726 28.22C97.4526 28.6333 97.5926 29.18 97.5926 29.86C97.5926 30.9933 97.1059 31.8533 96.1326 32.44C95.1592 33.0267 93.7326 33.32 91.8526 33.32C89.8926 33.32 88.4059 33.0133 87.3926 32.4C86.3792 31.7867 85.8059 30.8667 85.6726 29.64H89.3726C89.6126 30.4133 90.4192 30.8 91.7926 30.8C92.4326 30.8 92.9192 30.7333 93.2526 30.6C93.5859 30.4533 93.7526 30.24 93.7526 29.96C93.7526 29.72 93.6259 29.54 93.3726 29.42C93.1192 29.3 92.6726 29.2 92.0326 29.12L90.7126 28.94C89.5392 28.78 88.6059 28.56 87.9126 28.28C87.2326 27.9867 86.7392 27.62 86.4326 27.18C86.1259 26.7267 85.9726 26.1667 85.9726 25.5C85.9726 24.4467 86.4659 23.6333 87.4526 23.06C88.4392 22.4733 89.8192 22.18 91.5926 22.18C93.3126 22.18 94.6392 22.4333 95.5726 22.94C96.5059 23.4467 97.1059 24.2533 97.3726 25.36L93.7326 25.7ZM98.6277 28.72V25.26H106.848V28.72H98.6277ZM123.942 33V26.86C123.942 26.2867 123.822 25.8667 123.582 25.6C123.355 25.32 122.975 25.18 122.442 25.18C121.855 25.18 121.329 25.4 120.862 25.84C120.462 26.24 120.262 26.68 120.262 27.16V33H116.302V26.86C116.302 26.2733 116.182 25.8467 115.942 25.58C115.715 25.3133 115.335 25.18 114.802 25.18C114.509 25.18 114.222 25.24 113.942 25.36C113.675 25.48 113.435 25.6533 113.222 25.88C112.822 26.28 112.622 26.7467 112.622 27.28V33H108.662V22.5H112.542V23.96C113.582 22.7733 114.855 22.18 116.362 22.18C117.189 22.18 117.895 22.34 118.482 22.66C119.069 22.98 119.515 23.4467 119.822 24.06C120.875 22.8067 122.262 22.18 123.982 22.18C125.222 22.18 126.182 22.5333 126.862 23.24C127.555 23.9333 127.902 24.9067 127.902 26.16V33H123.942ZM142.649 27.72C142.649 29.4533 142.062 30.82 140.889 31.82C139.715 32.82 138.109 33.32 136.069 33.32C134.029 33.32 132.449 32.84 131.329 31.88C130.209 30.9067 129.649 29.5467 129.649 27.8C129.649 26.0533 130.235 24.68 131.409 23.68C132.582 22.68 134.189 22.18 136.229 22.18C138.269 22.18 139.849 22.6667 140.969 23.64C142.089 24.6 142.649 25.96 142.649 27.72ZM138.649 27.74C138.649 26.8867 138.435 26.2333 138.009 25.78C137.582 25.3267 136.962 25.1 136.149 25.1C135.349 25.1 134.729 25.3267 134.289 25.78C133.862 26.2333 133.649 26.8933 133.649 27.76C133.649 28.6133 133.862 29.2667 134.289 29.72C134.715 30.1733 135.335 30.4 136.149 30.4C136.949 30.4 137.562 30.1733 137.989 29.72C138.429 29.2667 138.649 28.6067 138.649 27.74ZM144.506 33V22.5H148.466V33H144.506ZM144.486 21.2V18.6H148.486V21.2H144.486ZM163.738 33V31.7C163.178 32.26 162.565 32.6667 161.898 32.92C161.245 33.1733 160.485 33.3 159.618 33.3C158.205 33.3 157.118 33.0267 156.358 32.48C155.598 31.92 155.218 31.12 155.218 30.08C155.218 28.9467 155.705 28.0933 156.678 27.52C157.665 26.9467 159.198 26.6333 161.278 26.58L163.598 26.52V26.06C163.598 25.6333 163.431 25.3067 163.098 25.08C162.765 24.84 162.291 24.72 161.678 24.72C161.065 24.72 160.558 24.8067 160.158 24.98C159.771 25.1533 159.531 25.3933 159.438 25.7L155.898 25.44C156.151 24.3333 156.758 23.5133 157.718 22.98C158.691 22.4467 160.038 22.18 161.758 22.18C165.425 22.18 167.258 23.6 167.258 26.44V33H163.738ZM163.598 28.54L161.518 28.6C160.585 28.6267 159.918 28.7333 159.518 28.92C159.118 29.0933 158.918 29.3867 158.918 29.8C158.918 30.44 159.531 30.76 160.758 30.76C161.211 30.76 161.625 30.7067 161.998 30.6C162.385 30.4933 162.698 30.34 162.938 30.14C163.378 29.7667 163.598 29.34 163.598 28.86V28.54ZM160.738 21.3L156.858 17.92H161.218L164.258 21.3H160.738ZM174.554 33V22.5H178.434V23.98C179.407 22.8733 180.634 22.32 182.114 22.32C182.527 22.32 182.941 22.36 183.354 22.44L182.914 25.5C182.461 25.42 182.027 25.38 181.614 25.38C180.641 25.38 179.867 25.6067 179.294 26.06C179.041 26.26 178.847 26.4933 178.714 26.76C178.581 27.0267 178.514 27.3 178.514 27.58V33H174.554ZM187.405 28.68C187.472 29.3333 187.725 29.8333 188.165 30.18C188.619 30.5133 189.239 30.68 190.025 30.68C191.292 30.68 192.065 30.3267 192.345 29.62H196.005C195.459 32.0867 193.432 33.32 189.925 33.32C187.939 33.32 186.399 32.8467 185.305 31.9C184.212 30.9533 183.665 29.6133 183.665 27.88C183.665 26.7733 183.919 25.7933 184.425 24.94C184.932 24.0733 185.665 23.4 186.625 22.92C187.585 22.4267 188.719 22.18 190.025 22.18C191.959 22.18 193.459 22.66 194.525 23.62C195.592 24.5667 196.125 25.9133 196.125 27.66V28.68H187.405ZM192.445 26.58C192.379 25.38 191.552 24.78 189.965 24.78C189.312 24.78 188.752 24.9467 188.285 25.28C187.832 25.6133 187.565 26.0467 187.485 26.58H192.445ZM206.361 32.7C205.348 33.0333 204.261 33.2 203.101 33.2C201.608 33.2 200.521 32.8867 199.841 32.26C199.174 31.6333 198.841 30.6133 198.841 29.2V25.38H196.841V22.5H198.841V19.74H202.801V22.5H205.921V25.38H202.801V28.92C202.801 29.3867 202.914 29.7333 203.141 29.96C203.381 30.1733 203.761 30.28 204.281 30.28C204.721 30.28 205.254 30.1867 205.881 30L206.361 32.7ZM207.744 33V22.5H211.624V23.98C212.597 22.8733 213.824 22.32 215.304 22.32C215.717 22.32 216.131 22.36 216.544 22.44L216.104 25.5C215.651 25.42 215.217 25.38 214.804 25.38C213.831 25.38 213.057 25.6067 212.484 26.06C212.231 26.26 212.037 26.4933 211.904 26.76C211.771 27.0267 211.704 27.3 211.704 27.58V33H207.744ZM229.855 27.72C229.855 29.4533 229.269 30.82 228.095 31.82C226.922 32.82 225.315 33.32 223.275 33.32C221.235 33.32 219.655 32.84 218.535 31.88C217.415 30.9067 216.855 29.5467 216.855 27.8C216.855 26.0533 217.442 24.68 218.615 23.68C219.789 22.68 221.395 22.18 223.435 22.18C225.475 22.18 227.055 22.6667 228.175 23.64C229.295 24.6 229.855 25.96 229.855 27.72ZM225.855 27.74C225.855 26.8867 225.642 26.2333 225.215 25.78C224.789 25.3267 224.169 25.1 223.355 25.1C222.555 25.1 221.935 25.3267 221.495 25.78C221.069 26.2333 220.855 26.8933 220.855 27.76C220.855 28.6133 221.069 29.2667 221.495 29.72C221.922 30.1733 222.542 30.4 223.355 30.4C224.155 30.4 224.769 30.1733 225.195 29.72C225.635 29.2667 225.855 28.6067 225.855 27.74ZM239.773 33V31.54C238.653 32.7267 237.306 33.32 235.733 33.32C234.44 33.32 233.426 32.9667 232.693 32.26C231.973 31.5533 231.613 30.5733 231.613 29.32V22.5H235.573V28.58C235.573 29.18 235.713 29.62 235.993 29.9C236.273 30.18 236.7 30.32 237.273 30.32C237.9 30.32 238.48 30.0867 239.013 29.62C239.226 29.4333 239.393 29.2133 239.513 28.96C239.633 28.6933 239.693 28.4267 239.693 28.16V22.5H243.653V33H239.773ZM249.352 33L244.772 22.5H248.932L251.512 29.58L254.132 22.5H258.152L253.572 33H249.352ZM261.891 28.68C261.958 29.3333 262.211 29.8333 262.651 30.18C263.104 30.5133 263.724 30.68 264.511 30.68C265.778 30.68 266.551 30.3267 266.831 29.62H270.491C269.944 32.0867 267.918 33.32 264.411 33.32C262.424 33.32 260.884 32.8467 259.791 31.9C258.698 30.9533 258.151 29.6133 258.151 27.88C258.151 26.7733 258.404 25.7933 258.911 24.94C259.418 24.0733 260.151 23.4 261.111 22.92C262.071 22.4267 263.204 22.18 264.511 22.18C266.444 22.18 267.944 22.66 269.011 23.62C270.078 24.5667 270.611 25.9133 270.611 27.66V28.68H261.891ZM266.931 26.58C266.864 25.38 266.038 24.78 264.451 24.78C263.798 24.78 263.238 24.9467 262.771 25.28C262.318 25.6133 262.051 26.0467 261.971 26.58H266.931ZM272.462 33V22.5H276.342V23.98C277.315 22.8733 278.542 22.32 280.022 22.32C280.435 22.32 280.848 22.36 281.262 22.44L280.822 25.5C280.368 25.42 279.935 25.38 279.522 25.38C278.548 25.38 277.775 25.6067 277.202 26.06C276.948 26.26 276.755 26.4933 276.622 26.76C276.488 27.0267 276.422 27.3 276.422 27.58V33H272.462ZM110.952 55V48.86C110.952 48.2867 110.832 47.8667 110.592 47.6C110.365 47.32 109.985 47.18 109.452 47.18C108.865 47.18 108.338 47.4 107.872 47.84C107.472 48.24 107.272 48.68 107.272 49.16V55H103.312V48.86C103.312 48.2733 103.192 47.8467 102.952 47.58C102.725 47.3133 102.345 47.18 101.812 47.18C101.518 47.18 101.232 47.24 100.952 47.36C100.685 47.48 100.445 47.6533 100.232 47.88C99.8316 48.28 99.6316 48.7467 99.6316 49.28V55H95.6716V44.5H99.5516V45.96C100.592 44.7733 101.865 44.18 103.372 44.18C104.198 44.18 104.905 44.34 105.492 44.66C106.078 44.98 106.525 45.4467 106.832 46.06C107.885 44.8067 109.272 44.18 110.992 44.18C112.232 44.18 113.192 44.5333 113.872 45.24C114.565 45.9333 114.912 46.9067 114.912 48.16V55H110.952ZM120.398 50.68C120.465 51.3333 120.718 51.8333 121.158 52.18C121.611 52.5133 122.231 52.68 123.018 52.68C124.285 52.68 125.058 52.3267 125.338 51.62H128.998C128.451 54.0867 126.425 55.32 122.918 55.32C120.931 55.32 119.391 54.8467 118.298 53.9C117.205 52.9533 116.658 51.6133 116.658 49.88C116.658 48.7733 116.911 47.7933 117.418 46.94C117.925 46.0733 118.658 45.4 119.618 44.92C120.578 44.4267 121.711 44.18 123.018 44.18C124.951 44.18 126.451 44.66 127.518 45.62C128.585 46.5667 129.118 47.9133 129.118 49.66V50.68H120.398ZM125.438 48.58C125.371 47.38 124.545 46.78 122.958 46.78C122.305 46.78 121.745 46.9467 121.278 47.28C120.825 47.6133 120.558 48.0467 120.478 48.58H125.438ZM138.329 47.7C138.209 47.3267 137.976 47.0533 137.629 46.88C137.282 46.7067 136.802 46.62 136.189 46.62C135.589 46.62 135.122 46.6933 134.789 46.84C134.456 46.9733 134.289 47.1733 134.289 47.44C134.289 47.68 134.416 47.8667 134.669 48C134.936 48.1333 135.382 48.24 136.009 48.32L137.449 48.52C138.702 48.6933 139.662 48.9133 140.329 49.18C141.009 49.4467 141.489 49.7933 141.769 50.22C142.049 50.6333 142.189 51.18 142.189 51.86C142.189 52.9933 141.702 53.8533 140.729 54.44C139.756 55.0267 138.329 55.32 136.449 55.32C134.489 55.32 133.002 55.0133 131.989 54.4C130.976 53.7867 130.402 52.8667 130.269 51.64H133.969C134.209 52.4133 135.016 52.8 136.389 52.8C137.029 52.8 137.516 52.7333 137.849 52.6C138.182 52.4533 138.349 52.24 138.349 51.96C138.349 51.72 138.222 51.54 137.969 51.42C137.716 51.3 137.269 51.2 136.629 51.12L135.309 50.94C134.136 50.78 133.202 50.56 132.509 50.28C131.829 49.9867 131.336 49.62 131.029 49.18C130.722 48.7267 130.569 48.1667 130.569 47.5C130.569 46.4467 131.062 45.6333 132.049 45.06C133.036 44.4733 134.416 44.18 136.189 44.18C137.909 44.18 139.236 44.4333 140.169 44.94C141.102 45.4467 141.702 46.2533 141.969 47.36L138.329 47.7ZM156.685 55V53.7C156.125 54.26 155.512 54.6667 154.845 54.92C154.192 55.1733 153.432 55.3 152.565 55.3C151.152 55.3 150.065 55.0267 149.305 54.48C148.545 53.92 148.165 53.12 148.165 52.08C148.165 50.9467 148.652 50.0933 149.625 49.52C150.612 48.9467 152.145 48.6333 154.225 48.58L156.545 48.52V48.06C156.545 47.6333 156.379 47.3067 156.045 47.08C155.712 46.84 155.239 46.72 154.625 46.72C154.012 46.72 153.505 46.8067 153.105 46.98C152.719 47.1533 152.479 47.3933 152.385 47.7L148.845 47.44C149.099 46.3333 149.705 45.5133 150.665 44.98C151.639 44.4467 152.985 44.18 154.705 44.18C158.372 44.18 160.205 45.6 160.205 48.44V55H156.685ZM156.545 50.54L154.465 50.6C153.532 50.6267 152.865 50.7333 152.465 50.92C152.065 51.0933 151.865 51.3867 151.865 51.8C151.865 52.44 152.479 52.76 153.705 52.76C154.159 52.76 154.572 52.7067 154.945 52.6C155.332 52.4933 155.645 52.34 155.885 52.14C156.325 51.7667 156.545 51.34 156.545 50.86V50.54ZM177.74 55V48.86C177.74 48.2867 177.62 47.8667 177.38 47.6C177.153 47.32 176.773 47.18 176.24 47.18C175.653 47.18 175.126 47.4 174.66 47.84C174.26 48.24 174.06 48.68 174.06 49.16V55H170.1V48.86C170.1 48.2733 169.98 47.8467 169.74 47.58C169.513 47.3133 169.133 47.18 168.6 47.18C168.306 47.18 168.02 47.24 167.74 47.36C167.473 47.48 167.233 47.6533 167.02 47.88C166.62 48.28 166.42 48.7467 166.42 49.28V55H162.46V44.5H166.34V45.96C167.38 44.7733 168.653 44.18 170.16 44.18C170.986 44.18 171.693 44.34 172.28 44.66C172.866 44.98 173.313 45.4467 173.62 46.06C174.673 44.8067 176.06 44.18 177.78 44.18C179.02 44.18 179.98 44.5333 180.66 45.24C181.353 45.9333 181.7 46.9067 181.7 48.16V55H177.74ZM183.946 55V44.5H187.906V55H183.946ZM183.926 43.2V40.6H187.926V43.2H183.926ZM197.617 47.7C197.497 47.3267 197.264 47.0533 196.917 46.88C196.57 46.7067 196.09 46.62 195.477 46.62C194.877 46.62 194.41 46.6933 194.077 46.84C193.744 46.9733 193.577 47.1733 193.577 47.44C193.577 47.68 193.704 47.8667 193.957 48C194.224 48.1333 194.67 48.24 195.297 48.32L196.737 48.52C197.99 48.6933 198.95 48.9133 199.617 49.18C200.297 49.4467 200.777 49.7933 201.057 50.22C201.337 50.6333 201.477 51.18 201.477 51.86C201.477 52.9933 200.99 53.8533 200.017 54.44C199.044 55.0267 197.617 55.32 195.737 55.32C193.777 55.32 192.29 55.0133 191.277 54.4C190.264 53.7867 189.69 52.8667 189.557 51.64H193.257C193.497 52.4133 194.304 52.8 195.677 52.8C196.317 52.8 196.804 52.7333 197.137 52.6C197.47 52.4533 197.637 52.24 197.637 51.96C197.637 51.72 197.51 51.54 197.257 51.42C197.004 51.3 196.557 51.2 195.917 51.12L194.597 50.94C193.424 50.78 192.49 50.56 191.797 50.28C191.117 49.9867 190.624 49.62 190.317 49.18C190.01 48.7267 189.857 48.1667 189.857 47.5C189.857 46.4467 190.35 45.6333 191.337 45.06C192.324 44.4733 193.704 44.18 195.477 44.18C197.197 44.18 198.524 44.4333 199.457 44.94C200.39 45.4467 200.99 46.2533 201.257 47.36L197.617 47.7ZM202.992 55V51.04H206.732V55H202.992ZM208.971 55V51.04H212.711V55H208.971ZM214.95 55V51.04H218.69V55H214.95Z" fill="white"/>
</svg>
