<svg width="42" height="42" viewBox="0 0 42 42" fill="none" xmlns="http://www.w3.org/2000/svg">
<g clip-path="url(#clip0_32_15)">
<path d="M32.1562 0H9.84375C4.4072 0 0 4.4072 0 9.84375V32.1562C0 37.5928 4.4072 42 9.84375 42H32.1562C37.5928 42 42 37.5928 42 32.1562V9.84375C42 4.4072 37.5928 0 32.1562 0Z" fill="white"/>
<mask id="mask0_32_15" style="mask-type:luminance" maskUnits="userSpaceOnUse" x="4" y="8" width="34" height="26">
<path d="M4.59375 8.36719H37.4062V33.7854H4.59375V8.36719Z" fill="white"/>
</mask>
<g mask="url(#mask0_32_15)">
<path d="M32.3707 10.6307C30.2435 9.65415 27.9984 8.9578 25.6919 8.55906C25.671 8.55519 25.6493 8.55801 25.6301 8.56715C25.6108 8.57628 25.5949 8.59124 25.5846 8.60992C25.2962 9.12278 24.9766 9.79216 24.753 10.3181C22.2309 9.94047 19.7219 9.94047 17.2516 10.3181C17.0278 9.78035 16.6967 9.12278 16.407 8.60992C16.3962 8.59163 16.3803 8.57699 16.3611 8.56791C16.3419 8.55884 16.3205 8.55576 16.2995 8.55906C13.9928 8.95699 11.7477 9.65338 9.62069 10.6307C9.60248 10.6384 9.58712 10.6516 9.57672 10.6684C5.32291 17.0235 4.15774 23.2225 4.72933 29.3446C4.73092 29.3596 4.73552 29.3742 4.74285 29.3874C4.75017 29.4006 4.76009 29.4121 4.77199 29.4214C7.57844 31.4825 10.2971 32.7338 12.9653 33.5632C12.986 33.5694 13.0082 33.5691 13.0288 33.5623C13.0493 33.5556 13.0674 33.5427 13.0804 33.5254C13.7116 32.6635 14.2742 31.7547 14.7567 30.799C14.7633 30.786 14.7671 30.7716 14.7678 30.7569C14.7685 30.7423 14.7661 30.7276 14.7607 30.714C14.7553 30.7003 14.7471 30.688 14.7366 30.6777C14.7261 30.6675 14.7135 30.6596 14.6997 30.6545C13.8072 30.3159 12.9576 29.9033 12.1402 29.4345C12.1253 29.4258 12.1128 29.4135 12.1038 29.3987C12.0948 29.384 12.0895 29.3673 12.0885 29.35C12.0875 29.3328 12.0907 29.3155 12.0979 29.2998C12.1052 29.2841 12.1161 29.2704 12.1299 29.26C12.3023 29.1311 12.4718 28.9983 12.6381 28.8616C12.6527 28.8496 12.6703 28.8419 12.6891 28.8393C12.7078 28.8368 12.7269 28.8395 12.7441 28.8472C18.1142 31.2989 23.9278 31.2989 29.2344 28.8472C29.2517 28.839 29.271 28.8359 29.29 28.8382C29.309 28.8405 29.327 28.8482 29.3418 28.8603C29.5084 28.9977 29.6783 29.131 29.8514 29.26C29.8652 29.2703 29.8763 29.2839 29.8836 29.2996C29.8909 29.3152 29.8943 29.3324 29.8934 29.3497C29.8925 29.3669 29.8874 29.3837 29.8785 29.3985C29.8696 29.4133 29.8572 29.4257 29.8424 29.4345C29.0246 29.9121 28.1679 30.3197 27.2815 30.6532C27.2678 30.6585 27.2553 30.6666 27.2448 30.677C27.2344 30.6874 27.2263 30.6999 27.2211 30.7137C27.2158 30.7274 27.2135 30.7422 27.2144 30.7569C27.2152 30.7716 27.2191 30.786 27.2259 30.799C27.7168 31.7471 28.2765 32.6579 28.9007 33.5241C28.9134 33.5419 28.9313 33.5552 28.952 33.5622C28.9726 33.5692 28.995 33.5695 29.0158 33.5632C31.6969 32.7338 34.4156 31.4825 37.2222 29.4214C37.2343 29.4126 37.2443 29.4013 37.2516 29.3882C37.259 29.3752 37.2635 29.3608 37.2649 29.3459C37.949 22.2681 36.1189 16.1199 32.4134 10.6697C32.4043 10.652 32.3892 10.6382 32.3707 10.6307ZM15.5586 25.617C13.9418 25.617 12.6096 24.1327 12.6096 22.3098C12.6096 20.4869 13.916 19.0026 15.5586 19.0026C17.214 19.0026 18.5332 20.5 18.5073 22.3098C18.5073 24.1327 17.2012 25.617 15.5586 25.617ZM26.4615 25.617C24.8447 25.617 23.5127 24.1327 23.5127 22.3098C23.5127 20.4869 24.8189 19.0026 26.4615 19.0026C28.1169 19.0026 29.4362 20.5 29.4104 22.3098C29.4104 24.1327 28.1169 25.617 26.4615 25.617Z" fill="black"/>
</g>
</g>
<defs>
<clipPath id="clip0_32_15">
<rect width="42" height="42" fill="white"/>
</clipPath>
</defs>
</svg>
