<svg fill="none" height="873" viewBox="0 0 1620 873" width="1620" xmlns="http://www.w3.org/2000/svg"><path d="m693 60h108c54.676 0 99 44.324 99 99v562c0 4.971-4.029 9-9 9h-288c-4.971 0-9-4.029-9-9v-562c0-54.676 44.324-99 99-99z" stroke="#fff" stroke-width="2"/><path d="m1224.06 229.184h-5.64v-2.04h7.87v6.912c-.96.736-2.16 1.32-3.6 1.752-1.42.416-2.9.624-4.44.624-1.94 0-3.63-.352-5.09-1.056-1.44-.704-2.56-1.728-3.36-3.072-.78-1.344-1.17-2.944-1.17-4.8 0-1.792.37-3.368 1.12-4.728.76-1.376 1.84-2.44 3.24-3.192 1.43-.768 3.11-1.152 5.04-1.152 2 0 3.68.424 5.02 1.272 1.34.832 2.29 2.048 2.83 3.648l-2.35.408c-.43-1.088-1.11-1.896-2.04-2.424-.91-.528-2.09-.792-3.53-.792-2.14 0-3.82.616-5.04 1.848-1.21 1.216-1.82 2.912-1.82 5.088 0 2.16.63 3.84 1.89 5.04 1.27 1.2 3.04 1.8 5.31 1.8 2.3 0 4.22-.416 5.76-1.248zm15.54 6.816v-1.944c-.76.784-1.59 1.36-2.5 1.728-.9.352-1.94.528-3.12.528-1.62 0-2.86-.328-3.72-.984s-1.3-1.592-1.3-2.808c0-1.328.57-2.312 1.71-2.952 1.15-.656 2.95-1.016 5.4-1.08l3.48-.096v-.432c0-1.024-.31-1.776-.91-2.256-.6-.496-1.52-.744-2.79-.744-1.18 0-2.11.144-2.78.432-.66.288-1.1.744-1.32 1.368l-2.07-.264c.5-2.192 2.59-3.288 6.27-3.288 1.95 0 3.4.392 4.34 1.176.96.784 1.44 1.984 1.44 3.6v8.016zm-.05-6-3.46.096c-1.66.048-2.88.248-3.65.6-.76.352-1.15.896-1.15 1.632 0 .704.28 1.24.84 1.608s1.37.552 2.43.552c.75 0 1.46-.112 2.13-.336.69-.24 1.28-.568 1.78-.984.72-.592 1.08-1.32 1.08-2.184zm25.13 6v-7.584c0-1.136-.24-1.968-.72-2.496s-1.25-.792-2.3-.792c-1.17 0-2.22.424-3.15 1.272-.36.32-.64.688-.84 1.104-.19.4-.28.824-.28 1.272v7.224h-2.26v-7.584c0-1.136-.24-1.968-.72-2.496s-1.25-.792-2.3-.792c-.58 0-1.14.12-1.68.36-.53.24-1.02.592-1.47 1.056-.75.752-1.13 1.64-1.13 2.664v6.792h-2.25v-12.408h2.23v2.304c.66-.912 1.38-1.584 2.18-2.016.8-.448 1.7-.672 2.69-.672 1.14 0 2.07.224 2.81.672s1.26 1.112 1.56 1.992c.7-.912 1.47-1.584 2.3-2.016.84-.432 1.8-.648 2.88-.648 1.56 0 2.72.408 3.51 1.224.8.8 1.2 1.992 1.2 3.576v7.992zm6.09 0v-17.136h2.26v6.96c.54-.816 1.3-1.456 2.28-1.92.97-.464 2.04-.696 3.19-.696 1.23 0 2.32.264 3.26.792.96.512 1.71 1.264 2.24 2.256.54.976.81 2.128.81 3.456 0 1.28-.26 2.424-.79 3.432s-1.29 1.8-2.28 2.376-2.15.864-3.48.864c-2.32 0-4.07-.808-5.26-2.424v2.04zm2.23-5.856c0 1.216.42 2.256 1.25 3.12.4.416.89.736 1.47.96.59.208 1.23.312 1.92.312 1.56 0 2.76-.408 3.57-1.224.82-.816 1.23-2.008 1.23-3.576 0-1.472-.41-2.616-1.23-3.432-.81-.832-1.95-1.248-3.41-1.248-.68 0-1.34.128-1.96.384-.63.24-1.16.584-1.61 1.032-.39.384-.69.832-.91 1.344-.21.512-.32 1.032-.32 1.56zm16.65.288c.04 1.28.46 2.296 1.28 3.048.83.752 1.94 1.128 3.33 1.128 2.32 0 3.75-.696 4.27-2.088h2.16c-.67 2.576-2.84 3.864-6.52 3.864-2.12 0-3.77-.576-4.97-1.728s-1.8-2.736-1.8-4.752c0-1.296.27-2.448.81-3.456.56-1.008 1.36-1.8 2.4-2.376s2.25-.864 3.63-.864c2.09 0 3.73.552 4.89 1.656 1.17 1.088 1.76 2.616 1.76 4.584v.984zm9.03-1.704c-.02-1.2-.41-2.128-1.18-2.784s-1.86-.984-3.29-.984c-1.23 0-2.25.336-3.07 1.008-.81.672-1.29 1.592-1.44 2.76zm13.27 7.056c-.96.32-1.98.48-3.07.48-1.36 0-2.36-.328-3-.984s-.96-1.696-.96-3.12v-6.792h-2.42v-1.776h2.42v-3.384h2.26v3.384h4.41v1.776h-4.41v6.984c0 1.376.69 2.064 2.09 2.064.76 0 1.54-.128 2.32-.384zm10.53 0c-.96.32-1.99.48-3.08.48-1.36 0-2.36-.328-3-.984s-.96-1.696-.96-3.12v-6.792h-2.42v-1.776h2.42v-3.384h2.26v3.384h4.42v1.776h-4.42v6.984c0 1.376.7 2.064 2.09 2.064.77 0 1.54-.128 2.33-.384zm12.27.216v-1.944c-.75.784-1.58 1.36-2.49 1.728-.9.352-1.94.528-3.12.528-1.62 0-2.86-.328-3.72-.984-.87-.656-1.3-1.592-1.3-2.808 0-1.328.57-2.312 1.7-2.952 1.16-.656 2.96-1.016 5.4-1.08l3.48-.096v-.432c0-1.024-.3-1.776-.91-2.256-.59-.496-1.52-.744-2.78-.744-1.19 0-2.11.144-2.79.432-.65.288-1.09.744-1.32 1.368l-2.06-.264c.5-2.192 2.58-3.288 6.26-3.288 1.96 0 3.4.392 4.35 1.176.96.784 1.44 1.984 1.44 3.6v8.016zm-.05-6-3.45.096c-1.67.048-2.88.248-3.65.6s-1.15.896-1.15 1.632c0 .704.28 1.24.84 1.608s1.37.552 2.42.552c.75 0 1.47-.112 2.14-.336.69-.24 1.28-.568 1.77-.984.72-.592 1.08-1.32 1.08-2.184z" fill="#fff"/><path d="m1130.21 236v-13.752l-6.72 13.752h-2.01l-6.72-13.608v13.608h-2.28v-17.136h2.95l7.13 14.616 7.1-14.616h2.86v17.136z" fill="#fff"/><path d="m1160.99 228.562v-1.19h1.44c.68 0 1.21-.145 1.59-.434.4-.289.59-.695.59-1.218 0-.495-.2-.868-.61-1.12-.4-.252-1-.378-1.78-.378-.49 0-.9.056-1.23.168-.33.103-.6.271-.82.504-.21.233-.39.537-.53.91l-1.27-.196c.19-.84.61-1.475 1.26-1.904.66-.429 1.54-.644 2.64-.644 1.12 0 2.01.229 2.66.686.67.448 1 1.055 1 1.82 0 .541-.15.994-.44 1.358-.28.364-.72.672-1.33.924 1.36.448 2.03 1.241 2.03 2.38 0 .952-.34 1.694-1.03 2.226-.68.532-1.64.798-2.87.798-1.24 0-2.21-.252-2.91-.756-.7-.513-1.08-1.237-1.12-2.17h1.33c.1.625.36 1.078.77 1.358.42.271 1.05.406 1.9.406s1.49-.154 1.93-.462c.45-.308.67-.761.67-1.358 0-1.139-.82-1.708-2.46-1.708zm7.31 4.438v-9.996h1.31v4.06c.32-.476.76-.849 1.33-1.12s1.19-.406 1.87-.406c.71 0 1.35.154 1.9.462.56.299.99.737 1.3 1.316.32.569.48 1.241.48 2.016 0 .747-.16 1.414-.46 2.002-.31.588-.76 1.05-1.33 1.386-.58.336-1.26.504-2.03.504-1.36 0-2.38-.471-3.07-1.414v1.19zm1.3-3.416c0 .709.24 1.316.73 1.82.23.243.52.429.85.56.35.121.72.182 1.12.182.92 0 1.61-.238 2.09-.714.47-.476.71-1.171.71-2.086 0-.859-.24-1.526-.71-2.002-.48-.485-1.14-.728-1.99-.728-.4 0-.78.075-1.15.224-.36.14-.68.341-.94.602-.22.224-.4.485-.53.784-.12.299-.18.602-.18.91zm8.79 3.416v-7.238h1.31v7.238zm-.04-8.568v-1.428h1.4v1.428zm9.18 3.234c-.14-.373-.41-.649-.8-.826-.38-.187-.91-.28-1.58-.28-.68 0-1.21.093-1.6.28s-.59.439-.59.756.14.555.41.714c.28.159.8.294 1.55.406l.93.14c.82.121 1.44.271 1.87.448.44.168.75.387.93.658s.28.621.28 1.05c0 1.475-1.2 2.212-3.59 2.212-1.15 0-2.04-.191-2.67-.574-.64-.392-1.02-.98-1.16-1.764h1.24c.27.868 1.13 1.302 2.56 1.302.76 0 1.34-.098 1.75-.294.42-.196.63-.476.63-.84 0-.317-.14-.555-.44-.714s-.86-.299-1.67-.42l-.85-.126c-.79-.121-1.39-.271-1.82-.448-.42-.177-.72-.401-.9-.672-.18-.28-.27-.63-.27-1.05 0-.653.3-1.162.9-1.526.61-.373 1.44-.56 2.51-.56 1.04 0 1.84.154 2.4.462.57.308.97.812 1.18 1.512z" fill="#fff"/><path d="m797.5 334v5.5c0 5.247-4.253 9.5-9.5 9.5h-28.887c-3.371 0-6.538 1.619-8.512 4.352l-3.101 4.294-3.101-4.294c-1.974-2.733-5.141-4.352-8.512-4.352h-28.887c-5.247 0-9.5-4.253-9.5-9.5v-5.5c0-5.247 4.253-9.5 9.5-9.5h81c5.247 0 9.5 4.253 9.5 9.5z" fill="#448af7" stroke="#fff"/><path d="m728.302 339.5v-6.426h5.112v.783h-4.221v1.935h4.014v.783h-4.014v2.142h4.41l-.153.783zm11.749 0-4.275-5.166v5.166h-.873v-6.426h.864l4.275 5.166v-5.166h.873v6.426zm4.521 0v-5.643h-2.664v-.783h6.219v.783h-2.664v5.643zm9.339 0-1.485-2.601c-.066.006-.207.009-.423.009h-2.016v2.592h-.873v-6.426h2.997c1.656 0 2.484.642 2.484 1.926 0 .876-.423 1.449-1.269 1.719l1.611 2.781zm-1.881-3.375c1.092 0 1.638-.381 1.638-1.143 0-.402-.129-.69-.387-.864s-.669-.261-1.233-.261h-2.061v2.268zm3.94 3.375v-6.426h5.112v.783h-4.221v1.935h4.014v.783h-4.014v2.142h4.41l-.153.783zm11.398 0-1.485-2.601c-.066.006-.207.009-.423.009h-2.016v2.592h-.873v-6.426h2.997c1.656 0 2.484.642 2.484 1.926 0 .876-.423 1.449-1.269 1.719l1.611 2.781zm-1.881-3.375c1.092 0 1.638-.381 1.638-1.143 0-.402-.129-.69-.387-.864s-.669-.261-1.233-.261h-2.061v2.268z" fill="#fff"/><g stroke="#fff"><circle cx="748" cy="378" fill="#448af7" r="10.5"/><path d="m592.5 59-52.5-57.5h-540m897.5 57.5 57.5-57.5h664.5m-1027 729.5-108 45.5h-484.5m897.5-45.5 112 45.5h610" stroke-width="2"/><path d="m328.293 635.192c.868-.165 2.475-.308 4.215-.053 1.741.254 3.523.892 4.862 2.204 2.59 2.542 6.508 8.178 10.44 16.779l-2.444 2.551c-.339-.858-.82-2.047-1.417-3.453-1.243-2.929-2.996-6.811-5.026-10.598-1.767-3.3-3.919-4.65-5.911-4.754-.968-.05-1.835.203-2.506.599-.639.377-1.207.954-1.41 1.642l-.002.004c-.146.506-.158 1.168-.124 1.832.037.696.133 1.515.266 2.396.267 1.765.695 3.848 1.142 5.831.449 1.986.921 3.886 1.281 5.288.145.567.273 1.053.373 1.432-3.17 1.204-8.855 3.58-13.913 5.726-2.785 1.182-5.39 2.298-7.298 3.118-.75.323-1.392.599-1.896.817v-.001c-.007-.052-.015-.106-.022-.16-.083-.594-.184-1.322-.289-2.158-.228-1.826-.472-4.16-.57-6.693-.197-5.116.212-10.855 2.384-14.88.419-.775 1.21-1.559 2.371-2.328 1.153-.763 2.608-1.469 4.27-2.115 3.325-1.29 7.37-2.294 11.224-3.026z" stroke-width="2"/><path d="m404.143 779.912c20.692-5.493 26.866-28.869 32.735-30.83" stroke-miterlimit="10"/><path d="m431.111 733.53v-.001c-1.333-10.757-3.258-24.27-5.535-36.333-1.138-6.031-2.366-11.711-3.655-16.51-1.284-4.778-2.646-8.753-4.073-11.328l-.001-.001c-.356-.642-.544-1.542-.549-2.673-.005-1.122.171-2.398.471-3.734.6-2.671 1.672-5.466 2.636-7.526.628-1.341 1.332-1.801 1.945-1.927.672-.138 1.523.064 2.533.633 2.02 1.138 4.078 3.408 5.333 4.991l.001.001c2.188 2.758 3.326 5.686 4.173 8.912.393 1.498.721 3.046 1.065 4.676.029.134.057.268.086.403.374 1.77.775 3.628 1.301 5.563 3.911 14.389 8.391 35.216 6.845 50.073-.317 3.034-.59 5.379-.909 7.204-.32 1.837-.674 3.066-1.113 3.91-.417.802-.907 1.248-1.559 1.54-.704.314-1.656.475-3.054.562h-.002c-1.85.117-2.886-.034-3.692-.912-.907-.99-1.699-3.079-2.247-7.523z" fill="#1b1b1b" stroke-width="2"/><path d="m433.924 665.928v.001c4.437 12.218 9.256 31.361 10.668 51.348.443 6.275.095 11.947-.974 16.598-.685 2.98-1.676 5.586-2.978 7.665 2.293-1.329 3.984-3.536 5.211-6.38 1.766-4.092 2.517-9.397 2.666-14.948.298-11.088-1.811-22.793-2.568-26.835-5.083-26.991-11.713-37.01-16.67-42.29-.886-.942-2.595-2.22-4.871-3.617-2.255-1.385-5.002-2.847-7.91-4.17-5.87-2.67-12.204-4.68-16.453-4.483h-.001c-1.494.069-3.576.843-6.008 2.199-2.401 1.338-5.032 3.179-7.592 5.246-5.027 4.057-9.647 8.872-11.705 12.295.086.18.249.444.509.798.556.753 1.436 1.752 2.562 2.928 2.242 2.342 5.359 5.282 8.531 8.17 3.168 2.886 6.376 5.707 8.793 7.807 1.208 1.05 2.218 1.92 2.926 2.526.046.04.091.078.134.116 2.081-4.07 6.033-10.295 10.399-15.77 2.407-3.019 4.965-5.843 7.431-7.962 2.424-2.083 4.918-3.626 7.184-3.814zm0 0c-.811-2.231-2.316-5.372-4.125-7.935m4.125 7.935-4.125-7.935m0 0c-.903-1.28-1.911-2.459-2.98-3.306m2.98 3.306-2.98-3.306m0 0c-1.056-.836-2.291-1.441-3.61-1.331zm-52.224 4.116.001-.002z" stroke-width="2"/><path d="m388.594 705.99-.001-.003c-.669-2.834-.081-5.681 1.228-8.007 1.317-2.34 3.316-4.067 5.353-4.726h.001c1.608-.521 3.458-.281 5.466.787 1.982 1.054 4.061 2.891 6.073 5.462 7.958 22.963 9.473 50.473 6.699 72.832-1.354 10.887-13.478 22.747-33.443 26.053.237-.147.476-.302.717-.465 4.17-2.824 8.91-8.076 11.502-17.752 3.877-14.472 2.953-33.056 1.094-47.934-.932-7.456-2.104-14.016-3.043-18.711-.469-2.349-.88-4.232-1.175-5.529-.147-.649-.265-1.152-.346-1.493-.041-.17-.073-.3-.094-.388l-.025-.1z" fill="#1b1b1b" stroke-width="2"/><path d="m342.002 667.867c25.161.874 39.584 21.567 47.104 45.698 7.508 24.093 7.957 51.131 5.475 63.733-.172.871-.329 1.722-.483 2.553-.404 2.185-.783 4.237-1.342 6.176-.763 2.643-1.832 4.96-3.665 6.897-3.662 3.871-10.654 6.513-25.43 6.513-33.007 0-51.527-2.797-58.467-4.987-2.413-.763-5.917-1.969-9.099-4.886-3.162-2.898-6.086-7.562-7.177-15.381v-.001c-1.71-12.177-2.548-23.367 1.004-53.435 1.71-14.457 3.68-28.023 10.708-37.815 6.944-9.676 18.989-15.85 41.372-15.065z" fill="#1b1b1b" stroke-width="2"/></g><path d="m404.226 711.173c-1.196-6.285-2.893-13.197-5.688-19.941l-3.365.153c2.517 5.715 4.603 12.432 6.105 20.344 4.797 25.352 5.354 42.345 5.103 51.565-.153 5.535 2.893 5.562 3.046-.348.236-9.47-.404-26.408-5.201-51.773z" fill="#fff"/><path d="m445.805 756.118-12.988 1.154c-1.196.112-2.267-.778-2.364-1.988l-.988-11.028c-.111-1.196.779-2.267 1.989-2.364l12.988-1.154c1.196-.111 2.267.779 2.365 1.989l.987 11.027c.097 1.196-.793 2.253-1.989 2.364z" fill="#fff"/><path d="m434.24 769.142v-.003l-3.769-19.859-.002-.008c-.008-.039.017-.077.065-.081l.011-.001 9.914-1.001c.035-.004.069.02.077.054l.002.008 4.895 18.329c.248.924-.324 1.881-1.256 2.095l-7.893 1.807c-.001 0-.002 0-.002 0-.941.204-1.871-.404-2.042-1.34z" stroke="#fff"/><path d="m326.352 708.643h-.008-.007c-1.599 0-2.904-1.302-2.907-2.901l.292-11.034v-.014c0-1.575 1.252-2.865 2.823-2.906l21.208.569.013.001.014-.001c.384-.01.766.055 1.124.193.358.137.686.345.964.609.278.265.501.582.656.933.154.35.238.726.247 1.108l-.042 11.104v.006c.012 1.629-1.294 2.969-2.928 2.973z" fill="#448af7" stroke="#fff"/><path d="m398.969 692.289c-6.855-17.133-20.692-33.612-50.924-36.337-20.999-1.892-35.141 7.857-40.899 11.389-1.279.778-2.711 1.752-3.685 3.087-1.237 1.696-1.404 3.087-1.404 3.087s18.217-17.007 45.709-14.574c15.715 1.391 36.351 6.634 47.713 33.195.959-.237 2.253-.098 3.49.153z" fill="#fff"/><path d="m361.181 786.481c-8.663.215-20.438.26-32.898-.42-6.557-.36-12.209-1.01-16.448-1.877-2.121-.435-3.861-.919-5.173-1.436-1.351-.532-2.105-1.046-2.422-1.458-.094-.121-.187-.241-.28-.361-1.118-1.441-2.224-2.867-3.11-5.627-.973-3.032-1.687-7.715-1.687-15.749 0-5.341.989-10.073 2.858-13.455 1.854-3.355 4.523-5.317 7.973-5.403h.001c2.967-.077 20.064-.285 35.846-.475 1.442-.017 2.873-.034 4.281-.051 6.293-.075 12.127-.145 16.448-.2 1.12-.014 2.138-.027 3.037-.038-.013.013-.025.026-.037.04-1.164 1.26-2.181 3.018-3.009 5.075-1.657 4.119-2.631 9.629-2.411 15.325.532 13.727 3.121 20.609 5.744 24.075.511.675 1.023 1.22 1.521 1.66-2.462.122-5.97.269-10.234.375z" stroke="#fff" stroke-width="2"/><path d="m1376 256.667-4.75-4.667 18.67-18.667h-40.59v-6.666h40.59l-18.67-18.667 4.75-4.667 26.67 26.667z" fill="#699bf7"/><path d="m540.5 5c16.5 136.667 28.7 481.8-54.5 769" stroke="#fff" stroke-width="2"/><path d="m955.048 2c-16.637 137.733-28.939 485.559 54.952 775" stroke="#fff" stroke-width="2"/><path d="m1052.89 180.368c.01-.133.02-.255.03-.368h388.14c.01.108.02.225.03.35.05.83.13 2.038.22 3.548.19 3.021.44 7.252.69 12.091.5 9.684 1 21.788 1 31.511s-.5 21.827-1 31.511c-.25 4.839-.5 9.07-.69 12.091-.09 1.51-.17 2.718-.22 3.548-.01.125-.02.242-.03.35h-388.14c-.01-.121-.02-.253-.03-.396-.07-.849-.17-2.084-.28-3.627-.24-3.084-.55-7.395-.86-12.303-.63-9.821-1.25-22.007-1.25-31.523s.62-21.527 1.25-31.173c.31-4.82.62-9.044.86-12.063.11-1.509.21-2.717.28-3.547z" stroke="#fff" stroke-width="2"/><circle cx="1123" cy="228" r="20" stroke="#fff" stroke-width="2"/><circle cx="1174" cy="228" r="20" stroke="#fff" stroke-width="2"/><path d="m173.414 230.36c-.336 1.968-1.232 3.472-2.688 4.512s-3.4 1.56-5.832 1.56c-1.84 0-3.456-.352-4.848-1.056-1.376-.72-2.456-1.76-3.24-3.12-.768-1.36-1.152-2.968-1.152-4.824 0-1.744.368-3.296 1.104-4.656s1.8-2.424 3.192-3.192 3.016-1.152 4.872-1.152c2.272 0 4.096.472 5.472 1.416 1.376.928 2.328 2.336 2.856 4.224l-2.328.36c-.496-1.376-1.216-2.368-2.16-2.976-.928-.608-2.208-.912-3.84-.912-1.328 0-2.496.272-3.504.816s-1.792 1.336-2.352 2.376-.84 2.272-.84 3.696c0 1.392.264 2.608.792 3.648.528 1.024 1.304 1.824 2.328 2.4 1.024.56 2.24.84 3.648.84 1.76 0 3.128-.32 4.104-.96.992-.64 1.648-1.64 1.968-3zm13.861 5.64v-7.584c0-1.152-.28-1.984-.84-2.496-.544-.528-1.432-.792-2.664-.792-.656 0-1.312.128-1.968.384-.64.24-1.192.584-1.656 1.032-.4.368-.704.784-.912 1.248-.208.448-.312.92-.312 1.416v6.792h-2.256v-17.136h2.256v7.008c1.376-1.776 3.184-2.664 5.424-2.664 1.712 0 3 .408 3.864 1.224.88.8 1.32 1.992 1.32 3.576v7.992zm15.895 0v-1.944c-.752.784-1.584 1.36-2.496 1.728-.896.352-1.936.528-3.12.528-1.616 0-2.856-.328-3.72-.984s-1.296-1.592-1.296-2.808c0-1.328.568-2.312 1.704-2.952 1.152-.656 2.952-1.016 5.4-1.08l3.48-.096v-.432c0-1.024-.304-1.776-.912-2.256-.592-.496-1.52-.744-2.784-.744-1.184 0-2.112.144-2.784.432-.656.288-1.096.744-1.32 1.368l-2.064-.264c.496-2.192 2.584-3.288 6.264-3.288 1.952 0 3.4.392 4.344 1.176.96.784 1.44 1.984 1.44 3.6v8.016zm-.048-6-3.456.096c-1.664.048-2.88.248-3.648.6s-1.152.896-1.152 1.632c0 .704.28 1.24.84 1.608s1.368.552 2.424.552c.752 0 1.464-.112 2.136-.336.688-.24 1.28-.568 1.776-.984.72-.592 1.08-1.32 1.08-2.184zm-1.272-8.184-2.424-2.112-2.424 2.112h-2.088l3.408-3.432h2.208l3.408 3.432zm15.107 13.968c-.96.32-1.984.48-3.072.48-1.36 0-2.36-.328-3-.984s-.96-1.696-.96-3.12v-6.792h-2.424v-1.776h2.424v-3.384h2.256v3.384h4.416v1.776h-4.416v6.984c0 1.376.696 2.064 2.088 2.064.768 0 1.544-.128 2.328-.384zm2.484.216v-12.408h2.256v12.408zm-.072-14.688v-2.448h2.4v2.448zm6.259 14.688v-17.136h2.256v17.136zm6.188 0v-17.136h2.256v17.136zm19.915-6.24c0 1.296-.296 2.448-.888 3.456-.576.992-1.416 1.768-2.52 2.328s-2.392.84-3.864.84c-1.424 0-2.672-.256-3.744-.768s-1.904-1.264-2.496-2.256-.888-2.168-.888-3.528c0-1.296.288-2.44.864-3.432.592-1.008 1.44-1.792 2.544-2.352s2.392-.84 3.864-.84c1.424 0 2.672.256 3.744.768s1.904 1.264 2.496 2.256.888 2.168.888 3.528zm-2.376.048c0-1.504-.424-2.672-1.272-3.504-.832-.832-2.008-1.248-3.528-1.248-1.536 0-2.728.416-3.576 1.248-.848.816-1.272 1.976-1.272 3.48s.416 2.672 1.248 3.504c.848.832 2.032 1.248 3.552 1.248 1.536 0 2.728-.408 3.576-1.224.848-.832 1.272-2 1.272-3.504zm16.248 6.192v-7.584c0-1.152-.28-1.984-.84-2.496-.544-.528-1.432-.792-2.664-.792-.656 0-1.312.128-1.968.384-.64.24-1.192.584-1.656 1.032-.4.368-.704.784-.912 1.248-.208.448-.312.92-.312 1.416v6.792h-2.256v-12.408h2.232v2.304c1.36-1.792 3.176-2.688 5.448-2.688 1.712 0 3 .408 3.864 1.224.88.8 1.32 1.992 1.32 3.576v7.992z" fill="#fff"/><path d="m370.212 236v-13.752l-6.72 13.752h-2.016l-6.72-13.608v13.608h-2.28v-17.136h2.952l7.128 14.616 7.104-14.616h2.856v17.136z" fill="#fff"/><path d="m298.317 233v-8.176l-2.618 1.568-.588-1.008 3.346-2.058h1.218v9.674zm5.98 0v-9.996h1.316v4.06c.318-.476.761-.849 1.33-1.12.57-.271 1.19-.406 1.862-.406.719 0 1.354.154 1.904.462.56.299.994.737 1.302 1.316.318.569.476 1.241.476 2.016 0 .747-.154 1.414-.462 2.002s-.751 1.05-1.33 1.386c-.578.336-1.255.504-2.03.504-1.353 0-2.375-.471-3.066-1.414v1.19zm1.302-3.416c0 .709.243 1.316.728 1.82.234.243.518.429.854.56.346.121.719.182 1.12.182.915 0 1.61-.238 2.086-.714s.714-1.171.714-2.086c0-.859-.238-1.526-.714-2.002-.476-.485-1.138-.728-1.988-.728-.401 0-.784.075-1.148.224-.364.14-.676.341-.938.602-.224.224-.401.485-.532.784-.121.299-.182.602-.182.91zm8.788 3.416v-7.238h1.316v7.238zm-.042-8.568v-1.428h1.4v1.428zm9.182 3.234c-.14-.373-.406-.649-.798-.826-.383-.187-.91-.28-1.582-.28s-1.204.093-1.596.28-.588.439-.588.756.135.555.406.714c.28.159.798.294 1.554.406l.924.14c.821.121 1.446.271 1.876.448.438.168.746.387.924.658.186.271.28.621.28 1.05 0 1.475-1.195 2.212-3.584 2.212-1.148 0-2.04-.191-2.674-.574-.635-.392-1.022-.98-1.162-1.764h1.246c.27.868 1.124 1.302 2.562 1.302.756 0 1.339-.098 1.75-.294.42-.196.63-.476.63-.84 0-.317-.15-.555-.448-.714-.299-.159-.854-.299-1.666-.42l-.854-.126c-.784-.121-1.391-.271-1.82-.448-.42-.177-.719-.401-.896-.672-.178-.28-.266-.63-.266-1.05 0-.653.298-1.162.896-1.526.606-.373 1.442-.56 2.506-.56 1.045 0 1.848.154 2.408.462.569.308.961.812 1.176 1.512z" fill="#fff"/><path d="m109 201.333 4.75 4.667-18.6663 18.667h40.5833v6.666h-40.5833l18.6663 18.667-4.75 4.667-26.6663-26.667z" fill="#699bf7"/><path d="m432.111 274.632c-.011.133-.021.255-.031.368h-388.145c-.0071-.108-.0149-.225-.0231-.35-.0546-.83-.1327-2.038-.2263-3.548-.1873-3.021-.4372-7.252-.6869-12.092-.4998-9.683-.9987-21.787-.9987-31.51s.4989-21.827.9987-31.511c.2498-4.839.4996-9.07.6869-12.091.0936-1.51.1717-2.718.2263-3.548.0082-.125.016-.242.0231-.35h388.144c.009.121.02.253.032.396.068.849.165 2.084.283 3.627.234 3.084.546 7.395.858 12.303.625 9.821 1.248 22.007 1.248 31.523s-.623 21.527-1.248 31.173c-.312 4.82-.624 9.044-.858 12.063-.117 1.509-.215 2.717-.283 3.547z" stroke="#fff" stroke-width="2"/><circle cx="362" cy="227" r="20" stroke="#fff" stroke-width="2" transform="matrix(-1 0 0 -1 724 454)"/><circle cx="311" cy="227" r="20" stroke="#fff" stroke-width="2" transform="matrix(-1 0 0 -1 622 454)"/><path d="m868.5 90-96.5 74h-120.5m244 562.5-137-36.5h-119.5" stroke="#fff" stroke-width="2"/><path d="m645.222 47.2876-17.722-.7876v790l18.375-3.267c2.387-.424 4.125-2.499 4.125-4.923v-776.0273c0-2.6751-2.106-4.8763-4.778-4.9951z" fill="#1e1e1e" stroke="#fff" stroke-width="2"/><path d="m594.596 59.3881 27.767-12.269c5.949-2.6289 12.637 1.7277 12.637 8.2322v777.1327c0 5.752-8.118 6.954-9.785 1.449l-30.829-101.805c-.256-.846-.386-1.725-.386-2.609v-669.2162c0-.396.234-.7546.596-.9147z" fill="#141414" stroke="#fff" stroke-width="2"/><path d="m621.513 396.817 6.025 9.239c.954 1.463 1.462 3.171 1.462 4.917v119.571c0 2.984-3.883 4.138-5.513 1.639l-6.025-9.239c-.954-1.463-1.462-3.171-1.462-4.917v-119.571c0-2.984 3.883-4.138 5.513-1.639z" stroke="#fff" stroke-width="2"/><path d="m620.191 464.685-11.041-6.721c-2.577-1.569-4.15-4.367-4.15-7.384 0-2.982 3.262-4.815 5.809-3.265l11.041 6.721c2.577 1.569 4.15 4.367 4.15 7.384 0 2.982-3.262 4.815-5.809 3.265z" fill="#0e0e0e" stroke="#fff" stroke-width="2"/></svg>