<svg width="498" height="453" viewBox="0 0 498 453" fill="none" xmlns="http://www.w3.org/2000/svg">
<path d="M484.246 158.49L425.076 321.06C423.946 324.17 418.816 325.17 413.626 323.28L9.56573 176.21C4.37573 174.32 1.08573 170.27 2.22573 167.15L61.3957 4.58008C62.5257 1.47008 67.6557 0.470077 72.8457 2.36008L476.916 149.43C482.106 151.32 485.396 155.37 484.256 158.49H484.246Z" fill="#1D1D1B"/>
<path d="M484.246 158.49L425.076 321.06C423.946 324.17 418.816 325.17 413.626 323.28L9.56573 176.21C4.37573 174.32 1.08573 170.27 2.22573 167.15L61.3957 4.58008C62.5257 1.47008 67.6557 0.470077 72.8457 2.36008L476.916 149.43C482.106 151.32 485.396 155.37 484.256 158.49H484.246Z" stroke="white" stroke-width="2" stroke-miterlimit="10"/>
<path d="M303.575 248.88C335.105 244.87 359.305 230.71 367.545 208.06C375.785 185.42 366.355 159.01 344.775 135.67" stroke="white" stroke-width="2" stroke-miterlimit="10"/>
<path d="M141.685 189.96C120.105 166.62 110.675 140.22 118.915 117.57C127.155 94.93 151.355 80.76 182.885 76.75" stroke="white" stroke-width="2" stroke-miterlimit="10"/>
<path d="M288.635 227.57C312.355 224.55 330.565 213.89 336.765 196.85C342.965 179.81 335.875 159.95 319.645 142.38" stroke="white" stroke-width="2" stroke-miterlimit="10"/>
<path d="M166.835 183.24C150.605 165.68 143.505 145.81 149.715 128.77C155.925 111.73 174.115 101.07 197.845 98.05" stroke="white" stroke-width="2" stroke-miterlimit="10"/>
<path d="M274.505 207.41C290.835 205.33 303.365 197.99 307.635 186.26C311.905 174.53 307.015 160.86 295.845 148.76" stroke="white" stroke-width="2" stroke-miterlimit="10"/>
<path d="M190.625 176.88C179.455 164.79 174.575 151.11 178.835 139.38C183.095 127.65 195.635 120.32 211.965 118.23" stroke="white" stroke-width="2" stroke-miterlimit="10"/>
<path d="M387.802 92.7163L355.502 181.456C354.372 184.566 349.242 185.566 344.052 183.676L119.562 101.966C114.372 100.076 111.082 96.0263 112.222 92.9063L144.522 4.17627C145.652 1.06627 150.782 0.0662692 155.972 1.95627L380.462 83.6663C385.652 85.5563 388.942 89.6063 387.802 92.7263V92.7163Z" fill="black"/>
<path d="M387.802 92.7163L355.502 181.456C354.372 184.566 349.242 185.566 344.052 183.676L119.562 101.966C114.372 100.076 111.082 96.0263 112.222 92.9063L144.522 4.17627C145.652 1.06627 150.782 0.0662692 155.972 1.95627L380.462 83.6663C385.652 85.5563 388.942 89.6063 387.802 92.7263V92.7163Z" stroke="white" stroke-width="2" stroke-miterlimit="10"/>
<path d="M402.832 179.186C402.832 179.186 391.222 176.896 373.202 169.496C355.182 162.086 348.112 156.686 337.882 147.286C330.772 140.746 325.502 132.696 330.022 124.896C334.582 117.046 359.062 108.966 386.722 117.886C412.292 126.126 419.752 127.816 427.602 128.116C435.452 128.416 476.022 133.116 494.122 151.896C501.062 159.106 489.562 187.926 476.482 196.806C460.862 207.406 402.822 179.196 402.822 179.196L402.832 179.186Z" fill="black" stroke="white" stroke-width="2" stroke-miterlimit="10"/>
<path d="M381.631 118.556C370.481 111.956 337.641 112.606 333.031 123.836C328.421 135.066 358.421 154.696 365.171 151.556C379.331 144.966 385.821 121.036 381.631 118.556Z" fill="black" stroke="white" stroke-width="2" stroke-miterlimit="10"/>
<path d="M255.161 151.556C255.161 151.556 249.481 164.436 259.711 173.906C269.941 183.376 295.311 169.356 295.311 169.356" fill="#1E1E1E"/>
<path d="M255.161 151.556C255.161 151.556 249.481 164.436 259.711 173.906C269.941 183.376 295.311 169.356 295.311 169.356" stroke="white" stroke-width="2" stroke-miterlimit="10"/>
<path d="M341.791 68.9764C341.791 68.9764 358.991 45.1164 381.341 38.6764C403.691 32.2364 417.191 24.5764 429.771 27.6964L469.541 37.5464" fill="#1E1E1E"/>
<path d="M341.791 68.9764C341.791 68.9764 358.991 45.1164 381.341 38.6764C403.691 32.2364 417.191 24.5764 429.771 27.6964L469.541 37.5464" stroke="white" stroke-width="2" stroke-miterlimit="10"/>
<path d="M381.342 38.6764C381.342 38.6764 393.242 25.7564 401.442 27.1264C409.642 28.4964 422.122 27.0264 422.122 27.0264" stroke="white" stroke-width="2" stroke-miterlimit="10"/>
<path d="M410.801 96.4864C410.801 96.4864 422.521 84.8464 422.121 77.5764L410.801 96.4864Z" fill="#1E1E1E"/>
<path d="M410.801 96.4864C410.801 96.4864 422.521 84.8464 422.121 77.5764" stroke="white" stroke-width="2" stroke-miterlimit="10"/>
<path d="M437.842 90.6163C437.842 90.6163 424.112 90.4763 414.592 92.2963L437.842 90.6163Z" fill="#1E1E1E"/>
<path d="M437.842 90.6163C437.842 90.6163 424.112 90.4763 414.592 92.2963" stroke="white" stroke-width="2" stroke-miterlimit="10"/>
<path d="M83.488 449L78.256 437.576H80.096L84.368 447.304L88.64 437.576H90.416L85.184 449H83.488ZM100.089 444.84C100.089 445.704 99.8917 446.472 99.497 447.144C99.113 447.805 98.553 448.323 97.817 448.696C97.081 449.069 96.2223 449.256 95.241 449.256C94.2917 449.256 93.4597 449.085 92.745 448.744C92.0303 448.403 91.4757 447.901 91.081 447.24C90.6863 446.579 90.489 445.795 90.489 444.888C90.489 444.024 90.681 443.261 91.065 442.6C91.4597 441.928 92.025 441.405 92.761 441.032C93.497 440.659 94.3557 440.472 95.337 440.472C96.2863 440.472 97.1183 440.643 97.833 440.984C98.5477 441.325 99.1023 441.827 99.497 442.488C99.8917 443.149 100.089 443.933 100.089 444.84ZM98.505 444.872C98.505 443.869 98.2223 443.091 97.657 442.536C97.1023 441.981 96.3183 441.704 95.305 441.704C94.281 441.704 93.4863 441.981 92.921 442.536C92.3557 443.08 92.073 443.853 92.073 444.856C92.073 445.859 92.3503 446.637 92.905 447.192C93.4703 447.747 94.2597 448.024 95.273 448.024C96.297 448.024 97.0917 447.752 97.657 447.208C98.2223 446.653 98.505 445.875 98.505 444.872ZM107.469 448.856C106.829 449.069 106.146 449.176 105.421 449.176C104.514 449.176 103.848 448.957 103.421 448.52C102.994 448.083 102.781 447.389 102.781 446.44V441.912H101.165V440.728H102.781V438.472H104.285V440.728H107.229V441.912H104.285V446.568C104.285 447.485 104.749 447.944 105.677 447.944C106.189 447.944 106.706 447.859 107.229 447.688L107.469 448.856ZM109.125 449V440.728H110.613V442.28C111.018 441.725 111.482 441.304 112.005 441.016C112.538 440.728 113.109 440.584 113.717 440.584C113.951 440.584 114.239 440.611 114.581 440.664L114.405 441.976C114.106 441.923 113.834 441.896 113.589 441.896C113.141 441.896 112.746 441.96 112.405 442.088C112.063 442.216 111.749 442.413 111.461 442.68C110.906 443.192 110.629 443.789 110.629 444.472V449H109.125ZM116.79 445.288C116.811 446.141 117.094 446.819 117.638 447.32C118.193 447.821 118.934 448.072 119.862 448.072C121.409 448.072 122.358 447.608 122.71 446.68H124.15C123.702 448.397 122.251 449.256 119.798 449.256C118.39 449.256 117.286 448.872 116.486 448.104C115.686 447.336 115.286 446.28 115.286 444.936C115.286 444.072 115.467 443.304 115.83 442.632C116.203 441.96 116.737 441.432 117.43 441.048C118.123 440.664 118.929 440.472 119.846 440.472C121.243 440.472 122.331 440.84 123.11 441.576C123.889 442.301 124.278 443.32 124.278 444.632V445.288H116.79ZM122.806 444.152C122.795 443.352 122.534 442.733 122.022 442.296C121.51 441.859 120.779 441.64 119.83 441.64C119.009 441.64 118.326 441.864 117.782 442.312C117.238 442.76 116.918 443.373 116.822 444.152H122.806ZM130.937 452.104V440.728H132.425V442.232C132.788 441.688 133.294 441.261 133.945 440.952C134.596 440.632 135.31 440.472 136.089 440.472C136.91 440.472 137.636 440.648 138.265 441C138.905 441.341 139.401 441.843 139.753 442.504C140.116 443.155 140.297 443.923 140.297 444.808C140.297 445.661 140.121 446.424 139.769 447.096C139.417 447.768 138.91 448.296 138.249 448.68C137.588 449.064 136.814 449.256 135.929 449.256C134.404 449.256 133.241 448.723 132.441 447.656V452.104H130.937ZM132.425 445.096C132.425 445.907 132.702 446.6 133.257 447.176C133.524 447.453 133.849 447.667 134.233 447.816C134.628 447.955 135.054 448.024 135.513 448.024C136.558 448.024 137.353 447.752 137.897 447.208C138.441 446.664 138.713 445.869 138.713 444.824C138.713 443.843 138.441 443.08 137.897 442.536C137.353 441.981 136.596 441.704 135.625 441.704C135.166 441.704 134.729 441.789 134.313 441.96C133.897 442.12 133.54 442.349 133.241 442.648C132.985 442.904 132.782 443.203 132.633 443.544C132.494 443.885 132.425 444.232 132.425 444.584V445.096ZM148.996 449V447.704C148.495 448.227 147.94 448.611 147.332 448.856C146.735 449.091 146.042 449.208 145.252 449.208C144.175 449.208 143.348 448.989 142.772 448.552C142.196 448.115 141.908 447.491 141.908 446.68C141.908 445.795 142.287 445.139 143.044 444.712C143.812 444.275 145.012 444.035 146.644 443.992L148.964 443.928V443.64C148.964 442.957 148.762 442.456 148.356 442.136C147.962 441.805 147.343 441.64 146.5 441.64C145.711 441.64 145.092 441.736 144.644 441.928C144.207 442.12 143.914 442.424 143.764 442.84L142.388 442.664C142.719 441.203 144.111 440.472 146.564 440.472C147.866 440.472 148.831 440.733 149.46 441.256C150.1 441.779 150.42 442.579 150.42 443.656V449H148.996ZM148.964 445L146.66 445.064C145.551 445.096 144.74 445.229 144.228 445.464C143.716 445.699 143.46 446.061 143.46 446.552C143.46 447.021 143.647 447.379 144.02 447.624C144.394 447.869 144.932 447.992 145.636 447.992C146.138 447.992 146.612 447.917 147.06 447.768C147.519 447.608 147.914 447.389 148.244 447.112C148.724 446.717 148.964 446.232 148.964 445.656V445ZM159.304 442.904C159.144 442.477 158.84 442.163 158.392 441.96C157.955 441.747 157.352 441.64 156.584 441.64C155.816 441.64 155.208 441.747 154.76 441.96C154.312 442.173 154.088 442.461 154.088 442.824C154.088 443.187 154.243 443.459 154.552 443.64C154.872 443.821 155.464 443.976 156.328 444.104L157.384 444.264C158.323 444.403 159.037 444.573 159.528 444.776C160.029 444.968 160.381 445.219 160.584 445.528C160.797 445.837 160.904 446.237 160.904 446.728C160.904 448.413 159.539 449.256 156.808 449.256C155.496 449.256 154.477 449.037 153.752 448.6C153.027 448.152 152.584 447.48 152.424 446.584H153.848C154.157 447.576 155.133 448.072 156.776 448.072C157.64 448.072 158.307 447.96 158.776 447.736C159.256 447.512 159.496 447.192 159.496 446.776C159.496 446.413 159.325 446.141 158.984 445.96C158.643 445.779 158.008 445.619 157.08 445.48L156.104 445.336C155.208 445.197 154.515 445.027 154.024 444.824C153.544 444.621 153.203 444.365 153 444.056C152.797 443.736 152.696 443.336 152.696 442.856C152.696 442.109 153.037 441.528 153.72 441.112C154.413 440.685 155.368 440.472 156.584 440.472C157.779 440.472 158.696 440.648 159.336 441C159.987 441.352 160.435 441.928 160.68 442.728L159.304 442.904ZM169.366 442.904C169.206 442.477 168.902 442.163 168.454 441.96C168.017 441.747 167.414 441.64 166.646 441.64C165.878 441.64 165.27 441.747 164.822 441.96C164.374 442.173 164.15 442.461 164.15 442.824C164.15 443.187 164.305 443.459 164.614 443.64C164.934 443.821 165.526 443.976 166.39 444.104L167.446 444.264C168.385 444.403 169.1 444.573 169.59 444.776C170.092 444.968 170.444 445.219 170.646 445.528C170.86 445.837 170.966 446.237 170.966 446.728C170.966 448.413 169.601 449.256 166.87 449.256C165.558 449.256 164.54 449.037 163.814 448.6C163.089 448.152 162.646 447.48 162.486 446.584H163.91C164.22 447.576 165.196 448.072 166.838 448.072C167.702 448.072 168.369 447.96 168.838 447.736C169.318 447.512 169.558 447.192 169.558 446.776C169.558 446.413 169.388 446.141 169.046 445.96C168.705 445.779 168.07 445.619 167.142 445.48L166.166 445.336C165.27 445.197 164.577 445.027 164.086 444.824C163.606 444.621 163.265 444.365 163.062 444.056C162.86 443.736 162.758 443.336 162.758 442.856C162.758 442.109 163.1 441.528 163.782 441.112C164.476 440.685 165.43 440.472 166.646 440.472C167.841 440.472 168.758 440.648 169.398 441C170.049 441.352 170.497 441.928 170.742 442.728L169.366 442.904ZM184.121 449V447.704C183.62 448.227 183.065 448.611 182.457 448.856C181.86 449.091 181.167 449.208 180.377 449.208C179.3 449.208 178.473 448.989 177.897 448.552C177.321 448.115 177.033 447.491 177.033 446.68C177.033 445.795 177.412 445.139 178.169 444.712C178.937 444.275 180.137 444.035 181.769 443.992L184.089 443.928V443.64C184.089 442.957 183.887 442.456 183.481 442.136C183.087 441.805 182.468 441.64 181.625 441.64C180.836 441.64 180.217 441.736 179.769 441.928C179.332 442.12 179.039 442.424 178.889 442.84L177.513 442.664C177.844 441.203 179.236 440.472 181.689 440.472C182.991 440.472 183.956 440.733 184.585 441.256C185.225 441.779 185.545 442.579 185.545 443.656V449H184.121ZM184.089 445L181.785 445.064C180.676 445.096 179.865 445.229 179.353 445.464C178.841 445.699 178.585 446.061 178.585 446.552C178.585 447.021 178.772 447.379 179.145 447.624C179.519 447.869 180.057 447.992 180.761 447.992C181.263 447.992 181.737 447.917 182.185 447.768C182.644 447.608 183.039 447.389 183.369 447.112C183.849 446.717 184.089 446.232 184.089 445.656V445ZM181.305 439.544L178.697 437.256H180.569L182.825 439.544H181.305ZM193.649 445.288C193.671 446.141 193.953 446.819 194.497 447.32C195.052 447.821 195.793 448.072 196.721 448.072C198.268 448.072 199.217 447.608 199.569 446.68H201.009C200.561 448.397 199.111 449.256 196.657 449.256C195.249 449.256 194.145 448.872 193.345 448.104C192.545 447.336 192.145 446.28 192.145 444.936C192.145 444.072 192.327 443.304 192.689 442.632C193.063 441.96 193.596 441.432 194.289 441.048C194.983 440.664 195.788 440.472 196.705 440.472C198.103 440.472 199.191 440.84 199.969 441.576C200.748 442.301 201.137 443.32 201.137 444.632V445.288H193.649ZM199.665 444.152C199.655 443.352 199.393 442.733 198.881 442.296C198.369 441.859 197.639 441.64 196.689 441.64C195.868 441.64 195.185 441.864 194.641 442.312C194.097 442.76 193.777 443.373 193.681 444.152H199.665ZM197.105 439.544H195.585L197.841 437.256H199.713L197.105 439.544ZM208.516 448.856C207.876 449.069 207.193 449.176 206.468 449.176C205.561 449.176 204.894 448.957 204.468 448.52C204.041 448.083 203.828 447.389 203.828 446.44V441.912H202.212V440.728H203.828V438.472H205.332V440.728H208.276V441.912H205.332V446.568C205.332 447.485 205.796 447.944 206.724 447.944C207.236 447.944 207.753 447.859 208.276 447.688L208.516 448.856ZM210.821 445.288C210.842 446.141 211.125 446.819 211.669 447.32C212.224 447.821 212.965 448.072 213.893 448.072C215.44 448.072 216.389 447.608 216.741 446.68H218.181C217.733 448.397 216.282 449.256 213.829 449.256C212.421 449.256 211.317 448.872 210.517 448.104C209.717 447.336 209.317 446.28 209.317 444.936C209.317 444.072 209.498 443.304 209.861 442.632C210.234 441.96 210.768 441.432 211.461 441.048C212.154 440.664 212.96 440.472 213.877 440.472C215.274 440.472 216.362 440.84 217.141 441.576C217.92 442.301 218.309 443.32 218.309 444.632V445.288H210.821ZM216.837 444.152C216.826 443.352 216.565 442.733 216.053 442.296C215.541 441.859 214.81 441.64 213.861 441.64C213.04 441.64 212.357 441.864 211.813 442.312C211.269 442.76 210.949 443.373 210.853 444.152H216.837ZM214.277 439.544H212.757L215.013 437.256H216.885L214.277 439.544ZM231.288 442.904C231.128 442.477 230.824 442.163 230.376 441.96C229.939 441.747 229.336 441.64 228.568 441.64C227.8 441.64 227.192 441.747 226.744 441.96C226.296 442.173 226.072 442.461 226.072 442.824C226.072 443.187 226.227 443.459 226.536 443.64C226.856 443.821 227.448 443.976 228.312 444.104L229.368 444.264C230.307 444.403 231.022 444.573 231.512 444.776C232.014 444.968 232.366 445.219 232.568 445.528C232.782 445.837 232.888 446.237 232.888 446.728C232.888 448.413 231.523 449.256 228.792 449.256C227.48 449.256 226.462 449.037 225.736 448.6C225.011 448.152 224.568 447.48 224.408 446.584H225.832C226.142 447.576 227.118 448.072 228.76 448.072C229.624 448.072 230.291 447.96 230.76 447.736C231.24 447.512 231.48 447.192 231.48 446.776C231.48 446.413 231.31 446.141 230.968 445.96C230.627 445.779 229.992 445.619 229.064 445.48L228.088 445.336C227.192 445.197 226.499 445.027 226.008 444.824C225.528 444.621 225.187 444.365 224.984 444.056C224.782 443.736 224.68 443.336 224.68 442.856C224.68 442.109 225.022 441.528 225.704 441.112C226.398 440.685 227.352 440.472 228.568 440.472C229.763 440.472 230.68 440.648 231.32 441C231.971 441.352 232.419 441.928 232.664 442.728L231.288 442.904ZM243.495 446.184C243.324 447.176 242.876 447.939 242.151 448.472C241.425 448.995 240.46 449.256 239.255 449.256C237.793 449.256 236.647 448.872 235.815 448.104C234.993 447.325 234.583 446.253 234.583 444.888C234.583 444.013 234.769 443.245 235.143 442.584C235.527 441.923 236.071 441.405 236.775 441.032C237.489 440.659 238.332 440.472 239.303 440.472C240.401 440.472 241.292 440.707 241.975 441.176C242.668 441.645 243.121 442.328 243.335 443.224L241.847 443.464C241.516 442.291 240.652 441.704 239.255 441.704C238.284 441.704 237.527 441.981 236.983 442.536C236.439 443.091 236.167 443.864 236.167 444.856C236.167 445.88 236.433 446.664 236.967 447.208C237.5 447.752 238.273 448.024 239.287 448.024C240.833 448.024 241.74 447.411 242.007 446.184H243.495ZM252.09 449V447.704C251.589 448.227 251.034 448.611 250.426 448.856C249.829 449.091 249.135 449.208 248.346 449.208C247.269 449.208 246.442 448.989 245.866 448.552C245.29 448.115 245.002 447.491 245.002 446.68C245.002 445.795 245.381 445.139 246.138 444.712C246.906 444.275 248.106 444.035 249.738 443.992L252.058 443.928V443.64C252.058 442.957 251.855 442.456 251.45 442.136C251.055 441.805 250.437 441.64 249.594 441.64C248.805 441.64 248.186 441.736 247.738 441.928C247.301 442.12 247.007 442.424 246.858 442.84L245.482 442.664C245.813 441.203 247.205 440.472 249.658 440.472C250.959 440.472 251.925 440.733 252.554 441.256C253.194 441.779 253.514 442.579 253.514 443.656V449H252.09ZM252.058 445L249.754 445.064C248.645 445.096 247.834 445.229 247.322 445.464C246.81 445.699 246.554 446.061 246.554 446.552C246.554 447.021 246.741 447.379 247.114 447.624C247.487 447.869 248.026 447.992 248.73 447.992C249.231 447.992 249.706 447.917 250.154 447.768C250.613 447.608 251.007 447.389 251.338 447.112C251.818 446.717 252.058 446.232 252.058 445.656V445ZM263.15 449V443.944C263.15 443.176 262.963 442.621 262.59 442.28C262.227 441.928 261.635 441.752 260.814 441.752C260.376 441.752 259.939 441.837 259.502 442.008C259.075 442.168 258.707 442.397 258.398 442.696C258.131 442.941 257.928 443.219 257.79 443.528C257.651 443.827 257.582 444.141 257.582 444.472V449H256.078V440.728H257.566V442.264C258.472 441.069 259.683 440.472 261.198 440.472C262.339 440.472 263.198 440.744 263.774 441.288C264.36 441.821 264.654 442.616 264.654 443.672V449H263.15ZM274.29 449V443.944C274.29 443.176 274.104 442.621 273.73 442.28C273.368 441.928 272.776 441.752 271.954 441.752C271.517 441.752 271.08 441.837 270.642 442.008C270.216 442.168 269.848 442.397 269.538 442.696C269.272 442.941 269.069 443.219 268.93 443.528C268.792 443.827 268.722 444.141 268.722 444.472V449H267.218V440.728H268.706V442.264C269.613 441.069 270.824 440.472 272.338 440.472C273.48 440.472 274.338 440.744 274.914 441.288C275.501 441.821 275.794 442.616 275.794 443.672V449H274.29ZM279.415 445.288C279.436 446.141 279.719 446.819 280.263 447.32C280.818 447.821 281.559 448.072 282.487 448.072C284.034 448.072 284.983 447.608 285.335 446.68H286.775C286.327 448.397 284.876 449.256 282.423 449.256C281.015 449.256 279.911 448.872 279.111 448.104C278.311 447.336 277.911 446.28 277.911 444.936C277.911 444.072 278.092 443.304 278.455 442.632C278.828 441.96 279.362 441.432 280.055 441.048C280.748 440.664 281.554 440.472 282.471 440.472C283.868 440.472 284.956 440.84 285.735 441.576C286.514 442.301 286.903 443.32 286.903 444.632V445.288H279.415ZM285.431 444.152C285.42 443.352 285.159 442.733 284.647 442.296C284.135 441.859 283.404 441.64 282.455 441.64C281.634 441.64 280.951 441.864 280.407 442.312C279.863 442.76 279.543 443.373 279.447 444.152H285.431ZM282.871 439.544H281.351L283.607 437.256H285.479L282.871 439.544ZM300.09 449V447.704C299.589 448.227 299.034 448.611 298.426 448.856C297.829 449.091 297.135 449.208 296.346 449.208C295.269 449.208 294.442 448.989 293.866 448.552C293.29 448.115 293.002 447.491 293.002 446.68C293.002 445.795 293.381 445.139 294.138 444.712C294.906 444.275 296.106 444.035 297.738 443.992L300.058 443.928V443.64C300.058 442.957 299.855 442.456 299.45 442.136C299.055 441.805 298.437 441.64 297.594 441.64C296.805 441.64 296.186 441.736 295.738 441.928C295.301 442.12 295.007 442.424 294.858 442.84L293.482 442.664C293.813 441.203 295.205 440.472 297.658 440.472C298.959 440.472 299.925 440.733 300.554 441.256C301.194 441.779 301.514 442.579 301.514 443.656V449H300.09ZM300.058 445L297.754 445.064C296.645 445.096 295.834 445.229 295.322 445.464C294.81 445.699 294.554 446.061 294.554 446.552C294.554 447.021 294.741 447.379 295.114 447.624C295.487 447.869 296.026 447.992 296.73 447.992C297.231 447.992 297.706 447.917 298.154 447.768C298.613 447.608 299.007 447.389 299.338 447.112C299.818 446.717 300.058 446.232 300.058 445.656V445ZM306.675 449L302.691 440.728H304.451L307.507 447.448L310.579 440.728H312.259L308.275 449H306.675ZM314.556 445.288C314.577 446.141 314.86 446.819 315.404 447.32C315.958 447.821 316.7 448.072 317.628 448.072C319.174 448.072 320.124 447.608 320.476 446.68H321.916C321.468 448.397 320.017 449.256 317.564 449.256C316.156 449.256 315.052 448.872 314.252 448.104C313.452 447.336 313.052 446.28 313.052 444.936C313.052 444.072 313.233 443.304 313.596 442.632C313.969 441.96 314.502 441.432 315.196 441.048C315.889 440.664 316.694 440.472 317.612 440.472C319.009 440.472 320.097 440.84 320.876 441.576C321.654 442.301 322.044 443.32 322.044 444.632V445.288H314.556ZM320.572 444.152C320.561 443.352 320.3 442.733 319.788 442.296C319.276 441.859 318.545 441.64 317.596 441.64C316.774 441.64 316.092 441.864 315.548 442.312C315.004 442.76 314.684 443.373 314.588 444.152H320.572ZM332.682 446.184C332.512 447.176 332.064 447.939 331.338 448.472C330.613 448.995 329.648 449.256 328.442 449.256C326.981 449.256 325.834 448.872 325.002 448.104C324.181 447.325 323.77 446.253 323.77 444.888C323.77 444.013 323.957 443.245 324.33 442.584C324.714 441.923 325.258 441.405 325.962 441.032C326.677 440.659 327.52 440.472 328.49 440.472C329.589 440.472 330.48 440.707 331.162 441.176C331.856 441.645 332.309 442.328 332.522 443.224L331.034 443.464C330.704 442.291 329.84 441.704 328.442 441.704C327.472 441.704 326.714 441.981 326.17 442.536C325.626 443.091 325.354 443.864 325.354 444.856C325.354 445.88 325.621 446.664 326.154 447.208C326.688 447.752 327.461 448.024 328.474 448.024C330.021 448.024 330.928 447.411 331.194 446.184H332.682ZM344.789 443.16C344.693 442.861 344.506 442.643 344.229 442.504C343.952 442.365 343.568 442.296 343.077 442.296C342.597 442.296 342.224 442.355 341.957 442.472C341.69 442.579 341.557 442.739 341.557 442.952C341.557 443.144 341.658 443.293 341.861 443.4C342.074 443.507 342.432 443.592 342.933 443.656L344.085 443.816C345.088 443.955 345.856 444.131 346.389 444.344C346.933 444.557 347.317 444.835 347.541 445.176C347.765 445.507 347.877 445.944 347.877 446.488C347.877 447.395 347.488 448.083 346.709 448.552C345.93 449.021 344.789 449.256 343.285 449.256C341.717 449.256 340.528 449.011 339.717 448.52C338.906 448.029 338.448 447.293 338.341 446.312H341.301C341.493 446.931 342.138 447.24 343.237 447.24C343.749 447.24 344.138 447.187 344.405 447.08C344.672 446.963 344.805 446.792 344.805 446.568C344.805 446.376 344.704 446.232 344.501 446.136C344.298 446.04 343.941 445.96 343.429 445.896L342.373 445.752C341.434 445.624 340.688 445.448 340.133 445.224C339.589 444.989 339.194 444.696 338.949 444.344C338.704 443.981 338.581 443.533 338.581 443C338.581 442.157 338.976 441.507 339.765 441.048C340.554 440.579 341.658 440.344 343.077 440.344C344.453 440.344 345.514 440.547 346.261 440.952C347.008 441.357 347.488 442.003 347.701 442.888L344.789 443.16ZM355.911 449V447.832C355.015 448.781 353.938 449.256 352.679 449.256C351.645 449.256 350.834 448.973 350.247 448.408C349.671 447.843 349.383 447.059 349.383 446.056V440.6H352.551V445.464C352.551 445.944 352.663 446.296 352.887 446.52C353.111 446.744 353.453 446.856 353.911 446.856C354.413 446.856 354.877 446.669 355.303 446.296C355.474 446.147 355.607 445.971 355.703 445.768C355.799 445.555 355.847 445.341 355.847 445.128V440.6H359.015V449H355.911ZM370.637 445.752C370.477 446.883 369.981 447.752 369.149 448.36C368.317 448.957 367.197 449.256 365.789 449.256C364.776 449.256 363.896 449.085 363.149 448.744C362.413 448.403 361.842 447.901 361.437 447.24C361.032 446.568 360.829 445.773 360.829 444.856C360.829 443.459 361.272 442.36 362.157 441.56C363.053 440.749 364.274 440.344 365.821 440.344C366.685 440.344 367.442 440.467 368.093 440.712C368.744 440.947 369.272 441.304 369.677 441.784C370.093 442.264 370.365 442.84 370.493 443.512L367.405 443.8C367.224 443.053 366.706 442.68 365.853 442.68C365.277 442.68 364.829 442.867 364.509 443.24C364.189 443.613 364.029 444.136 364.029 444.808C364.029 445.491 364.189 446.013 364.509 446.376C364.829 446.739 365.282 446.92 365.869 446.92C366.84 446.92 367.389 446.531 367.517 445.752H370.637ZM381.7 445.752C381.54 446.883 381.044 447.752 380.212 448.36C379.38 448.957 378.26 449.256 376.852 449.256C375.838 449.256 374.958 449.085 374.212 448.744C373.476 448.403 372.905 447.901 372.5 447.24C372.094 446.568 371.892 445.773 371.892 444.856C371.892 443.459 372.334 442.36 373.22 441.56C374.116 440.749 375.337 440.344 376.884 440.344C377.748 440.344 378.505 440.467 379.156 440.712C379.806 440.947 380.334 441.304 380.74 441.784C381.156 442.264 381.428 442.84 381.556 443.512L378.468 443.8C378.286 443.053 377.769 442.68 376.916 442.68C376.34 442.68 375.892 442.867 375.572 443.24C375.252 443.613 375.092 444.136 375.092 444.808C375.092 445.491 375.252 446.013 375.572 446.376C375.892 446.739 376.345 446.92 376.932 446.92C377.902 446.92 378.452 446.531 378.58 445.752H381.7ZM385.946 445.544C385.999 446.067 386.202 446.467 386.554 446.744C386.917 447.011 387.413 447.144 388.042 447.144C389.055 447.144 389.674 446.861 389.898 446.296H392.826C392.389 448.269 390.767 449.256 387.962 449.256C386.373 449.256 385.141 448.877 384.266 448.12C383.391 447.363 382.954 446.291 382.954 444.904C382.954 444.019 383.157 443.235 383.562 442.552C383.967 441.859 384.554 441.32 385.322 440.936C386.09 440.541 386.997 440.344 388.042 440.344C389.589 440.344 390.789 440.728 391.642 441.496C392.495 442.253 392.922 443.331 392.922 444.728V445.544H385.946ZM389.978 443.864C389.925 442.904 389.263 442.424 387.994 442.424C387.471 442.424 387.023 442.557 386.65 442.824C386.287 443.091 386.074 443.437 386.01 443.864H389.978ZM387.194 439.64L384.09 436.936H387.578L390.01 439.64H387.194ZM400.617 443.16C400.521 442.861 400.334 442.643 400.057 442.504C399.78 442.365 399.396 442.296 398.905 442.296C398.425 442.296 398.052 442.355 397.785 442.472C397.518 442.579 397.385 442.739 397.385 442.952C397.385 443.144 397.486 443.293 397.689 443.4C397.902 443.507 398.26 443.592 398.761 443.656L399.913 443.816C400.916 443.955 401.684 444.131 402.217 444.344C402.761 444.557 403.145 444.835 403.369 445.176C403.593 445.507 403.705 445.944 403.705 446.488C403.705 447.395 403.316 448.083 402.537 448.552C401.758 449.021 400.617 449.256 399.113 449.256C397.545 449.256 396.356 449.011 395.545 448.52C394.734 448.029 394.276 447.293 394.169 446.312H397.129C397.321 446.931 397.966 447.24 399.065 447.24C399.577 447.24 399.966 447.187 400.233 447.08C400.5 446.963 400.633 446.792 400.633 446.568C400.633 446.376 400.532 446.232 400.329 446.136C400.126 446.04 399.769 445.96 399.257 445.896L398.201 445.752C397.262 445.624 396.516 445.448 395.961 445.224C395.417 444.989 395.022 444.696 394.777 444.344C394.532 443.981 394.409 443.533 394.409 443C394.409 442.157 394.804 441.507 395.593 441.048C396.382 440.579 397.486 440.344 398.905 440.344C400.281 440.344 401.342 440.547 402.089 440.952C402.836 441.357 403.316 442.003 403.529 442.888L400.617 443.16ZM409.891 445.336L409.603 437.576H413.059L412.771 445.336H409.891ZM409.843 449V446.2H412.835V449H409.843Z" fill="white"/>
<circle cx="249" cy="385" r="25.5" stroke="#00D021" stroke-width="3"/>
<path d="M246.333 390.867L241 385.533L242.867 383.667L246.333 387.133L255.133 378.333L257 380.2L246.333 390.867Z" fill="#7DFF00"/>
</svg>
