<svg fill="none" height="772" viewBox="0 0 498 772" width="498" xmlns="http://www.w3.org/2000/svg"><path d="m86.688 760.016c-.1813-.448-.4587-.768-.832-.96-.3733-.203-.8853-.304-1.536-.304-.736 0-1.296.08-1.68.24-.3733.16-.56.395-.56.704 0 .288.1013.501.304.64s.5973.256 1.184.352l2.464.4c1.4827.235 2.5493.635 3.2 1.2.6613.555.992 1.333.992 2.336 0 1.205-.4853 2.117-1.456 2.736s-2.4053.928-4.304.928-3.3493-.336-4.352-1.008c-.992-.672-1.552-1.685-1.68-3.04h3.36c.1067.544.3733.944.8 1.2s1.0507.384 1.872.384c.768 0 1.36-.096 1.776-.288s.624-.464.624-.816c0-.267-.1173-.475-.352-.624-.224-.149-.6187-.267-1.184-.352l-2.032-.304c-1.568-.235-2.7147-.645-3.44-1.232s-1.088-1.392-1.088-2.416c0-1.099.5013-1.957 1.504-2.576s2.3893-.928 4.16-.928c1.6427 0 2.912.283 3.808.848.9067.565 1.4613 1.419 1.664 2.56zm14.605 4.736c-.16 1.131-.656 2-1.4877 2.608-.832.597-1.952.896-3.36.896-1.0134 0-1.8934-.171-2.64-.512-.736-.341-1.3067-.843-1.712-1.504-.4054-.672-.608-1.467-.608-2.384 0-1.397.4426-2.496 1.328-3.296.896-.811 2.1173-1.216 3.664-1.216.864 0 1.6213.123 2.272.368.6506.235 1.1786.592 1.5837 1.072.416.48.688 1.056.816 1.728l-3.0877.288c-.1814-.747-.6987-1.12-1.552-1.12-.576 0-1.024.187-1.344.56s-.48.896-.48 1.568c0 .683.16 1.205.48 1.568s.7733.544 1.36.544c.9706 0 1.52-.389 1.648-1.168zm7.959 3.248v-1.04c-.448.448-.939.773-1.472.976-.523.203-1.131.304-1.824.304-1.131 0-2-.219-2.608-.656-.608-.448-.912-1.088-.912-1.92 0-.907.389-1.589 1.168-2.048.789-.459 2.016-.709 3.68-.752l1.856-.048v-.368c0-.341-.134-.603-.4-.784-.267-.192-.646-.288-1.136-.288-.491 0-.896.069-1.216.208-.31.139-.502.331-.576.576l-2.832-.208c.202-.885.688-1.541 1.456-1.968.778-.427 1.856-.64 3.232-.64 2.933 0 4.4 1.136 4.4 3.408v5.248zm-.112-3.568-1.664.048c-.747.021-1.28.107-1.6.256-.32.139-.48.373-.48.704 0 .512.49.768 1.472.768.362 0 .693-.043.992-.128.309-.085.56-.208.752-.368.352-.299.528-.64.528-1.024zm11.65 3.568v-4.848c0-.491-.118-.848-.352-1.072-.224-.224-.582-.336-1.072-.336-.267 0-.528.053-.784.16-.256.096-.48.235-.672.416-.363.331-.544.715-.544 1.152v4.528h-3.168v-8.4h3.104v1.168c.885-.949 1.984-1.424 3.296-1.424 1.056 0 1.877.283 2.464.848.597.555.896 1.339.896 2.352v5.456zm11.89 0v-4.848c0-.491-.117-.848-.352-1.072-.224-.224-.581-.336-1.072-.336-.266 0-.528.053-.784.16-.256.096-.48.235-.672.416-.362.331-.544.715-.544 1.152v4.528h-3.168v-8.4h3.104v1.168c.886-.949 1.984-1.424 3.296-1.424 1.056 0 1.878.283 2.464.848.598.555.896 1.339.896 2.352v5.456zm7.891-3.456c.053.523.256.923.608 1.2.363.267.859.4 1.488.4 1.013 0 1.632-.283 1.856-.848h2.928c-.437 1.973-2.059 2.96-4.864 2.96-1.589 0-2.821-.379-3.696-1.136s-1.312-1.829-1.312-3.216c0-.885.203-1.669.608-2.352.405-.693.992-1.232 1.76-1.616.768-.395 1.675-.592 2.72-.592 1.547 0 2.747.384 3.6 1.152.853.757 1.28 1.835 1.28 3.232v.816zm4.032-1.68c-.053-.96-.715-1.44-1.984-1.44-.523 0-.971.133-1.344.4-.363.267-.576.613-.64 1.04zm3.923 5.136v-1.84l4.72-4.32h-4.608v-2.24h8.704v1.84l-4.72 4.32h5.008l-.272 2.24zm17.656 0-3.664-8.4h3.328l2.064 5.664 2.096-5.664h3.216l-3.664 8.4zm17.766-4.224c0 1.387-.47 2.48-1.408 3.28-.939.8-2.224 1.2-3.856 1.2s-2.896-.384-3.792-1.152c-.896-.779-1.344-1.867-1.344-3.264s.469-2.496 1.408-3.296c.938-.8 2.224-1.2 3.856-1.2s2.896.389 3.792 1.168c.896.768 1.344 1.856 1.344 3.264zm-3.2.016c0-.683-.171-1.205-.512-1.568-.342-.363-.838-.544-1.488-.544-.64 0-1.136.181-1.488.544-.342.363-.512.891-.512 1.584 0 .683.17 1.205.512 1.568.341.363.837.544 1.488.544.64 0 1.13-.181 1.472-.544.352-.363.528-.891.528-1.584zm11.72 3.968c-.811.267-1.68.4-2.608.4-1.195 0-2.064-.251-2.608-.752-.533-.501-.8-1.317-.8-2.448v-3.056h-1.6v-2.304h1.6v-2.208h3.168v2.208h2.496v2.304h-2.496v2.832c0 .373.091.651.272.832.192.171.496.256.912.256.352 0 .779-.075 1.28-.224zm1.433.24v-8.4h3.104v1.184c.779-.885 1.76-1.328 2.944-1.328.331 0 .661.032.992.096l-.352 2.448c-.363-.064-.709-.096-1.04-.096-.779 0-1.397.181-1.856.544-.203.16-.357.347-.464.56s-.16.432-.16.656v4.336zm10.608-3.456c.053.523.256.923.608 1.2.362.267.858.4 1.488.4 1.013 0 1.632-.283 1.856-.848h2.928c-.438 1.973-2.059 2.96-4.864 2.96-1.59 0-2.822-.379-3.696-1.136-.875-.757-1.312-1.829-1.312-3.216 0-.885.202-1.669.608-2.352.405-.693.992-1.232 1.76-1.616.767-.395 1.674-.592 2.72-.592 1.546 0 2.746.384 3.6 1.152.853.757 1.28 1.835 1.28 3.232v.816zm4.032-1.68c-.054-.96-.715-1.44-1.984-1.44-.523 0-.971.133-1.344.4-.363.267-.576.613-.64 1.04zm9.11 8.24v-11.504h3.104v1.136c.757-.928 1.84-1.392 3.248-1.392.768 0 1.456.176 2.064.528.608.341 1.088.843 1.44 1.504s.528 1.429.528 2.304-.176 1.659-.528 2.352c-.341.693-.843 1.237-1.504 1.632-.651.395-1.419.592-2.304.592-1.248 0-2.208-.395-2.88-1.184v4.032zm3.152-7.168c0 .597.181 1.077.544 1.44s.853.544 1.472.544c.651 0 1.147-.181 1.488-.544.352-.363.528-.896.528-1.6 0-.672-.171-1.189-.512-1.552s-.827-.544-1.456-.544c-.608 0-1.115.192-1.52.576-.363.352-.544.8-.544 1.344zm15.339 4.064v-1.04c-.448.448-.938.773-1.472.976-.522.203-1.13.304-1.824.304-1.13 0-2-.219-2.608-.656-.608-.448-.912-1.088-.912-1.92 0-.907.39-1.589 1.168-2.048.79-.459 2.016-.709 3.68-.752l1.856-.048v-.368c0-.341-.133-.603-.4-.784-.266-.192-.645-.288-1.136-.288-.49 0-.896.069-1.216.208-.309.139-.501.331-.576.576l-2.832-.208c.203-.885.688-1.541 1.456-1.968.779-.427 1.856-.64 3.232-.64 2.934 0 4.4 1.136 4.4 3.408v5.248zm-.112-3.568-1.664.048c-.746.021-1.28.107-1.6.256-.32.139-.48.373-.48.704 0 .512.491.768 1.472.768.363 0 .694-.043.992-.128.31-.085.56-.208.752-.368.352-.299.528-.64.528-1.024zm10.946-2.272c-.096-.299-.282-.517-.56-.656-.277-.139-.661-.208-1.152-.208-.48 0-.853.059-1.12.176-.266.107-.4.267-.4.48 0 .192.102.341.304.448.214.107.571.192 1.072.256l1.152.16c1.003.139 1.771.315 2.304.528.544.213.928.491 1.152.832.224.331.336.768.336 1.312 0 .907-.389 1.595-1.168 2.064-.778.469-1.92.704-3.424.704-1.568 0-2.757-.245-3.568-.736-.81-.491-1.269-1.227-1.376-2.208h2.96c.192.619.838.928 1.936.928.512 0 .902-.053 1.168-.16.267-.117.4-.288.4-.512 0-.192-.101-.336-.304-.432-.202-.096-.56-.176-1.072-.24l-1.056-.144c-.938-.128-1.685-.304-2.24-.528-.544-.235-.938-.528-1.184-.88-.245-.363-.368-.811-.368-1.344 0-.843.395-1.493 1.184-1.952.79-.469 1.894-.704 3.312-.704 1.376 0 2.438.203 3.184.608.747.405 1.227 1.051 1.44 1.936zm10.563 0c-.096-.299-.283-.517-.56-.656s-.661-.208-1.152-.208c-.48 0-.853.059-1.12.176-.267.107-.4.267-.4.48 0 .192.101.341.304.448.213.107.571.192 1.072.256l1.152.16c1.003.139 1.771.315 2.304.528.544.213.928.491 1.152.832.224.331.336.768.336 1.312 0 .907-.389 1.595-1.168 2.064s-1.92.704-3.424.704c-1.568 0-2.757-.245-3.568-.736s-1.269-1.227-1.376-2.208h2.96c.192.619.837.928 1.936.928.512 0 .901-.053 1.168-.16.267-.117.4-.288.4-.512 0-.192-.101-.336-.304-.432s-.56-.176-1.072-.24l-1.056-.144c-.939-.128-1.685-.304-2.24-.528-.544-.235-.939-.528-1.184-.88-.245-.363-.368-.811-.368-1.344 0-.843.395-1.493 1.184-1.952.789-.469 1.893-.704 3.312-.704 1.376 0 2.437.203 3.184.608s1.227 1.051 1.44 1.936zm9.367 8.944v-11.376h1.488v1.504c.362-.544.869-.971 1.52-1.28.65-.32 1.365-.48 2.144-.48.821 0 1.546.176 2.176.528.64.341 1.136.843 1.488 1.504.362.651.544 1.419.544 2.304 0 .853-.176 1.616-.528 2.288s-.859 1.2-1.52 1.584c-.662.384-1.435.576-2.32.576-1.526 0-2.688-.533-3.488-1.6v4.448zm1.488-7.008c0 .811.277 1.504.832 2.08.266.277.592.491.976.64.394.139.821.208 1.28.208 1.045 0 1.84-.272 2.384-.816s.816-1.339.816-2.384c0-.981-.272-1.744-.816-2.288-.544-.555-1.302-.832-2.272-.832-.459 0-.896.085-1.312.256-.416.16-.774.389-1.072.688-.256.256-.459.555-.608.896-.139.341-.208.688-.208 1.04zm19.195-.256c0 .864-.197 1.632-.592 2.304-.384.661-.944 1.179-1.68 1.552s-1.595.56-2.576.56c-.949 0-1.781-.171-2.496-.512s-1.269-.843-1.664-1.504-.592-1.445-.592-2.352c0-.864.192-1.627.576-2.288.395-.672.96-1.195 1.696-1.568s1.595-.56 2.576-.56c.949 0 1.781.171 2.496.512s1.269.843 1.664 1.504.592 1.445.592 2.352zm-1.584.032c0-1.003-.283-1.781-.848-2.336-.555-.555-1.339-.832-2.352-.832-1.024 0-1.819.277-2.384.832-.565.544-.848 1.317-.848 2.32s.277 1.781.832 2.336c.565.555 1.355.832 2.368.832 1.024 0 1.819-.272 2.384-.816.565-.555.848-1.333.848-2.336zm10.608 4.128v-1.536c-.469.608-1.003 1.061-1.6 1.36-.587.288-1.253.432-2 .432-1.067 0-1.888-.267-2.464-.8-.565-.544-.848-1.323-.848-2.336v-5.392h1.504v5.12c0 .725.176 1.264.528 1.616.363.341.917.512 1.664.512.885 0 1.68-.309 2.384-.928.267-.245.469-.517.608-.816.139-.309.208-.629.208-.96v-4.544h1.504v8.272zm4.105 0v-8.272h1.488v1.552c.406-.555.87-.976 1.392-1.264.534-.288 1.104-.432 1.712-.432.235 0 .523.027.864.08l-.176 1.312c-.298-.053-.57-.08-.816-.08-.448 0-.842.064-1.184.192-.341.128-.656.325-.944.592-.554.512-.832 1.109-.832 1.792v4.528zm20.121-2.816c-.171.992-.619 1.755-1.344 2.288-.726.523-1.691.784-2.896.784-1.462 0-2.608-.384-3.44-1.152-.822-.779-1.232-1.851-1.232-3.216 0-.875.186-1.643.56-2.304.384-.661.928-1.179 1.632-1.552.714-.373 1.557-.56 2.528-.56 1.098 0 1.989.235 2.672.704.693.469 1.146 1.152 1.36 2.048l-1.488.24c-.331-1.173-1.195-1.76-2.592-1.76-.971 0-1.728.277-2.272.832s-.816 1.328-.816 2.32c0 1.024.266 1.808.8 2.352.533.544 1.306.816 2.32.816 1.546 0 2.453-.613 2.72-1.84zm11.219-1.344c0 .864-.198 1.632-.592 2.304-.384.661-.944 1.179-1.68 1.552s-1.595.56-2.576.56c-.95 0-1.782-.171-2.496-.512-.715-.341-1.27-.843-1.664-1.504-.395-.661-.592-1.445-.592-2.352 0-.864.192-1.627.576-2.288.394-.672.96-1.195 1.696-1.568s1.594-.56 2.576-.56c.949 0 1.781.171 2.496.512.714.341 1.269.843 1.664 1.504.394.661.592 1.445.592 2.352zm-1.584.032c0-1.003-.283-1.781-.848-2.336-.555-.555-1.339-.832-2.352-.832-1.024 0-1.819.277-2.384.832-.566.544-.848 1.317-.848 2.32s.277 1.781.832 2.336c.565.555 1.354.832 2.368.832 1.024 0 1.818-.272 2.384-.816.565-.555.848-1.333.848-2.336zm10.832 4.128v-5.056c0-.768-.187-1.323-.56-1.664-.363-.352-.955-.528-1.776-.528-.437 0-.875.085-1.312.256-.427.16-.795.389-1.104.688-.267.245-.469.523-.608.832-.139.299-.208.613-.208.944v4.528h-1.504v-8.272h1.488v1.536c.907-1.195 2.117-1.792 3.632-1.792 1.141 0 2 .272 2.576.816.587.533.88 1.328.88 2.384v5.328zm9.272-.144c-.64.213-1.322.32-2.048.32-.906 0-1.573-.219-2-.656-.426-.437-.64-1.131-.64-2.08v-4.528h-1.616v-1.184h1.616v-2.256h1.504v2.256h2.944v1.184h-2.944v4.656c0 .917.464 1.376 1.392 1.376.512 0 1.03-.085 1.552-.256zm1.656.144v-8.272h1.504v8.272zm-.048-9.792v-1.632h1.6v1.632zm11.245 9.792v-5.056c0-.768-.187-1.323-.56-1.664-.363-.352-.955-.528-1.776-.528-.437 0-.875.085-1.312.256-.427.16-.795.389-1.104.688-.267.245-.469.523-.608.832-.139.299-.208.613-.208.944v4.528h-1.504v-8.272h1.488v1.536c.907-1.195 2.117-1.792 3.632-1.792 1.141 0 2 .272 2.576.816.587.533.88 1.328.88 2.384v5.328zm10.917 0v-1.536c-.47.608-1.003 1.061-1.6 1.36-.587.288-1.254.432-2 .432-1.067 0-1.888-.267-2.464-.8-.566-.544-.848-1.323-.848-2.336v-5.392h1.504v5.12c0 .725.176 1.264.528 1.616.362.341.917.512 1.664.512.885 0 1.68-.309 2.384-.928.266-.245.469-.517.608-.816.138-.309.208-.629.208-.96v-4.544h1.504v8.272zm5.161-3.712c.021.853.304 1.531.848 2.032.554.501 1.296.752 2.224.752 1.546 0 2.496-.464 2.848-1.392h1.44c-.448 1.717-1.899 2.576-4.352 2.576-1.408 0-2.512-.384-3.312-1.152s-1.2-1.824-1.2-3.168c0-.864.181-1.632.544-2.304.373-.672.906-1.2 1.6-1.584.693-.384 1.498-.576 2.416-.576 1.397 0 2.485.368 3.264 1.104.778.725 1.168 1.744 1.168 3.056v.656zm6.016-1.136c-.011-.8-.272-1.419-.784-1.856s-1.243-.656-2.192-.656c-.822 0-1.504.224-2.048.672s-.864 1.061-.96 1.84zm3.646 4.848v-8.272h1.488v1.552c.406-.555.87-.976 1.392-1.264.534-.288 1.104-.432 1.712-.432.235 0 .523.027.864.08l-.176 1.312c-.298-.053-.57-.08-.816-.08-.448 0-.842.064-1.184.192-.341.128-.656.325-.944.592-.554.512-.832 1.109-.832 1.792v4.528zm6.093 0v-1.904h1.696v1.904zm4.25 0v-1.904h1.696v1.904zm4.25 0v-1.904h1.696v1.904z" fill="#fff"/><path d="m484.246 477.49-59.17 162.57c-1.13 3.11-6.26 4.11-11.45 2.22l-404.06027-147.07c-5.19-1.89-8.48-5.94-7.34-9.06l59.16997-162.57c1.13-3.11 6.26-4.11 11.45-2.22l404.0703 147.07c5.19 1.89 8.48 5.94 7.34 9.06z" fill="#1d1d1b"/><g stroke="#fff" stroke-miterlimit="10" stroke-width="2"><path d="m484.246 477.49-59.17 162.57c-1.13 3.11-6.26 4.11-11.45 2.22l-404.06027-147.07c-5.19-1.89-8.48-5.94-7.34-9.06l59.16997-162.57c1.13-3.11 6.26-4.11 11.45-2.22l404.0703 147.07c5.19 1.89 8.48 5.94 7.34 9.06z"/><path d="m303.575 567.88c31.53-4.01 55.73-18.17 63.97-40.82 8.24-22.64-1.19-49.05-22.77-72.39"/><path d="m141.685 508.96c-21.58-23.34-31.01-49.74-22.77-72.39 8.24-22.64 32.44-36.81 63.97-40.82"/><path d="m288.635 546.57c23.72-3.02 41.93-13.68 48.13-30.72s-.89-36.9-17.12-54.47"/><path d="m166.835 502.24c-16.23-17.56-23.33-37.43-17.12-54.47s24.4-27.7 48.13-30.72"/><path d="m274.505 526.41c16.33-2.08 28.86-9.42 33.13-21.15s-.62-25.4-11.79-37.5"/><path d="m190.625 495.88c-11.17-12.09-16.05-25.77-11.79-37.5s16.8-19.06 33.13-21.15"/></g><path d="m387.802 92.7163-32.3 88.7397c-1.13 3.11-6.26 4.11-11.45 2.22l-224.49-81.71c-5.19-1.89-8.48-5.9397-7.34-9.0597l32.3-88.73003c1.13-3.11 6.26-4.1100008 11.45-2.22l224.49 81.71003c5.19 1.89 8.48 5.94 7.34 9.06z" fill="#000"/><path d="m387.802 92.7163-32.3 88.7397c-1.13 3.11-6.26 4.11-11.45 2.22l-224.49-81.71c-5.19-1.89-8.48-5.9397-7.34-9.0597l32.3-88.73003c1.13-3.11 6.26-4.1100008 11.45-2.22l224.49 81.71003c5.19 1.89 8.48 5.94 7.34 9.06z" stroke="#fff" stroke-miterlimit="10" stroke-width="2"/><path d="m402.832 179.186s-11.61-2.29-29.63-9.69c-18.02-7.41-25.09-12.81-35.32-22.21-7.11-6.54-12.38-14.59-7.86-22.39 4.56-7.85 29.04-15.93 56.7-7.01 25.57 8.24 33.03 9.93 40.88 10.23s48.42 5 66.52 23.78c6.94 7.21-4.56 36.03-17.64 44.91-15.62 10.6-73.66-17.61-73.66-17.61z" fill="#000" stroke="#fff" stroke-miterlimit="10" stroke-width="2"/><path d="m381.631 118.556c-11.15-6.6-43.99-5.95-48.6 5.28s25.39 30.86 32.14 27.72c14.16-6.59 20.65-30.52 16.46-33z" fill="#000" stroke="#fff" stroke-miterlimit="10" stroke-width="2"/><path d="m255.161 151.556s-5.68 12.88 4.55 22.35 35.6-4.55 35.6-4.55" fill="#1e1e1e"/><path d="m255.161 151.556s-5.68 12.88 4.55 22.35 35.6-4.55 35.6-4.55" stroke="#fff" stroke-miterlimit="10" stroke-width="2"/><path d="m341.791 68.9764s17.2-23.86 39.55-30.3 35.85-14.1 48.43-10.98l39.77 9.85" fill="#1e1e1e"/><path d="m341.791 68.9764s17.2-23.86 39.55-30.3 35.85-14.1 48.43-10.98l39.77 9.85" stroke="#fff" stroke-miterlimit="10" stroke-width="2"/><path d="m381.342 38.6764s11.9-12.92 20.1-11.55 20.68-.1 20.68-.1" stroke="#fff" stroke-miterlimit="10" stroke-width="2"/><path d="m410.801 96.4864s11.72-11.64 11.32-18.91z" fill="#1e1e1e"/><path d="m410.801 96.4864s11.72-11.64 11.32-18.91" stroke="#fff" stroke-miterlimit="10" stroke-width="2"/><path d="m437.842 90.6163s-13.73-.14-23.25 1.68z" fill="#1e1e1e"/><path d="m437.842 90.6163s-13.73-.14-23.25 1.68" stroke="#fff" stroke-miterlimit="10" stroke-width="2"/><path d="m247.939 325.061c.586.585 1.536.585 2.122 0l9.546-9.546c.585-.586.585-1.536 0-2.122-.586-.585-1.536-.585-2.122 0l-8.485 8.486-8.485-8.486c-.586-.585-1.536-.585-2.122 0-.585.586-.585 1.536 0 2.122zm-.439-78.061v77h3v-77z" fill="#fff"/></svg>