<svg width="1620" height="806" viewBox="0 0 1620 806" fill="none" xmlns="http://www.w3.org/2000/svg">
<path d="M693 60H801C855.676 60 900 104.324 900 159V721C900 725.971 895.971 730 891 730H603C598.029 730 594 725.971 594 721V159C594 104.324 638.324 60 693 60Z" stroke="white" stroke-width="2"/>
<rect x="839" y="385" width="40" height="134" rx="9" stroke="white" stroke-width="2"/>
<rect x="868" y="457" width="16" height="73" rx="8" transform="rotate(90 868 457)" fill="#0E0E0E" stroke="white" stroke-width="2"/>
<rect x="836" y="229" width="52" height="159" rx="9" transform="rotate(90 836 229)" fill="#0E0E0E" stroke="white" stroke-width="2"/>
<path d="M735.39 260V259.109C735.045 259.468 734.664 259.732 734.246 259.901C733.835 260.062 733.359 260.143 732.816 260.143C732.075 260.143 731.507 259.993 731.111 259.692C730.715 259.391 730.517 258.962 730.517 258.405C730.517 257.796 730.777 257.345 731.298 257.052C731.826 256.751 732.651 256.586 733.773 256.557L735.368 256.513V256.315C735.368 255.846 735.229 255.501 734.95 255.281C734.679 255.054 734.253 254.94 733.674 254.94C733.131 254.94 732.706 255.006 732.398 255.138C732.097 255.27 731.896 255.479 731.793 255.765L730.847 255.644C731.074 254.639 732.031 254.137 733.718 254.137C734.613 254.137 735.276 254.317 735.709 254.676C736.149 255.035 736.369 255.585 736.369 256.326V260H735.39ZM735.368 257.25L733.784 257.294C733.021 257.316 732.464 257.408 732.112 257.569C731.76 257.73 731.584 257.98 731.584 258.317C731.584 258.64 731.712 258.885 731.969 259.054C732.226 259.223 732.596 259.307 733.08 259.307C733.425 259.307 733.751 259.256 734.059 259.153C734.374 259.043 734.646 258.893 734.873 258.702C735.203 258.431 735.368 258.097 735.368 257.701V257.25ZM743.95 258.064C743.833 258.746 743.525 259.27 743.026 259.637C742.528 259.996 741.864 260.176 741.035 260.176C740.031 260.176 739.242 259.912 738.67 259.384C738.106 258.849 737.823 258.112 737.823 257.173C737.823 256.572 737.952 256.044 738.208 255.589C738.472 255.134 738.846 254.779 739.33 254.522C739.822 254.265 740.401 254.137 741.068 254.137C741.824 254.137 742.436 254.298 742.905 254.621C743.382 254.944 743.694 255.413 743.84 256.029L742.817 256.194C742.59 255.387 741.996 254.984 741.035 254.984C740.368 254.984 739.847 255.175 739.473 255.556C739.099 255.937 738.912 256.469 738.912 257.151C738.912 257.855 739.096 258.394 739.462 258.768C739.829 259.142 740.361 259.329 741.057 259.329C742.121 259.329 742.744 258.907 742.927 258.064H743.95ZM751.191 258.064C751.073 258.746 750.765 259.27 750.267 259.637C749.768 259.996 749.104 260.176 748.276 260.176C747.271 260.176 746.483 259.912 745.911 259.384C745.346 258.849 745.064 258.112 745.064 257.173C745.064 256.572 745.192 256.044 745.449 255.589C745.713 255.134 746.087 254.779 746.571 254.522C747.062 254.265 747.641 254.137 748.309 254.137C749.064 254.137 749.676 254.298 750.146 254.621C750.622 254.944 750.934 255.413 751.081 256.029L750.058 256.194C749.83 255.387 749.236 254.984 748.276 254.984C747.608 254.984 747.088 255.175 746.714 255.556C746.34 255.937 746.153 256.469 746.153 257.151C746.153 257.855 746.336 258.394 746.703 258.768C747.069 259.142 747.601 259.329 748.298 259.329C749.361 259.329 749.984 258.907 750.168 258.064H751.191ZM753.338 257.448C753.353 258.035 753.547 258.5 753.921 258.845C754.302 259.19 754.812 259.362 755.45 259.362C756.513 259.362 757.166 259.043 757.408 258.405H758.398C758.09 259.586 757.093 260.176 755.406 260.176C754.438 260.176 753.679 259.912 753.129 259.384C752.579 258.856 752.304 258.13 752.304 257.206C752.304 256.612 752.429 256.084 752.678 255.622C752.935 255.16 753.301 254.797 753.778 254.533C754.255 254.269 754.808 254.137 755.439 254.137C756.4 254.137 757.148 254.39 757.683 254.896C758.218 255.395 758.486 256.095 758.486 256.997V257.448H753.338ZM757.474 256.667C757.467 256.117 757.287 255.692 756.935 255.391C756.583 255.09 756.081 254.94 755.428 254.94C754.863 254.94 754.394 255.094 754.02 255.402C753.646 255.71 753.426 256.132 753.36 256.667H757.474ZM755.274 253.499L753.481 251.926H754.768L756.319 253.499H755.274ZM764.326 255.809C764.216 255.516 764.007 255.299 763.699 255.16C763.398 255.013 762.984 254.94 762.456 254.94C761.928 254.94 761.51 255.013 761.202 255.16C760.894 255.307 760.74 255.505 760.74 255.754C760.74 256.003 760.846 256.19 761.059 256.315C761.279 256.44 761.686 256.546 762.28 256.634L763.006 256.744C763.651 256.839 764.143 256.957 764.48 257.096C764.825 257.228 765.067 257.4 765.206 257.613C765.353 257.826 765.426 258.101 765.426 258.438C765.426 259.597 764.487 260.176 762.61 260.176C761.708 260.176 761.008 260.026 760.509 259.725C760.01 259.417 759.706 258.955 759.596 258.339H760.575C760.788 259.021 761.459 259.362 762.588 259.362C763.182 259.362 763.64 259.285 763.963 259.131C764.293 258.977 764.458 258.757 764.458 258.471C764.458 258.222 764.341 258.035 764.106 257.91C763.871 257.785 763.435 257.675 762.797 257.58L762.126 257.481C761.51 257.386 761.033 257.268 760.696 257.129C760.366 256.99 760.131 256.814 759.992 256.601C759.853 256.381 759.783 256.106 759.783 255.776C759.783 255.263 760.018 254.863 760.487 254.577C760.964 254.284 761.62 254.137 762.456 254.137C763.277 254.137 763.908 254.258 764.348 254.5C764.795 254.742 765.103 255.138 765.272 255.688L764.326 255.809ZM769.982 262.134V254.313H771.005V255.347C771.254 254.973 771.603 254.68 772.05 254.467C772.497 254.247 772.989 254.137 773.524 254.137C774.089 254.137 774.587 254.258 775.02 254.5C775.46 254.735 775.801 255.079 776.043 255.534C776.292 255.981 776.417 256.509 776.417 257.118C776.417 257.705 776.296 258.229 776.054 258.691C775.812 259.153 775.464 259.516 775.009 259.78C774.554 260.044 774.023 260.176 773.414 260.176C772.365 260.176 771.566 259.809 771.016 259.076V262.134H769.982ZM771.005 257.316C771.005 257.873 771.196 258.35 771.577 258.746C771.76 258.937 771.984 259.083 772.248 259.186C772.519 259.281 772.813 259.329 773.128 259.329C773.847 259.329 774.393 259.142 774.767 258.768C775.141 258.394 775.328 257.848 775.328 257.129C775.328 256.454 775.141 255.93 774.767 255.556C774.393 255.175 773.872 254.984 773.205 254.984C772.89 254.984 772.589 255.043 772.303 255.16C772.017 255.27 771.771 255.428 771.566 255.633C771.39 255.809 771.251 256.014 771.148 256.249C771.053 256.484 771.005 256.722 771.005 256.964V257.316ZM777.91 260V254.313H778.933V255.38C779.211 254.999 779.53 254.709 779.89 254.511C780.256 254.313 780.649 254.214 781.067 254.214C781.228 254.214 781.426 254.232 781.661 254.269L781.54 255.171C781.334 255.134 781.147 255.116 780.979 255.116C780.671 255.116 780.399 255.16 780.165 255.248C779.93 255.336 779.714 255.472 779.516 255.655C779.134 256.007 778.944 256.418 778.944 256.887V260H777.91ZM782.84 260V254.313H783.874V260H782.84ZM782.807 253.268V252.146H783.907V253.268H782.807ZM787.623 260L784.884 254.313H786.094L788.195 258.933L790.307 254.313H791.462L788.723 260H787.623ZM793.041 257.448C793.056 258.035 793.25 258.5 793.624 258.845C794.005 259.19 794.515 259.362 795.153 259.362C796.216 259.362 796.869 259.043 797.111 258.405H798.101C797.793 259.586 796.796 260.176 795.109 260.176C794.141 260.176 793.382 259.912 792.832 259.384C792.282 258.856 792.007 258.13 792.007 257.206C792.007 256.612 792.132 256.084 792.381 255.622C792.638 255.16 793.004 254.797 793.481 254.533C793.958 254.269 794.511 254.137 795.142 254.137C796.103 254.137 796.851 254.39 797.386 254.896C797.921 255.395 798.189 256.095 798.189 256.997V257.448H793.041ZM797.177 256.667C797.17 256.117 796.99 255.692 796.638 255.391C796.286 255.09 795.784 254.94 795.131 254.94C794.566 254.94 794.097 255.094 793.723 255.402C793.349 255.71 793.129 256.132 793.063 256.667H797.177ZM795.417 253.499H794.372L795.923 251.926H797.21L795.417 253.499Z" fill="white"/>
<path d="M1224.06 229.184H1218.42V227.144H1226.29V234.056C1225.33 234.792 1224.13 235.376 1222.69 235.808C1221.27 236.224 1219.79 236.432 1218.25 236.432C1216.31 236.432 1214.62 236.08 1213.16 235.376C1211.72 234.672 1210.6 233.648 1209.8 232.304C1209.02 230.96 1208.63 229.36 1208.63 227.504C1208.63 225.712 1209 224.136 1209.75 222.776C1210.51 221.4 1211.59 220.336 1212.99 219.584C1214.42 218.816 1216.1 218.432 1218.03 218.432C1220.03 218.432 1221.71 218.856 1223.05 219.704C1224.39 220.536 1225.34 221.752 1225.88 223.352L1223.53 223.76C1223.1 222.672 1222.42 221.864 1221.49 221.336C1220.58 220.808 1219.4 220.544 1217.96 220.544C1215.82 220.544 1214.14 221.16 1212.92 222.392C1211.71 223.608 1211.1 225.304 1211.1 227.48C1211.1 229.64 1211.73 231.32 1212.99 232.52C1214.26 233.72 1216.03 234.32 1218.3 234.32C1220.6 234.32 1222.52 233.904 1224.06 233.072V229.184ZM1239.6 236V234.056C1238.84 234.84 1238.01 235.416 1237.1 235.784C1236.2 236.136 1235.16 236.312 1233.98 236.312C1232.36 236.312 1231.12 235.984 1230.26 235.328C1229.4 234.672 1228.96 233.736 1228.96 232.52C1228.96 231.192 1229.53 230.208 1230.67 229.568C1231.82 228.912 1233.62 228.552 1236.07 228.488L1239.55 228.392V227.96C1239.55 226.936 1239.24 226.184 1238.64 225.704C1238.04 225.208 1237.12 224.96 1235.85 224.96C1234.67 224.96 1233.74 225.104 1233.07 225.392C1232.41 225.68 1231.97 226.136 1231.75 226.76L1229.68 226.496C1230.18 224.304 1232.27 223.208 1235.95 223.208C1237.9 223.208 1239.35 223.6 1240.29 224.384C1241.25 225.168 1241.73 226.368 1241.73 227.984V236H1239.6ZM1239.55 230L1236.09 230.096C1234.43 230.144 1233.21 230.344 1232.44 230.696C1231.68 231.048 1231.29 231.592 1231.29 232.328C1231.29 233.032 1231.57 233.568 1232.13 233.936C1232.69 234.304 1233.5 234.488 1234.56 234.488C1235.31 234.488 1236.02 234.376 1236.69 234.152C1237.38 233.912 1237.97 233.584 1238.47 233.168C1239.19 232.576 1239.55 231.848 1239.55 230.984V230ZM1264.68 236V228.416C1264.68 227.28 1264.44 226.448 1263.96 225.92C1263.48 225.392 1262.71 225.128 1261.66 225.128C1260.49 225.128 1259.44 225.552 1258.51 226.4C1258.15 226.72 1257.87 227.088 1257.67 227.504C1257.48 227.904 1257.39 228.328 1257.39 228.776V236H1255.13V228.416C1255.13 227.28 1254.89 226.448 1254.41 225.92C1253.93 225.392 1253.16 225.128 1252.11 225.128C1251.53 225.128 1250.97 225.248 1250.43 225.488C1249.9 225.728 1249.41 226.08 1248.96 226.544C1248.21 227.296 1247.83 228.184 1247.83 229.208V236H1245.58V223.592H1247.81V225.896C1248.47 224.984 1249.19 224.312 1249.99 223.88C1250.79 223.432 1251.69 223.208 1252.68 223.208C1253.82 223.208 1254.75 223.432 1255.49 223.88C1256.23 224.328 1256.75 224.992 1257.05 225.872C1257.75 224.96 1258.52 224.288 1259.35 223.856C1260.19 223.424 1261.15 223.208 1262.23 223.208C1263.79 223.208 1264.95 223.616 1265.74 224.432C1266.54 225.232 1266.94 226.424 1266.94 228.008V236H1264.68ZM1270.77 236V218.864H1273.03V225.824C1273.57 225.008 1274.33 224.368 1275.31 223.904C1276.28 223.44 1277.35 223.208 1278.5 223.208C1279.73 223.208 1280.82 223.472 1281.76 224C1282.72 224.512 1283.47 225.264 1284 226.256C1284.54 227.232 1284.81 228.384 1284.81 229.712C1284.81 230.992 1284.55 232.136 1284.02 233.144C1283.49 234.152 1282.73 234.944 1281.74 235.52C1280.75 236.096 1279.59 236.384 1278.26 236.384C1275.94 236.384 1274.19 235.576 1273 233.96V236H1270.77ZM1273 230.144C1273 231.36 1273.42 232.4 1274.25 233.264C1274.65 233.68 1275.14 234 1275.72 234.224C1276.31 234.432 1276.95 234.536 1277.64 234.536C1279.2 234.536 1280.4 234.128 1281.21 233.312C1282.03 232.496 1282.44 231.304 1282.44 229.736C1282.44 228.264 1282.03 227.12 1281.21 226.304C1280.4 225.472 1279.26 225.056 1277.8 225.056C1277.12 225.056 1276.46 225.184 1275.84 225.44C1275.21 225.68 1274.68 226.024 1274.23 226.472C1273.84 226.856 1273.54 227.304 1273.32 227.816C1273.11 228.328 1273 228.848 1273 229.376V230.144ZM1289.65 230.432C1289.69 231.712 1290.11 232.728 1290.93 233.48C1291.76 234.232 1292.87 234.608 1294.26 234.608C1296.58 234.608 1298.01 233.912 1298.53 232.52H1300.69C1300.02 235.096 1297.85 236.384 1294.17 236.384C1292.05 236.384 1290.4 235.808 1289.2 234.656C1288 233.504 1287.4 231.92 1287.4 229.904C1287.4 228.608 1287.67 227.456 1288.21 226.448C1288.77 225.44 1289.57 224.648 1290.61 224.072C1291.65 223.496 1292.86 223.208 1294.24 223.208C1296.33 223.208 1297.97 223.76 1299.13 224.864C1300.3 225.952 1300.89 227.48 1300.89 229.448V230.432H1289.65ZM1298.68 228.728C1298.66 227.528 1298.27 226.6 1297.5 225.944C1296.73 225.288 1295.64 224.96 1294.21 224.96C1292.98 224.96 1291.96 225.296 1291.14 225.968C1290.33 226.64 1289.85 227.56 1289.7 228.728H1298.68ZM1311.95 235.784C1310.99 236.104 1309.97 236.264 1308.88 236.264C1307.52 236.264 1306.52 235.936 1305.88 235.28C1305.24 234.624 1304.92 233.584 1304.92 232.16V225.368H1302.5V223.592H1304.92V220.208H1307.18V223.592H1311.59V225.368H1307.18V232.352C1307.18 233.728 1307.87 234.416 1309.27 234.416C1310.03 234.416 1310.81 234.288 1311.59 234.032L1311.95 235.784ZM1322.48 235.784C1321.52 236.104 1320.49 236.264 1319.4 236.264C1318.04 236.264 1317.04 235.936 1316.4 235.28C1315.76 234.624 1315.44 233.584 1315.44 232.16V225.368H1313.02V223.592H1315.44V220.208H1317.7V223.592H1322.12V225.368H1317.7V232.352C1317.7 233.728 1318.4 234.416 1319.79 234.416C1320.56 234.416 1321.33 234.288 1322.12 234.032L1322.48 235.784ZM1334.75 236V234.056C1334 234.84 1333.17 235.416 1332.26 235.784C1331.36 236.136 1330.32 236.312 1329.14 236.312C1327.52 236.312 1326.28 235.984 1325.42 235.328C1324.55 234.672 1324.12 233.736 1324.12 232.52C1324.12 231.192 1324.69 230.208 1325.82 229.568C1326.98 228.912 1328.78 228.552 1331.22 228.488L1334.7 228.392V227.96C1334.7 226.936 1334.4 226.184 1333.79 225.704C1333.2 225.208 1332.27 224.96 1331.01 224.96C1329.82 224.96 1328.9 225.104 1328.22 225.392C1327.57 225.68 1327.13 226.136 1326.9 226.76L1324.84 226.496C1325.34 224.304 1327.42 223.208 1331.1 223.208C1333.06 223.208 1334.5 223.6 1335.45 224.384C1336.41 225.168 1336.89 226.368 1336.89 227.984V236H1334.75ZM1334.7 230L1331.25 230.096C1329.58 230.144 1328.37 230.344 1327.6 230.696C1326.83 231.048 1326.45 231.592 1326.45 232.328C1326.45 233.032 1326.73 233.568 1327.29 233.936C1327.85 234.304 1328.66 234.488 1329.71 234.488C1330.46 234.488 1331.18 234.376 1331.85 234.152C1332.54 233.912 1333.13 233.584 1333.62 233.168C1334.34 232.576 1334.7 231.848 1334.7 230.984V230Z" fill="white"/>
<path d="M1130.21 236V222.248L1123.49 236H1121.48L1114.76 222.392V236H1112.48V218.864H1115.43L1122.56 233.48L1129.66 218.864H1132.52V236H1130.21Z" fill="white"/>
<path d="M1160.99 228.562V227.372H1162.43C1163.11 227.372 1163.64 227.227 1164.02 226.938C1164.42 226.649 1164.61 226.243 1164.61 225.72C1164.61 225.225 1164.41 224.852 1164 224.6C1163.6 224.348 1163 224.222 1162.22 224.222C1161.73 224.222 1161.32 224.278 1160.99 224.39C1160.66 224.493 1160.39 224.661 1160.17 224.894C1159.96 225.127 1159.78 225.431 1159.64 225.804L1158.37 225.608C1158.56 224.768 1158.98 224.133 1159.63 223.704C1160.29 223.275 1161.17 223.06 1162.27 223.06C1163.39 223.06 1164.28 223.289 1164.93 223.746C1165.6 224.194 1165.93 224.801 1165.93 225.566C1165.93 226.107 1165.78 226.56 1165.49 226.924C1165.21 227.288 1164.77 227.596 1164.16 227.848C1165.52 228.296 1166.19 229.089 1166.19 230.228C1166.19 231.18 1165.85 231.922 1165.16 232.454C1164.48 232.986 1163.52 233.252 1162.29 233.252C1161.05 233.252 1160.08 233 1159.38 232.496C1158.68 231.983 1158.3 231.259 1158.26 230.326H1159.59C1159.69 230.951 1159.95 231.404 1160.36 231.684C1160.78 231.955 1161.41 232.09 1162.26 232.09C1163.11 232.09 1163.75 231.936 1164.19 231.628C1164.64 231.32 1164.86 230.867 1164.86 230.27C1164.86 229.131 1164.04 228.562 1162.4 228.562H1160.99ZM1168.3 233V223.004H1169.61V227.064C1169.93 226.588 1170.37 226.215 1170.94 225.944C1171.51 225.673 1172.13 225.538 1172.81 225.538C1173.52 225.538 1174.16 225.692 1174.71 226C1175.27 226.299 1175.7 226.737 1176.01 227.316C1176.33 227.885 1176.49 228.557 1176.49 229.332C1176.49 230.079 1176.33 230.746 1176.03 231.334C1175.72 231.922 1175.27 232.384 1174.7 232.72C1174.12 233.056 1173.44 233.224 1172.67 233.224C1171.31 233.224 1170.29 232.753 1169.6 231.81V233H1168.3ZM1169.6 229.584C1169.6 230.293 1169.84 230.9 1170.33 231.404C1170.56 231.647 1170.85 231.833 1171.18 231.964C1171.53 232.085 1171.9 232.146 1172.3 232.146C1173.22 232.146 1173.91 231.908 1174.39 231.432C1174.86 230.956 1175.1 230.261 1175.1 229.346C1175.1 228.487 1174.86 227.82 1174.39 227.344C1173.91 226.859 1173.25 226.616 1172.4 226.616C1172 226.616 1171.62 226.691 1171.25 226.84C1170.89 226.98 1170.57 227.181 1170.31 227.442C1170.09 227.666 1169.91 227.927 1169.78 228.226C1169.66 228.525 1169.6 228.828 1169.6 229.136V229.584ZM1178.39 233V225.762H1179.7V233H1178.39ZM1178.35 224.432V223.004H1179.75V224.432H1178.35ZM1187.53 227.666C1187.39 227.293 1187.12 227.017 1186.73 226.84C1186.35 226.653 1185.82 226.56 1185.15 226.56C1184.47 226.56 1183.94 226.653 1183.55 226.84C1183.16 227.027 1182.96 227.279 1182.96 227.596C1182.96 227.913 1183.1 228.151 1183.37 228.31C1183.65 228.469 1184.17 228.604 1184.92 228.716L1185.85 228.856C1186.67 228.977 1187.29 229.127 1187.72 229.304C1188.16 229.472 1188.47 229.691 1188.65 229.962C1188.83 230.233 1188.93 230.583 1188.93 231.012C1188.93 232.487 1187.73 233.224 1185.34 233.224C1184.19 233.224 1183.3 233.033 1182.67 232.65C1182.03 232.258 1181.65 231.67 1181.51 230.886H1182.75C1183.02 231.754 1183.88 232.188 1185.31 232.188C1186.07 232.188 1186.65 232.09 1187.06 231.894C1187.48 231.698 1187.69 231.418 1187.69 231.054C1187.69 230.737 1187.55 230.499 1187.25 230.34C1186.95 230.181 1186.39 230.041 1185.58 229.92L1184.73 229.794C1183.94 229.673 1183.34 229.523 1182.91 229.346C1182.49 229.169 1182.19 228.945 1182.01 228.674C1181.83 228.394 1181.74 228.044 1181.74 227.624C1181.74 226.971 1182.04 226.462 1182.64 226.098C1183.25 225.725 1184.08 225.538 1185.15 225.538C1186.19 225.538 1186.99 225.692 1187.55 226C1188.12 226.308 1188.52 226.812 1188.73 227.512L1187.53 227.666Z" fill="white"/>
<path d="M908.5 364L908.5 369.5C908.5 374.747 904.247 379 899 379L870.113 379C866.742 379 863.575 380.619 861.601 383.352L858.5 387.646L855.399 383.352C853.425 380.619 850.258 379 846.887 379L818 379C812.753 379 808.5 374.747 808.5 369.5L808.5 364C808.5 358.753 812.753 354.5 818 354.5L899 354.5C904.247 354.5 908.5 358.753 908.5 364Z" fill="#448AF7" stroke="white"/>
<path d="M836.914 369.5V368.654C836.71 368.96 836.425 369.203 836.059 369.383C835.693 369.557 835.291 369.644 834.853 369.644C834.391 369.644 833.98 369.548 833.62 369.356C833.266 369.158 832.987 368.876 832.783 368.51C832.585 368.138 832.486 367.703 832.486 367.205C832.486 366.725 832.585 366.296 832.783 365.918C832.981 365.54 833.266 365.243 833.638 365.027C834.01 364.811 834.445 364.703 834.943 364.703C835.801 364.703 836.455 365.003 836.905 365.603V363.074H837.751V369.5H836.914ZM836.914 367.043C836.914 366.587 836.758 366.197 836.446 365.873C836.296 365.717 836.11 365.6 835.888 365.522C835.672 365.438 835.435 365.396 835.177 365.396C834.595 365.396 834.148 365.549 833.836 365.855C833.53 366.161 833.377 366.608 833.377 367.196C833.377 367.748 833.527 368.18 833.827 368.492C834.133 368.798 834.562 368.951 835.114 368.951C835.372 368.951 835.618 368.906 835.852 368.816C836.086 368.72 836.287 368.588 836.455 368.42C836.599 368.276 836.71 368.108 836.788 367.916C836.872 367.724 836.914 367.529 836.914 367.331V367.043ZM839.818 367.412C839.83 367.892 839.989 368.273 840.295 368.555C840.607 368.837 841.024 368.978 841.546 368.978C842.416 368.978 842.95 368.717 843.148 368.195H843.958C843.706 369.161 842.89 369.644 841.51 369.644C840.718 369.644 840.097 369.428 839.647 368.996C839.197 368.564 838.972 367.97 838.972 367.214C838.972 366.728 839.074 366.296 839.278 365.918C839.488 365.54 839.788 365.243 840.178 365.027C840.568 364.811 841.021 364.703 841.537 364.703C842.323 364.703 842.935 364.91 843.373 365.324C843.811 365.732 844.03 366.305 844.03 367.043V367.412H839.818ZM843.202 366.773C843.196 366.323 843.049 365.975 842.761 365.729C842.473 365.483 842.062 365.36 841.528 365.36C841.066 365.36 840.682 365.486 840.376 365.738C840.07 365.99 839.89 366.335 839.836 366.773H843.202ZM841.762 364.181H840.907L842.176 362.894H843.229L841.762 364.181ZM846.759 369.5L844.518 364.847H845.508L847.227 368.627L848.955 364.847H849.9L847.659 369.5H846.759ZM851.191 367.412C851.203 367.892 851.362 368.273 851.668 368.555C851.98 368.837 852.397 368.978 852.919 368.978C853.789 368.978 854.323 368.717 854.521 368.195H855.331C855.079 369.161 854.263 369.644 852.883 369.644C852.091 369.644 851.47 369.428 851.02 368.996C850.57 368.564 850.345 367.97 850.345 367.214C850.345 366.728 850.447 366.296 850.651 365.918C850.861 365.54 851.161 365.243 851.551 365.027C851.941 364.811 852.394 364.703 852.91 364.703C853.696 364.703 854.308 364.91 854.746 365.324C855.184 365.732 855.403 366.305 855.403 367.043V367.412H851.191ZM854.575 366.773C854.569 366.323 854.422 365.975 854.134 365.729C853.846 365.483 853.435 365.36 852.901 365.36C852.439 365.36 852.055 365.486 851.749 365.738C851.443 365.99 851.263 366.335 851.209 366.773H854.575ZM856.627 369.5V364.847H857.464V365.72C857.692 365.408 857.953 365.171 858.247 365.009C858.547 364.847 858.868 364.766 859.21 364.766C859.342 364.766 859.504 364.781 859.696 364.811L859.597 365.549C859.429 365.519 859.276 365.504 859.138 365.504C858.886 365.504 858.664 365.54 858.472 365.612C858.28 365.684 858.103 365.795 857.941 365.945C857.629 366.233 857.473 366.569 857.473 366.953V369.5H856.627ZM860.661 369.5V364.847H861.498V365.72C861.726 365.408 861.987 365.171 862.281 365.009C862.581 364.847 862.902 364.766 863.244 364.766C863.376 364.766 863.538 364.781 863.73 364.811L863.631 365.549C863.463 365.519 863.31 365.504 863.172 365.504C862.92 365.504 862.698 365.54 862.506 365.612C862.314 365.684 862.137 365.795 861.975 365.945C861.663 366.233 861.507 366.569 861.507 366.953V369.5H860.661ZM869.527 367.16C869.527 367.646 869.416 368.078 869.194 368.456C868.978 368.828 868.663 369.119 868.249 369.329C867.835 369.539 867.352 369.644 866.8 369.644C866.266 369.644 865.798 369.548 865.396 369.356C864.994 369.164 864.682 368.882 864.46 368.51C864.238 368.138 864.127 367.697 864.127 367.187C864.127 366.701 864.235 366.272 864.451 365.9C864.673 365.522 864.991 365.228 865.405 365.018C865.819 364.808 866.302 364.703 866.854 364.703C867.388 364.703 867.856 364.799 868.258 364.991C868.66 365.183 868.972 365.465 869.194 365.837C869.416 366.209 869.527 366.65 869.527 367.16ZM868.636 367.178C868.636 366.614 868.477 366.176 868.159 365.864C867.847 365.552 867.406 365.396 866.836 365.396C866.26 365.396 865.813 365.552 865.495 365.864C865.177 366.17 865.018 366.605 865.018 367.169C865.018 367.733 865.174 368.171 865.486 368.483C865.804 368.795 866.248 368.951 866.818 368.951C867.394 368.951 867.841 368.798 868.159 368.492C868.477 368.18 868.636 367.742 868.636 367.178ZM874.603 369.5V368.636C874.339 368.978 874.039 369.233 873.703 369.401C873.373 369.563 872.998 369.644 872.578 369.644C871.978 369.644 871.516 369.494 871.192 369.194C870.874 368.888 870.715 368.45 870.715 367.88V364.847H871.561V367.727C871.561 368.135 871.66 368.438 871.858 368.636C872.062 368.828 872.374 368.924 872.794 368.924C873.292 368.924 873.739 368.75 874.135 368.402C874.285 368.264 874.399 368.111 874.477 367.943C874.555 367.769 874.594 367.589 874.594 367.403V364.847H875.44V369.5H874.603ZM876.912 369.5V364.847H877.758V369.5H876.912ZM876.885 363.992V363.074H877.785V363.992H876.885ZM879.232 369.5V363.074H880.078V369.5H879.232ZM881.552 369.5V363.074H882.398V369.5H881.552ZM884.467 367.412C884.479 367.892 884.638 368.273 884.944 368.555C885.256 368.837 885.673 368.978 886.195 368.978C887.065 368.978 887.599 368.717 887.797 368.195H888.607C888.355 369.161 887.539 369.644 886.159 369.644C885.367 369.644 884.746 369.428 884.296 368.996C883.846 368.564 883.621 367.97 883.621 367.214C883.621 366.728 883.723 366.296 883.927 365.918C884.137 365.54 884.437 365.243 884.827 365.027C885.217 364.811 885.67 364.703 886.186 364.703C886.972 364.703 887.584 364.91 888.022 365.324C888.46 365.732 888.679 366.305 888.679 367.043V367.412H884.467ZM887.851 366.773C887.845 366.323 887.698 365.975 887.41 365.729C887.122 365.483 886.711 365.36 886.177 365.36C885.715 365.36 885.331 365.486 885.025 365.738C884.719 365.99 884.539 366.335 884.485 366.773H887.851ZM889.902 369.5V364.847H890.739V365.72C890.967 365.408 891.228 365.171 891.522 365.009C891.822 364.847 892.143 364.766 892.485 364.766C892.617 364.766 892.779 364.781 892.971 364.811L892.872 365.549C892.704 365.519 892.551 365.504 892.413 365.504C892.161 365.504 891.939 365.54 891.747 365.612C891.555 365.684 891.378 365.795 891.216 365.945C890.904 366.233 890.748 366.569 890.748 366.953V369.5H889.902Z" fill="white"/>
<path d="M721.017 254.661C721.176 254.312 721.271 253.932 721.271 253.521C721.271 251.993 720.028 250.75 718.5 250.75C718.088 250.75 717.708 250.845 717.36 251.003L721.017 254.661Z" fill="white"/>
<path d="M718.5 247.583C714.13 247.583 710.583 251.13 710.583 255.5C710.583 259.87 714.13 263.417 718.5 263.417C722.87 263.417 726.417 259.87 726.417 255.5C726.417 251.13 722.87 247.583 718.5 247.583ZM718.5 257.875C716.663 257.875 714.977 258.508 713.639 259.553C712.687 258.417 712.165 256.982 712.167 255.5C712.167 254.035 712.666 252.69 713.505 251.621L715.769 253.885C715.848 254.485 716.122 255.043 716.55 255.471C716.978 255.899 717.536 256.173 718.136 256.252L719.878 257.994C719.426 257.915 718.967 257.875 718.5 257.875ZM723.496 259.379L714.621 250.505C715.727 249.635 717.093 249.164 718.5 249.167C721.999 249.167 724.833 252.001 724.833 255.5C724.833 256.965 724.335 258.302 723.496 259.379Z" fill="white"/>
<circle cx="859" cy="408" r="10.5" fill="#448AF7" stroke="white"/>
<path d="M592.5 59L540 1.5H0M897.5 59L955 1.5H1619.5M592.5 731L484.5 776.5H0M897.5 731L1009.5 776.5H1619.5" stroke="white" stroke-width="2"/>
<path d="M328.293 635.192L328.293 635.192C329.161 635.027 330.768 634.884 332.508 635.139C334.249 635.393 336.031 636.031 337.37 637.343C339.96 639.885 343.878 645.521 347.81 654.122L345.366 656.673C345.027 655.815 344.546 654.626 343.949 653.22C342.706 650.291 340.953 646.409 338.923 642.622C337.156 639.322 335.004 637.972 333.012 637.868C332.044 637.818 331.177 638.071 330.506 638.467C329.867 638.844 329.299 639.421 329.096 640.109L329.094 640.113C328.948 640.619 328.936 641.281 328.97 641.945C329.007 642.641 329.103 643.46 329.236 644.341C329.503 646.106 329.931 648.189 330.378 650.172C330.827 652.158 331.299 654.058 331.659 655.46C331.804 656.027 331.932 656.513 332.032 656.892C328.862 658.096 323.177 660.472 318.119 662.618C315.334 663.8 312.729 664.916 310.821 665.736C310.071 666.059 309.429 666.335 308.925 666.553C308.925 666.553 308.925 666.552 308.925 666.552C308.918 666.5 308.91 666.446 308.903 666.392C308.82 665.798 308.719 665.07 308.614 664.234C308.386 662.408 308.142 660.074 308.044 657.541C307.847 652.425 308.256 646.686 310.428 642.661C310.847 641.886 311.638 641.102 312.799 640.333C313.952 639.57 315.407 638.864 317.069 638.218C320.394 636.928 324.439 635.924 328.293 635.192Z" stroke="white" stroke-width="2"/>
<path d="M404.143 779.912C424.835 774.419 431.009 751.043 436.878 749.082" stroke="white" stroke-miterlimit="10"/>
<path d="M431.111 733.53L431.111 733.529C429.778 722.772 427.853 709.259 425.576 697.196C424.438 691.165 423.21 685.485 421.921 680.686C420.637 675.908 419.275 671.933 417.848 669.358L417.847 669.357C417.491 668.715 417.303 667.815 417.298 666.684C417.293 665.562 417.469 664.286 417.769 662.95C418.369 660.279 419.441 657.484 420.405 655.424C421.033 654.083 421.737 653.623 422.35 653.497C423.022 653.359 423.873 653.561 424.883 654.13C426.903 655.268 428.961 657.538 430.216 659.121L430.217 659.122C432.405 661.88 433.543 664.808 434.39 668.034C434.783 669.532 435.111 671.08 435.455 672.71C435.484 672.844 435.512 672.978 435.541 673.113C435.915 674.883 436.316 676.741 436.842 678.676L436.842 678.676C440.753 693.065 445.233 713.892 443.687 728.749C443.37 731.783 443.097 734.128 442.778 735.953C442.458 737.79 442.104 739.019 441.665 739.863C441.248 740.665 440.758 741.111 440.106 741.403C439.402 741.717 438.45 741.878 437.052 741.965L437.05 741.965C435.2 742.082 434.164 741.931 433.358 741.053C432.451 740.063 431.659 737.974 431.111 733.53Z" fill="#1B1B1B" stroke="white" stroke-width="2"/>
<path d="M433.924 665.928L433.924 665.929C438.361 678.147 443.18 697.29 444.592 717.277C445.035 723.552 444.687 729.224 443.618 733.875C442.933 736.855 441.942 739.461 440.64 741.54C442.933 740.211 444.624 738.004 445.851 735.16C447.617 731.068 448.368 725.763 448.517 720.212C448.815 709.124 446.706 697.419 445.949 693.377C440.866 666.386 434.236 656.367 429.279 651.087C428.393 650.145 426.684 648.867 424.408 647.47C422.153 646.085 419.406 644.623 416.498 643.3C410.628 640.63 404.294 638.62 400.045 638.817L400.044 638.817C398.55 638.886 396.468 639.66 394.036 641.016C391.635 642.354 389.004 644.195 386.444 646.262C381.417 650.319 376.797 655.134 374.739 658.557C374.825 658.737 374.988 659.001 375.248 659.355C375.804 660.108 376.684 661.107 377.81 662.283C380.052 664.625 383.169 667.565 386.341 670.453C389.509 673.339 392.717 676.16 395.134 678.26C396.342 679.31 397.352 680.18 398.06 680.786C398.106 680.826 398.151 680.864 398.194 680.902C400.275 676.832 404.227 670.607 408.593 665.132C411 662.113 413.558 659.289 416.024 657.17C418.448 655.087 420.942 653.544 423.208 653.356L433.924 665.928ZM433.924 665.928C433.113 663.697 431.608 660.556 429.799 657.993M433.924 665.928L429.799 657.993M429.799 657.993C428.896 656.713 427.888 655.534 426.819 654.687M429.799 657.993L426.819 654.687M426.819 654.687C425.763 653.851 424.528 653.246 423.209 653.356L426.819 654.687ZM374.595 658.803L374.596 658.801L374.595 658.803Z" stroke="white" stroke-width="2"/>
<path d="M388.595 705.99L388.594 705.987C387.925 703.153 388.512 700.306 389.821 697.98C391.139 695.64 393.137 693.913 395.175 693.254L395.175 693.254C396.783 692.733 398.634 692.973 400.641 694.041C402.623 695.095 404.703 696.932 406.715 699.503C414.673 722.466 416.187 749.976 413.413 772.335C412.06 783.222 399.935 795.082 379.971 798.388C380.207 798.241 380.446 798.086 380.687 797.923C384.858 795.099 389.598 789.847 392.19 780.171C396.067 765.699 395.143 747.115 393.283 732.237C392.351 724.781 391.18 718.221 390.241 713.526C389.771 711.177 389.36 709.294 389.066 707.997C388.918 707.348 388.8 706.845 388.719 706.504C388.678 706.334 388.647 706.204 388.625 706.116L388.601 706.016L388.595 705.99Z" fill="#1B1B1B" stroke="white" stroke-width="2"/>
<path d="M342.002 667.867L342.002 667.867C367.163 668.741 381.586 689.434 389.106 713.565C396.614 737.658 397.063 764.696 394.581 777.298C394.409 778.169 394.252 779.02 394.098 779.851C393.694 782.036 393.315 784.088 392.756 786.027C391.993 788.67 390.924 790.987 389.091 792.924C385.429 796.795 378.437 799.437 363.661 799.437C330.654 799.437 312.134 796.64 305.194 794.45C302.781 793.687 299.277 792.481 296.095 789.564C292.933 786.666 290.009 782.002 288.918 774.183L288.918 774.182C287.208 762.005 286.37 750.815 289.922 720.747C291.632 706.29 293.602 692.724 300.63 682.932C307.574 673.256 319.619 667.082 342.002 667.867Z" fill="#1B1B1B" stroke="white" stroke-width="2"/>
<path d="M404.226 711.173C403.03 704.888 401.333 697.976 398.538 691.232L395.173 691.385C397.69 697.1 399.776 703.817 401.278 711.729C406.075 737.081 406.632 754.074 406.381 763.294C406.228 768.829 409.274 768.856 409.427 762.946C409.663 753.476 409.023 736.538 404.226 711.173Z" fill="white"/>
<path d="M445.805 756.118L432.817 757.272C431.621 757.384 430.55 756.494 430.453 755.284L429.465 744.256C429.354 743.06 430.244 741.989 431.454 741.892L444.442 740.738C445.638 740.627 446.709 741.517 446.807 742.727L447.794 753.754C447.891 754.95 447.001 756.007 445.805 756.118Z" fill="white"/>
<path d="M434.24 769.142L434.24 769.139L430.471 749.28L430.471 749.28L430.469 749.272C430.461 749.233 430.486 749.195 430.534 749.191L430.534 749.191L430.545 749.19L440.459 748.189C440.459 748.189 440.459 748.189 440.459 748.189C440.494 748.185 440.528 748.209 440.536 748.243L440.536 748.243L440.538 748.251L445.433 766.58L445.433 766.58C445.681 767.504 445.109 768.461 444.177 768.675L436.284 770.482C436.283 770.482 436.282 770.482 436.282 770.482C435.341 770.686 434.411 770.078 434.24 769.142Z" stroke="white"/>
<path d="M326.352 708.643L326.344 708.643H326.337C324.738 708.643 323.433 707.341 323.43 705.742L323.722 694.708L323.722 694.708V694.694C323.722 693.119 324.974 691.829 326.545 691.788L347.753 692.357L347.766 692.358L347.78 692.357C348.164 692.347 348.546 692.412 348.904 692.55C349.262 692.687 349.59 692.895 349.868 693.159C350.146 693.424 350.369 693.741 350.524 694.092C350.678 694.442 350.762 694.818 350.771 695.2L350.729 706.304H350.729L350.729 706.31C350.741 707.939 349.435 709.279 347.801 709.283L326.352 708.643Z" fill="#448AF7" stroke="white"/>
<path d="M398.969 692.289C392.114 675.156 378.277 658.677 348.045 655.952C327.046 654.06 312.904 663.809 307.146 667.341C305.867 668.119 304.435 669.093 303.461 670.428C302.224 672.124 302.057 673.515 302.057 673.515C302.057 673.515 320.274 656.508 347.766 658.941C363.481 660.332 384.117 665.575 395.479 692.136C396.438 691.899 397.732 692.038 398.969 692.289Z" fill="white"/>
<path d="M361.18 786.481C352.518 786.696 340.743 786.741 328.282 786.061C321.726 785.701 316.074 785.051 311.835 784.184C309.714 783.749 307.973 783.265 306.661 782.748C305.31 782.216 304.556 781.702 304.239 781.29C304.146 781.169 304.053 781.049 303.96 780.929C302.842 779.488 301.735 778.062 300.85 775.302C299.876 772.27 299.163 767.587 299.163 759.553C299.163 754.212 300.151 749.48 302.021 746.098C303.875 742.743 306.543 740.781 309.994 740.695L309.995 740.695C312.962 740.618 330.058 740.41 345.84 740.22C347.282 740.203 348.713 740.186 350.121 740.169C356.414 740.094 362.249 740.024 366.57 739.969C367.69 739.955 368.708 739.942 369.606 739.931C369.594 739.944 369.582 739.957 369.569 739.971C368.405 741.231 367.388 742.989 366.561 745.046C364.904 749.165 363.929 754.675 364.15 760.371C364.681 774.098 367.27 780.98 369.893 784.446C370.404 785.121 370.917 785.666 371.414 786.106C368.953 786.228 365.445 786.375 361.18 786.481Z" stroke="white" stroke-width="2"/>
<path d="M823 369.333C822.817 369.333 822.66 369.268 822.529 369.137C822.398 369.007 822.333 368.85 822.333 368.667V365.333C822.333 365.15 822.399 364.993 822.529 364.862C822.66 364.732 822.817 364.666 823 364.667H823.333V364C823.333 363.539 823.496 363.146 823.821 362.821C824.146 362.495 824.539 362.333 825 362.333C825.461 362.333 825.854 362.496 826.179 362.821C826.505 363.146 826.667 363.539 826.667 364V364.667H827C827.183 364.667 827.34 364.732 827.471 364.863C827.602 364.993 827.667 365.15 827.667 365.333V368.667C827.667 368.85 827.601 369.007 827.471 369.138C827.34 369.268 827.183 369.333 827 369.333H823ZM825 367.667C825.183 367.667 825.34 367.601 825.471 367.471C825.602 367.34 825.667 367.183 825.667 367C825.667 366.817 825.601 366.66 825.471 366.529C825.34 366.398 825.183 366.333 825 366.333C824.817 366.333 824.66 366.399 824.529 366.529C824.398 366.66 824.333 366.817 824.333 367C824.333 367.183 824.399 367.34 824.529 367.471C824.66 367.602 824.817 367.667 825 367.667ZM824 364.667H826V364C826 363.722 825.903 363.486 825.708 363.292C825.514 363.097 825.278 363 825 363C824.722 363 824.486 363.097 824.292 363.292C824.097 363.486 824 363.722 824 364V364.667Z" fill="white"/>
<path d="M1376 256.667L1371.25 252L1389.92 233.333H1349.33V226.667H1389.92L1371.25 208L1376 203.333L1402.67 230L1376 256.667Z" fill="#699BF7"/>
<path d="M540.5 5C557 141.667 569.2 486.8 486 774" stroke="white" stroke-width="2"/>
<path d="M955.048 2C938.411 139.733 926.109 487.559 1010 777" stroke="white" stroke-width="2"/>
<path d="M1052.89 180.368C1052.9 180.235 1052.91 180.113 1052.92 180H1441.06C1441.07 180.108 1441.08 180.225 1441.09 180.35C1441.14 181.18 1441.22 182.388 1441.31 183.898C1441.5 186.919 1441.75 191.15 1442 195.989C1442.5 205.673 1443 217.777 1443 227.5C1443 237.223 1442.5 249.327 1442 259.011C1441.75 263.85 1441.5 268.081 1441.31 271.102C1441.22 272.612 1441.14 273.82 1441.09 274.65C1441.08 274.775 1441.07 274.892 1441.06 275H1052.92C1052.91 274.879 1052.9 274.747 1052.89 274.604C1052.82 273.755 1052.72 272.52 1052.61 270.977C1052.37 267.893 1052.06 263.582 1051.75 258.674C1051.12 248.853 1050.5 236.667 1050.5 227.151C1050.5 217.635 1051.12 205.624 1051.75 195.978C1052.06 191.158 1052.37 186.934 1052.61 183.915C1052.72 182.406 1052.82 181.198 1052.89 180.368Z" stroke="white" stroke-width="2"/>
<circle cx="1123" cy="228" r="20" stroke="white" stroke-width="2"/>
<circle cx="1174" cy="228" r="20" stroke="white" stroke-width="2"/>
<path d="M173.414 230.36C173.078 232.328 172.182 233.832 170.726 234.872C169.27 235.912 167.326 236.432 164.894 236.432C163.054 236.432 161.438 236.08 160.046 235.376C158.67 234.656 157.59 233.616 156.806 232.256C156.038 230.896 155.654 229.288 155.654 227.432C155.654 225.688 156.022 224.136 156.758 222.776C157.494 221.416 158.558 220.352 159.95 219.584C161.342 218.816 162.966 218.432 164.822 218.432C167.094 218.432 168.918 218.904 170.294 219.848C171.67 220.776 172.622 222.184 173.15 224.072L170.822 224.432C170.326 223.056 169.606 222.064 168.662 221.456C167.734 220.848 166.454 220.544 164.822 220.544C163.494 220.544 162.326 220.816 161.318 221.36C160.31 221.904 159.526 222.696 158.966 223.736C158.406 224.776 158.126 226.008 158.126 227.432C158.126 228.824 158.39 230.04 158.918 231.08C159.446 232.104 160.222 232.904 161.246 233.48C162.27 234.04 163.486 234.32 164.894 234.32C166.654 234.32 168.022 234 168.998 233.36C169.99 232.72 170.646 231.72 170.966 230.36H173.414ZM187.275 236V228.416C187.275 227.264 186.995 226.432 186.435 225.92C185.891 225.392 185.003 225.128 183.771 225.128C183.115 225.128 182.459 225.256 181.803 225.512C181.163 225.752 180.611 226.096 180.147 226.544C179.747 226.912 179.443 227.328 179.235 227.792C179.027 228.24 178.923 228.712 178.923 229.208V236H176.667V218.864H178.923V225.872C180.299 224.096 182.107 223.208 184.347 223.208C186.059 223.208 187.347 223.616 188.211 224.432C189.091 225.232 189.531 226.424 189.531 228.008V236H187.275ZM203.17 236V234.056C202.418 234.84 201.586 235.416 200.674 235.784C199.778 236.136 198.738 236.312 197.554 236.312C195.938 236.312 194.698 235.984 193.834 235.328C192.97 234.672 192.538 233.736 192.538 232.52C192.538 231.192 193.106 230.208 194.242 229.568C195.394 228.912 197.194 228.552 199.642 228.488L203.122 228.392V227.96C203.122 226.936 202.818 226.184 202.21 225.704C201.618 225.208 200.69 224.96 199.426 224.96C198.242 224.96 197.314 225.104 196.642 225.392C195.986 225.68 195.546 226.136 195.322 226.76L193.258 226.496C193.754 224.304 195.842 223.208 199.522 223.208C201.474 223.208 202.922 223.6 203.866 224.384C204.826 225.168 205.306 226.368 205.306 227.984V236H203.17ZM203.122 230L199.666 230.096C198.002 230.144 196.786 230.344 196.018 230.696C195.25 231.048 194.866 231.592 194.866 232.328C194.866 233.032 195.146 233.568 195.706 233.936C196.266 234.304 197.074 234.488 198.13 234.488C198.882 234.488 199.594 234.376 200.266 234.152C200.954 233.912 201.546 233.584 202.042 233.168C202.762 232.576 203.122 231.848 203.122 230.984V230ZM201.85 221.816L199.426 219.704L197.002 221.816H194.914L198.322 218.384H200.53L203.938 221.816H201.85ZM216.957 235.784C215.997 236.104 214.973 236.264 213.885 236.264C212.525 236.264 211.525 235.936 210.885 235.28C210.245 234.624 209.925 233.584 209.925 232.16V225.368H207.501V223.592H209.925V220.208H212.181V223.592H216.597V225.368H212.181V232.352C212.181 233.728 212.877 234.416 214.269 234.416C215.037 234.416 215.813 234.288 216.597 234.032L216.957 235.784ZM219.441 236V223.592H221.697V236H219.441ZM219.369 221.312V218.864H221.769V221.312H219.369ZM225.628 236V218.864H227.884V236H225.628ZM231.816 236V218.864H234.072V236H231.816ZM251.731 229.76C251.731 231.056 251.435 232.208 250.843 233.216C250.267 234.208 249.427 234.984 248.323 235.544C247.219 236.104 245.931 236.384 244.459 236.384C243.035 236.384 241.787 236.128 240.715 235.616C239.643 235.104 238.811 234.352 238.219 233.36C237.627 232.368 237.331 231.192 237.331 229.832C237.331 228.536 237.619 227.392 238.195 226.4C238.787 225.392 239.635 224.608 240.739 224.048C241.843 223.488 243.131 223.208 244.603 223.208C246.027 223.208 247.275 223.464 248.347 223.976C249.419 224.488 250.251 225.24 250.843 226.232C251.435 227.224 251.731 228.4 251.731 229.76ZM249.355 229.808C249.355 228.304 248.931 227.136 248.083 226.304C247.251 225.472 246.075 225.056 244.555 225.056C243.019 225.056 241.827 225.472 240.979 226.304C240.131 227.12 239.707 228.28 239.707 229.784C239.707 231.288 240.123 232.456 240.955 233.288C241.803 234.12 242.987 234.536 244.507 234.536C246.043 234.536 247.235 234.128 248.083 233.312C248.931 232.48 249.355 231.312 249.355 229.808ZM265.603 236V228.416C265.603 227.264 265.323 226.432 264.763 225.92C264.219 225.392 263.331 225.128 262.099 225.128C261.443 225.128 260.787 225.256 260.131 225.512C259.491 225.752 258.939 226.096 258.475 226.544C258.075 226.912 257.771 227.328 257.563 227.792C257.355 228.24 257.251 228.712 257.251 229.208V236H254.995V223.592H257.227V225.896C258.587 224.104 260.403 223.208 262.675 223.208C264.387 223.208 265.675 223.616 266.539 224.432C267.419 225.232 267.859 226.424 267.859 228.008V236H265.603Z" fill="white"/>
<path d="M370.212 236V222.248L363.492 236H361.476L354.756 222.392V236H352.476V218.864H355.428L362.556 233.48L369.66 218.864H372.516V236H370.212Z" fill="white"/>
<path d="M298.317 233V224.824L295.699 226.392L295.111 225.384L298.457 223.326H299.675V233H298.317ZM304.297 233V223.004H305.613V227.064C305.931 226.588 306.374 226.215 306.943 225.944C307.513 225.673 308.133 225.538 308.805 225.538C309.524 225.538 310.159 225.692 310.709 226C311.269 226.299 311.703 226.737 312.011 227.316C312.329 227.885 312.487 228.557 312.487 229.332C312.487 230.079 312.333 230.746 312.025 231.334C311.717 231.922 311.274 232.384 310.695 232.72C310.117 233.056 309.44 233.224 308.665 233.224C307.312 233.224 306.29 232.753 305.599 231.81V233H304.297ZM305.599 229.584C305.599 230.293 305.842 230.9 306.327 231.404C306.561 231.647 306.845 231.833 307.181 231.964C307.527 232.085 307.9 232.146 308.301 232.146C309.216 232.146 309.911 231.908 310.387 231.432C310.863 230.956 311.101 230.261 311.101 229.346C311.101 228.487 310.863 227.82 310.387 227.344C309.911 226.859 309.249 226.616 308.399 226.616C307.998 226.616 307.615 226.691 307.251 226.84C306.887 226.98 306.575 227.181 306.313 227.442C306.089 227.666 305.912 227.927 305.781 228.226C305.66 228.525 305.599 228.828 305.599 229.136V229.584ZM314.387 233V225.762H315.703V233H314.387ZM314.345 224.432V223.004H315.745V224.432H314.345ZM323.527 227.666C323.387 227.293 323.121 227.017 322.729 226.84C322.346 226.653 321.819 226.56 321.147 226.56C320.475 226.56 319.943 226.653 319.551 226.84C319.159 227.027 318.963 227.279 318.963 227.596C318.963 227.913 319.098 228.151 319.369 228.31C319.649 228.469 320.167 228.604 320.923 228.716L321.847 228.856C322.668 228.977 323.293 229.127 323.723 229.304C324.161 229.472 324.469 229.691 324.647 229.962C324.833 230.233 324.927 230.583 324.927 231.012C324.927 232.487 323.732 233.224 321.343 233.224C320.195 233.224 319.303 233.033 318.669 232.65C318.034 232.258 317.647 231.67 317.507 230.886H318.753C319.023 231.754 319.877 232.188 321.315 232.188C322.071 232.188 322.654 232.09 323.065 231.894C323.485 231.698 323.695 231.418 323.695 231.054C323.695 230.737 323.545 230.499 323.247 230.34C322.948 230.181 322.393 230.041 321.581 229.92L320.727 229.794C319.943 229.673 319.336 229.523 318.907 229.346C318.487 229.169 318.188 228.945 318.011 228.674C317.833 228.394 317.745 228.044 317.745 227.624C317.745 226.971 318.043 226.462 318.641 226.098C319.247 225.725 320.083 225.538 321.147 225.538C322.192 225.538 322.995 225.692 323.555 226C324.124 226.308 324.516 226.812 324.731 227.512L323.527 227.666Z" fill="white"/>
<path d="M109 201.333L113.75 206L95.0832 224.667L135.667 224.667L135.667 231.333L95.0832 231.333L113.75 250L109 254.667L82.3332 228L109 201.333Z" fill="#699BF7"/>
<path d="M432.111 274.632C432.1 274.765 432.09 274.887 432.08 275L43.935 275C43.9279 274.892 43.9201 274.775 43.9119 274.65C43.8573 273.82 43.7792 272.612 43.6856 271.102C43.4983 268.081 43.2484 263.85 42.9987 259.01C42.4989 249.327 42 237.223 42 227.5C42 217.777 42.4989 205.673 42.9987 195.989C43.2485 191.15 43.4983 186.919 43.6856 183.898C43.7792 182.388 43.8573 181.18 43.9119 180.35C43.9201 180.225 43.9279 180.108 43.935 180L432.079 180C432.088 180.121 432.099 180.253 432.111 180.396C432.179 181.245 432.276 182.48 432.394 184.023C432.628 187.107 432.94 191.418 433.252 196.326C433.877 206.147 434.5 218.333 434.5 227.849C434.5 237.365 433.877 249.376 433.252 259.022C432.94 263.842 432.628 268.066 432.394 271.085C432.277 272.594 432.179 273.802 432.111 274.632Z" stroke="white" stroke-width="2"/>
<circle cx="362" cy="227" r="20" transform="rotate(-180 362 227)" stroke="white" stroke-width="2"/>
<circle cx="311" cy="227" r="20" transform="rotate(-180 311 227)" stroke="white" stroke-width="2"/>
</svg>
