<svg width="1620" height="847" viewBox="0 0 1620 847" fill="none" xmlns="http://www.w3.org/2000/svg">
<rect x="594" y="60" width="306" height="670" rx="9" stroke="white" stroke-width="2"/>
<rect x="839" y="385" width="40" height="134" rx="9" stroke="white" stroke-width="2"/>
<rect x="868" y="457" width="16" height="73" rx="8" transform="rotate(90 868 457)" fill="#0E0E0E" stroke="white" stroke-width="2"/>
<rect x="836" y="229" width="52" height="159" rx="9" transform="rotate(90 836 229)" fill="#0E0E0E" stroke="white" stroke-width="2"/>
<path d="M735.39 260V259.109C735.045 259.468 734.664 259.732 734.246 259.901C733.835 260.062 733.359 260.143 732.816 260.143C732.075 260.143 731.507 259.993 731.111 259.692C730.715 259.391 730.517 258.962 730.517 258.405C730.517 257.796 730.777 257.345 731.298 257.052C731.826 256.751 732.651 256.586 733.773 256.557L735.368 256.513V256.315C735.368 255.846 735.229 255.501 734.95 255.281C734.679 255.054 734.253 254.94 733.674 254.94C733.131 254.94 732.706 255.006 732.398 255.138C732.097 255.27 731.896 255.479 731.793 255.765L730.847 255.644C731.074 254.639 732.031 254.137 733.718 254.137C734.613 254.137 735.276 254.317 735.709 254.676C736.149 255.035 736.369 255.585 736.369 256.326V260H735.39ZM735.368 257.25L733.784 257.294C733.021 257.316 732.464 257.408 732.112 257.569C731.76 257.73 731.584 257.98 731.584 258.317C731.584 258.64 731.712 258.885 731.969 259.054C732.226 259.223 732.596 259.307 733.08 259.307C733.425 259.307 733.751 259.256 734.059 259.153C734.374 259.043 734.646 258.893 734.873 258.702C735.203 258.431 735.368 258.097 735.368 257.701V257.25ZM743.95 258.064C743.833 258.746 743.525 259.27 743.026 259.637C742.528 259.996 741.864 260.176 741.035 260.176C740.031 260.176 739.242 259.912 738.67 259.384C738.106 258.849 737.823 258.112 737.823 257.173C737.823 256.572 737.952 256.044 738.208 255.589C738.472 255.134 738.846 254.779 739.33 254.522C739.822 254.265 740.401 254.137 741.068 254.137C741.824 254.137 742.436 254.298 742.905 254.621C743.382 254.944 743.694 255.413 743.84 256.029L742.817 256.194C742.59 255.387 741.996 254.984 741.035 254.984C740.368 254.984 739.847 255.175 739.473 255.556C739.099 255.937 738.912 256.469 738.912 257.151C738.912 257.855 739.096 258.394 739.462 258.768C739.829 259.142 740.361 259.329 741.057 259.329C742.121 259.329 742.744 258.907 742.927 258.064H743.95ZM751.191 258.064C751.073 258.746 750.765 259.27 750.267 259.637C749.768 259.996 749.104 260.176 748.276 260.176C747.271 260.176 746.483 259.912 745.911 259.384C745.346 258.849 745.064 258.112 745.064 257.173C745.064 256.572 745.192 256.044 745.449 255.589C745.713 255.134 746.087 254.779 746.571 254.522C747.062 254.265 747.641 254.137 748.309 254.137C749.064 254.137 749.676 254.298 750.146 254.621C750.622 254.944 750.934 255.413 751.081 256.029L750.058 256.194C749.83 255.387 749.236 254.984 748.276 254.984C747.608 254.984 747.088 255.175 746.714 255.556C746.34 255.937 746.153 256.469 746.153 257.151C746.153 257.855 746.336 258.394 746.703 258.768C747.069 259.142 747.601 259.329 748.298 259.329C749.361 259.329 749.984 258.907 750.168 258.064H751.191ZM753.338 257.448C753.353 258.035 753.547 258.5 753.921 258.845C754.302 259.19 754.812 259.362 755.45 259.362C756.513 259.362 757.166 259.043 757.408 258.405H758.398C758.09 259.586 757.093 260.176 755.406 260.176C754.438 260.176 753.679 259.912 753.129 259.384C752.579 258.856 752.304 258.13 752.304 257.206C752.304 256.612 752.429 256.084 752.678 255.622C752.935 255.16 753.301 254.797 753.778 254.533C754.255 254.269 754.808 254.137 755.439 254.137C756.4 254.137 757.148 254.39 757.683 254.896C758.218 255.395 758.486 256.095 758.486 256.997V257.448H753.338ZM757.474 256.667C757.467 256.117 757.287 255.692 756.935 255.391C756.583 255.09 756.081 254.94 755.428 254.94C754.863 254.94 754.394 255.094 754.02 255.402C753.646 255.71 753.426 256.132 753.36 256.667H757.474ZM755.274 253.499L753.481 251.926H754.768L756.319 253.499H755.274ZM764.326 255.809C764.216 255.516 764.007 255.299 763.699 255.16C763.398 255.013 762.984 254.94 762.456 254.94C761.928 254.94 761.51 255.013 761.202 255.16C760.894 255.307 760.74 255.505 760.74 255.754C760.74 256.003 760.846 256.19 761.059 256.315C761.279 256.44 761.686 256.546 762.28 256.634L763.006 256.744C763.651 256.839 764.143 256.957 764.48 257.096C764.825 257.228 765.067 257.4 765.206 257.613C765.353 257.826 765.426 258.101 765.426 258.438C765.426 259.597 764.487 260.176 762.61 260.176C761.708 260.176 761.008 260.026 760.509 259.725C760.01 259.417 759.706 258.955 759.596 258.339H760.575C760.788 259.021 761.459 259.362 762.588 259.362C763.182 259.362 763.64 259.285 763.963 259.131C764.293 258.977 764.458 258.757 764.458 258.471C764.458 258.222 764.341 258.035 764.106 257.91C763.871 257.785 763.435 257.675 762.797 257.58L762.126 257.481C761.51 257.386 761.033 257.268 760.696 257.129C760.366 256.99 760.131 256.814 759.992 256.601C759.853 256.381 759.783 256.106 759.783 255.776C759.783 255.263 760.018 254.863 760.487 254.577C760.964 254.284 761.62 254.137 762.456 254.137C763.277 254.137 763.908 254.258 764.348 254.5C764.795 254.742 765.103 255.138 765.272 255.688L764.326 255.809ZM769.982 262.134V254.313H771.005V255.347C771.254 254.973 771.603 254.68 772.05 254.467C772.497 254.247 772.989 254.137 773.524 254.137C774.089 254.137 774.587 254.258 775.02 254.5C775.46 254.735 775.801 255.079 776.043 255.534C776.292 255.981 776.417 256.509 776.417 257.118C776.417 257.705 776.296 258.229 776.054 258.691C775.812 259.153 775.464 259.516 775.009 259.78C774.554 260.044 774.023 260.176 773.414 260.176C772.365 260.176 771.566 259.809 771.016 259.076V262.134H769.982ZM771.005 257.316C771.005 257.873 771.196 258.35 771.577 258.746C771.76 258.937 771.984 259.083 772.248 259.186C772.519 259.281 772.813 259.329 773.128 259.329C773.847 259.329 774.393 259.142 774.767 258.768C775.141 258.394 775.328 257.848 775.328 257.129C775.328 256.454 775.141 255.93 774.767 255.556C774.393 255.175 773.872 254.984 773.205 254.984C772.89 254.984 772.589 255.043 772.303 255.16C772.017 255.27 771.771 255.428 771.566 255.633C771.39 255.809 771.251 256.014 771.148 256.249C771.053 256.484 771.005 256.722 771.005 256.964V257.316ZM777.91 260V254.313H778.933V255.38C779.211 254.999 779.53 254.709 779.89 254.511C780.256 254.313 780.649 254.214 781.067 254.214C781.228 254.214 781.426 254.232 781.661 254.269L781.54 255.171C781.334 255.134 781.147 255.116 780.979 255.116C780.671 255.116 780.399 255.16 780.165 255.248C779.93 255.336 779.714 255.472 779.516 255.655C779.134 256.007 778.944 256.418 778.944 256.887V260H777.91ZM782.84 260V254.313H783.874V260H782.84ZM782.807 253.268V252.146H783.907V253.268H782.807ZM787.623 260L784.884 254.313H786.094L788.195 258.933L790.307 254.313H791.462L788.723 260H787.623ZM793.041 257.448C793.056 258.035 793.25 258.5 793.624 258.845C794.005 259.19 794.515 259.362 795.153 259.362C796.216 259.362 796.869 259.043 797.111 258.405H798.101C797.793 259.586 796.796 260.176 795.109 260.176C794.141 260.176 793.382 259.912 792.832 259.384C792.282 258.856 792.007 258.13 792.007 257.206C792.007 256.612 792.132 256.084 792.381 255.622C792.638 255.16 793.004 254.797 793.481 254.533C793.958 254.269 794.511 254.137 795.142 254.137C796.103 254.137 796.851 254.39 797.386 254.896C797.921 255.395 798.189 256.095 798.189 256.997V257.448H793.041ZM797.177 256.667C797.17 256.117 796.99 255.692 796.638 255.391C796.286 255.09 795.784 254.94 795.131 254.94C794.566 254.94 794.097 255.094 793.723 255.402C793.349 255.71 793.129 256.132 793.063 256.667H797.177ZM795.417 253.499H794.372L795.923 251.926H797.21L795.417 253.499Z" fill="white"/>
<path d="M908.5 364L908.5 369.5C908.5 374.747 904.247 379 899 379L870.113 379C866.742 379 863.575 380.619 861.601 383.352L858.5 387.646L855.399 383.352C853.425 380.619 850.258 379 846.887 379L818 379C812.753 379 808.5 374.747 808.5 369.5L808.5 364C808.5 358.753 812.753 354.5 818 354.5L899 354.5C904.247 354.5 908.5 358.753 908.5 364Z" fill="#448AF7" stroke="white"/>
<path d="M836.914 369.5V368.654C836.71 368.96 836.425 369.203 836.059 369.383C835.693 369.557 835.291 369.644 834.853 369.644C834.391 369.644 833.98 369.548 833.62 369.356C833.266 369.158 832.987 368.876 832.783 368.51C832.585 368.138 832.486 367.703 832.486 367.205C832.486 366.725 832.585 366.296 832.783 365.918C832.981 365.54 833.266 365.243 833.638 365.027C834.01 364.811 834.445 364.703 834.943 364.703C835.801 364.703 836.455 365.003 836.905 365.603V363.074H837.751V369.5H836.914ZM836.914 367.043C836.914 366.587 836.758 366.197 836.446 365.873C836.296 365.717 836.11 365.6 835.888 365.522C835.672 365.438 835.435 365.396 835.177 365.396C834.595 365.396 834.148 365.549 833.836 365.855C833.53 366.161 833.377 366.608 833.377 367.196C833.377 367.748 833.527 368.18 833.827 368.492C834.133 368.798 834.562 368.951 835.114 368.951C835.372 368.951 835.618 368.906 835.852 368.816C836.086 368.72 836.287 368.588 836.455 368.42C836.599 368.276 836.71 368.108 836.788 367.916C836.872 367.724 836.914 367.529 836.914 367.331V367.043ZM839.818 367.412C839.83 367.892 839.989 368.273 840.295 368.555C840.607 368.837 841.024 368.978 841.546 368.978C842.416 368.978 842.95 368.717 843.148 368.195H843.958C843.706 369.161 842.89 369.644 841.51 369.644C840.718 369.644 840.097 369.428 839.647 368.996C839.197 368.564 838.972 367.97 838.972 367.214C838.972 366.728 839.074 366.296 839.278 365.918C839.488 365.54 839.788 365.243 840.178 365.027C840.568 364.811 841.021 364.703 841.537 364.703C842.323 364.703 842.935 364.91 843.373 365.324C843.811 365.732 844.03 366.305 844.03 367.043V367.412H839.818ZM843.202 366.773C843.196 366.323 843.049 365.975 842.761 365.729C842.473 365.483 842.062 365.36 841.528 365.36C841.066 365.36 840.682 365.486 840.376 365.738C840.07 365.99 839.89 366.335 839.836 366.773H843.202ZM841.762 364.181H840.907L842.176 362.894H843.229L841.762 364.181ZM846.759 369.5L844.518 364.847H845.508L847.227 368.627L848.955 364.847H849.9L847.659 369.5H846.759ZM851.191 367.412C851.203 367.892 851.362 368.273 851.668 368.555C851.98 368.837 852.397 368.978 852.919 368.978C853.789 368.978 854.323 368.717 854.521 368.195H855.331C855.079 369.161 854.263 369.644 852.883 369.644C852.091 369.644 851.47 369.428 851.02 368.996C850.57 368.564 850.345 367.97 850.345 367.214C850.345 366.728 850.447 366.296 850.651 365.918C850.861 365.54 851.161 365.243 851.551 365.027C851.941 364.811 852.394 364.703 852.91 364.703C853.696 364.703 854.308 364.91 854.746 365.324C855.184 365.732 855.403 366.305 855.403 367.043V367.412H851.191ZM854.575 366.773C854.569 366.323 854.422 365.975 854.134 365.729C853.846 365.483 853.435 365.36 852.901 365.36C852.439 365.36 852.055 365.486 851.749 365.738C851.443 365.99 851.263 366.335 851.209 366.773H854.575ZM856.627 369.5V364.847H857.464V365.72C857.692 365.408 857.953 365.171 858.247 365.009C858.547 364.847 858.868 364.766 859.21 364.766C859.342 364.766 859.504 364.781 859.696 364.811L859.597 365.549C859.429 365.519 859.276 365.504 859.138 365.504C858.886 365.504 858.664 365.54 858.472 365.612C858.28 365.684 858.103 365.795 857.941 365.945C857.629 366.233 857.473 366.569 857.473 366.953V369.5H856.627ZM860.661 369.5V364.847H861.498V365.72C861.726 365.408 861.987 365.171 862.281 365.009C862.581 364.847 862.902 364.766 863.244 364.766C863.376 364.766 863.538 364.781 863.73 364.811L863.631 365.549C863.463 365.519 863.31 365.504 863.172 365.504C862.92 365.504 862.698 365.54 862.506 365.612C862.314 365.684 862.137 365.795 861.975 365.945C861.663 366.233 861.507 366.569 861.507 366.953V369.5H860.661ZM869.527 367.16C869.527 367.646 869.416 368.078 869.194 368.456C868.978 368.828 868.663 369.119 868.249 369.329C867.835 369.539 867.352 369.644 866.8 369.644C866.266 369.644 865.798 369.548 865.396 369.356C864.994 369.164 864.682 368.882 864.46 368.51C864.238 368.138 864.127 367.697 864.127 367.187C864.127 366.701 864.235 366.272 864.451 365.9C864.673 365.522 864.991 365.228 865.405 365.018C865.819 364.808 866.302 364.703 866.854 364.703C867.388 364.703 867.856 364.799 868.258 364.991C868.66 365.183 868.972 365.465 869.194 365.837C869.416 366.209 869.527 366.65 869.527 367.16ZM868.636 367.178C868.636 366.614 868.477 366.176 868.159 365.864C867.847 365.552 867.406 365.396 866.836 365.396C866.26 365.396 865.813 365.552 865.495 365.864C865.177 366.17 865.018 366.605 865.018 367.169C865.018 367.733 865.174 368.171 865.486 368.483C865.804 368.795 866.248 368.951 866.818 368.951C867.394 368.951 867.841 368.798 868.159 368.492C868.477 368.18 868.636 367.742 868.636 367.178ZM874.603 369.5V368.636C874.339 368.978 874.039 369.233 873.703 369.401C873.373 369.563 872.998 369.644 872.578 369.644C871.978 369.644 871.516 369.494 871.192 369.194C870.874 368.888 870.715 368.45 870.715 367.88V364.847H871.561V367.727C871.561 368.135 871.66 368.438 871.858 368.636C872.062 368.828 872.374 368.924 872.794 368.924C873.292 368.924 873.739 368.75 874.135 368.402C874.285 368.264 874.399 368.111 874.477 367.943C874.555 367.769 874.594 367.589 874.594 367.403V364.847H875.44V369.5H874.603ZM876.912 369.5V364.847H877.758V369.5H876.912ZM876.885 363.992V363.074H877.785V363.992H876.885ZM879.232 369.5V363.074H880.078V369.5H879.232ZM881.552 369.5V363.074H882.398V369.5H881.552ZM884.467 367.412C884.479 367.892 884.638 368.273 884.944 368.555C885.256 368.837 885.673 368.978 886.195 368.978C887.065 368.978 887.599 368.717 887.797 368.195H888.607C888.355 369.161 887.539 369.644 886.159 369.644C885.367 369.644 884.746 369.428 884.296 368.996C883.846 368.564 883.621 367.97 883.621 367.214C883.621 366.728 883.723 366.296 883.927 365.918C884.137 365.54 884.437 365.243 884.827 365.027C885.217 364.811 885.67 364.703 886.186 364.703C886.972 364.703 887.584 364.91 888.022 365.324C888.46 365.732 888.679 366.305 888.679 367.043V367.412H884.467ZM887.851 366.773C887.845 366.323 887.698 365.975 887.41 365.729C887.122 365.483 886.711 365.36 886.177 365.36C885.715 365.36 885.331 365.486 885.025 365.738C884.719 365.99 884.539 366.335 884.485 366.773H887.851ZM889.902 369.5V364.847H890.739V365.72C890.967 365.408 891.228 365.171 891.522 365.009C891.822 364.847 892.143 364.766 892.485 364.766C892.617 364.766 892.779 364.781 892.971 364.811L892.872 365.549C892.704 365.519 892.551 365.504 892.413 365.504C892.161 365.504 891.939 365.54 891.747 365.612C891.555 365.684 891.378 365.795 891.216 365.945C890.904 366.233 890.748 366.569 890.748 366.953V369.5H889.902Z" fill="white"/>
<path d="M721.017 254.661C721.176 254.312 721.271 253.932 721.271 253.521C721.271 251.993 720.028 250.75 718.5 250.75C718.088 250.75 717.708 250.845 717.36 251.003L721.017 254.661Z" fill="white"/>
<path d="M718.5 247.583C714.13 247.583 710.583 251.13 710.583 255.5C710.583 259.87 714.13 263.417 718.5 263.417C722.87 263.417 726.417 259.87 726.417 255.5C726.417 251.13 722.87 247.583 718.5 247.583ZM718.5 257.875C716.663 257.875 714.977 258.508 713.639 259.553C712.687 258.417 712.165 256.982 712.167 255.5C712.167 254.035 712.666 252.69 713.505 251.621L715.769 253.885C715.848 254.485 716.122 255.043 716.55 255.471C716.978 255.899 717.536 256.173 718.136 256.252L719.878 257.994C719.426 257.915 718.967 257.875 718.5 257.875ZM723.496 259.379L714.621 250.505C715.727 249.635 717.093 249.164 718.5 249.167C721.999 249.167 724.833 252.001 724.833 255.5C724.833 256.965 724.335 258.302 723.496 259.379Z" fill="white"/>
<circle cx="859" cy="408" r="10.5" fill="#448AF7" stroke="white"/>
<path d="M592.5 59L540 1.5H0M897.5 59L955 1.5H1619.5M592.5 731L540 776.5H0M897.5 731L955 776.5H1619.5" stroke="white" stroke-width="2"/>
<path d="M394.293 676.192L394.293 676.192C395.161 676.027 396.768 675.884 398.508 676.139C400.249 676.393 402.031 677.031 403.37 678.343C405.96 680.885 409.878 686.521 413.81 695.122L411.366 697.673C411.027 696.815 410.546 695.626 409.949 694.22C408.706 691.291 406.953 687.409 404.923 683.622C403.156 680.322 401.004 678.972 399.012 678.868C398.044 678.818 397.177 679.071 396.506 679.467C395.867 679.844 395.299 680.421 395.096 681.109L395.094 681.113C394.948 681.619 394.936 682.281 394.97 682.945C395.007 683.641 395.103 684.46 395.236 685.341C395.503 687.106 395.931 689.189 396.378 691.172C396.827 693.158 397.299 695.058 397.659 696.46C397.804 697.027 397.932 697.513 398.032 697.892C394.862 699.096 389.177 701.472 384.119 703.618C381.334 704.8 378.729 705.916 376.821 706.736C376.071 707.059 375.429 707.335 374.925 707.553C374.925 707.553 374.925 707.552 374.925 707.552C374.918 707.5 374.91 707.446 374.903 707.392C374.82 706.798 374.719 706.07 374.614 705.234C374.386 703.408 374.142 701.074 374.044 698.541C373.847 693.425 374.256 687.686 376.428 683.661C376.847 682.886 377.638 682.102 378.799 681.333C379.952 680.57 381.407 679.864 383.069 679.218C386.394 677.928 390.439 676.924 394.293 676.192Z" stroke="white" stroke-width="2"/>
<path d="M470.143 820.912C490.835 815.419 497.009 792.043 502.878 790.082" stroke="white" stroke-miterlimit="10"/>
<path d="M497.111 774.53L497.111 774.529C495.778 763.772 493.853 750.259 491.576 738.196C490.438 732.165 489.21 726.485 487.921 721.686C486.637 716.908 485.275 712.933 483.848 710.358L483.847 710.357C483.491 709.715 483.303 708.815 483.298 707.684C483.293 706.562 483.469 705.286 483.769 703.95C484.369 701.279 485.441 698.484 486.405 696.424C487.033 695.083 487.737 694.623 488.35 694.497C489.022 694.359 489.873 694.561 490.883 695.13C492.903 696.268 494.961 698.538 496.216 700.121L496.217 700.122C498.405 702.88 499.543 705.808 500.39 709.034C500.783 710.532 501.111 712.08 501.455 713.71C501.484 713.844 501.512 713.978 501.541 714.113C501.915 715.883 502.316 717.741 502.842 719.676L502.842 719.676C506.753 734.065 511.233 754.892 509.687 769.749C509.37 772.783 509.097 775.128 508.778 776.953C508.458 778.79 508.104 780.019 507.665 780.863C507.248 781.665 506.758 782.111 506.106 782.403C505.402 782.717 504.45 782.878 503.052 782.965L503.05 782.965C501.2 783.082 500.164 782.931 499.358 782.053C498.451 781.063 497.659 778.974 497.111 774.53Z" fill="#1B1B1B" stroke="white" stroke-width="2"/>
<path d="M499.924 706.928L499.924 706.929C504.361 719.147 509.18 738.29 510.592 758.277C511.035 764.552 510.687 770.224 509.618 774.875C508.933 777.855 507.942 780.461 506.64 782.54C508.933 781.211 510.624 779.004 511.851 776.16C513.617 772.068 514.368 766.763 514.517 761.212C514.815 750.124 512.706 738.419 511.949 734.377C506.866 707.386 500.236 697.367 495.279 692.087C494.393 691.145 492.684 689.867 490.408 688.47C488.153 687.085 485.406 685.623 482.498 684.3C476.628 681.63 470.294 679.62 466.045 679.817L466.044 679.817C464.55 679.886 462.468 680.66 460.036 682.016C457.635 683.354 455.004 685.195 452.444 687.262C447.417 691.319 442.797 696.134 440.739 699.557C440.825 699.737 440.988 700.001 441.248 700.355C441.804 701.108 442.684 702.107 443.81 703.283C446.052 705.625 449.169 708.565 452.341 711.453C455.509 714.339 458.717 717.16 461.134 719.26C462.342 720.31 463.352 721.18 464.06 721.786C464.106 721.826 464.151 721.864 464.194 721.902C466.275 717.832 470.227 711.607 474.593 706.132C477 703.113 479.558 700.289 482.024 698.17C484.448 696.087 486.942 694.544 489.208 694.356L499.924 706.928ZM499.924 706.928C499.113 704.697 497.608 701.556 495.799 698.993M499.924 706.928L495.799 698.993M495.799 698.993C494.896 697.713 493.888 696.534 492.819 695.687M495.799 698.993L492.819 695.687M492.819 695.687C491.763 694.851 490.528 694.246 489.209 694.356L492.819 695.687ZM440.595 699.803L440.596 699.801L440.595 699.803Z" stroke="white" stroke-width="2"/>
<path d="M454.595 746.99L454.594 746.987C453.925 744.153 454.512 741.306 455.821 738.98C457.139 736.64 459.137 734.913 461.175 734.254L461.175 734.254C462.783 733.733 464.634 733.973 466.641 735.041C468.623 736.095 470.703 737.932 472.715 740.503C480.673 763.466 482.187 790.976 479.413 813.335C478.06 824.222 465.935 836.082 445.971 839.388C446.207 839.241 446.446 839.086 446.687 838.923C450.858 836.099 455.598 830.847 458.19 821.171C462.067 806.699 461.143 788.115 459.283 773.237C458.351 765.781 457.18 759.221 456.241 754.526C455.771 752.177 455.36 750.294 455.066 748.997C454.918 748.348 454.8 747.845 454.719 747.504C454.678 747.334 454.647 747.204 454.625 747.116L454.601 747.016L454.595 746.99Z" fill="#1B1B1B" stroke="white" stroke-width="2"/>
<path d="M408.002 708.867L408.002 708.867C433.163 709.741 447.586 730.434 455.106 754.565C462.614 778.658 463.063 805.696 460.581 818.298C460.409 819.169 460.252 820.02 460.098 820.851C459.694 823.036 459.315 825.088 458.756 827.027C457.993 829.67 456.924 831.987 455.091 833.924C451.429 837.795 444.437 840.437 429.661 840.437C396.654 840.437 378.134 837.64 371.194 835.45C368.781 834.687 365.277 833.481 362.095 830.564C358.933 827.666 356.009 823.002 354.918 815.183L354.918 815.182C353.208 803.005 352.37 791.815 355.922 761.747C357.632 747.29 359.602 733.724 366.63 723.932C373.574 714.256 385.619 708.082 408.002 708.867Z" fill="#1B1B1B" stroke="white" stroke-width="2"/>
<path d="M470.226 752.173C469.03 745.888 467.333 738.976 464.538 732.232L461.173 732.385C463.69 738.1 465.776 744.817 467.278 752.729C472.075 778.081 472.632 795.074 472.381 804.294C472.228 809.829 475.274 809.856 475.427 803.946C475.663 794.476 475.023 777.538 470.226 752.173Z" fill="white"/>
<path d="M511.805 797.118L498.817 798.272C497.621 798.384 496.55 797.494 496.453 796.284L495.465 785.256C495.354 784.06 496.244 782.989 497.454 782.892L510.442 781.738C511.638 781.627 512.709 782.517 512.807 783.727L513.794 794.754C513.891 795.95 513.001 797.007 511.805 797.118Z" fill="white"/>
<path d="M500.24 810.142L500.24 810.139L496.471 790.28L496.471 790.28L496.469 790.272C496.461 790.233 496.486 790.195 496.534 790.191L496.534 790.191L496.545 790.19L506.459 789.189C506.459 789.189 506.459 789.189 506.459 789.189C506.494 789.185 506.528 789.209 506.536 789.243L506.536 789.243L506.538 789.251L511.433 807.58L511.433 807.58C511.681 808.504 511.109 809.461 510.177 809.675L502.284 811.482C502.283 811.482 502.282 811.482 502.282 811.482C501.341 811.686 500.411 811.078 500.24 810.142Z" stroke="white"/>
<path d="M392.352 749.643L392.344 749.643H392.337C390.738 749.643 389.433 748.341 389.43 746.742L389.722 735.708L389.722 735.708V735.694C389.722 734.119 390.974 732.829 392.545 732.788L413.753 733.357L413.766 733.358L413.78 733.357C414.164 733.347 414.546 733.412 414.904 733.55C415.262 733.687 415.59 733.895 415.868 734.159C416.146 734.424 416.369 734.741 416.524 735.092C416.678 735.442 416.762 735.818 416.771 736.2L416.729 747.304H416.729L416.729 747.31C416.741 748.939 415.435 750.279 413.801 750.283L392.352 749.643Z" fill="#448AF7" stroke="white"/>
<path d="M464.969 733.289C458.114 716.156 444.277 699.677 414.045 696.952C393.046 695.06 378.904 704.809 373.146 708.341C371.867 709.119 370.435 710.093 369.461 711.428C368.224 713.124 368.057 714.515 368.057 714.515C368.057 714.515 386.274 697.508 413.766 699.941C429.481 701.332 450.117 706.575 461.479 733.136C462.438 732.899 463.732 733.038 464.969 733.289Z" fill="white"/>
<path d="M427.18 827.481C418.518 827.696 406.743 827.741 394.282 827.061C387.726 826.701 382.074 826.051 377.835 825.184C375.714 824.749 373.973 824.265 372.661 823.748C371.31 823.216 370.556 822.702 370.239 822.29C370.146 822.169 370.053 822.049 369.96 821.929C368.842 820.488 367.735 819.062 366.85 816.302C365.876 813.27 365.163 808.587 365.163 800.553C365.163 795.212 366.151 790.48 368.021 787.098C369.875 783.743 372.543 781.781 375.994 781.695L375.995 781.695C378.962 781.618 396.058 781.41 411.84 781.22C413.282 781.203 414.713 781.186 416.121 781.169C422.414 781.094 428.249 781.024 432.57 780.969C433.69 780.955 434.708 780.942 435.606 780.931C435.594 780.944 435.582 780.957 435.569 780.971C434.405 782.231 433.388 783.989 432.561 786.046C430.904 790.165 429.929 795.675 430.15 801.371C430.681 815.098 433.27 821.98 435.893 825.446C436.404 826.121 436.917 826.666 437.414 827.106C434.953 827.228 431.445 827.375 427.18 827.481Z" stroke="white" stroke-width="2"/>
<path d="M823 369.333C822.817 369.333 822.66 369.268 822.529 369.137C822.398 369.007 822.333 368.85 822.333 368.667V365.333C822.333 365.15 822.399 364.993 822.529 364.862C822.66 364.732 822.817 364.666 823 364.667H823.333V364C823.333 363.539 823.496 363.146 823.821 362.821C824.146 362.495 824.539 362.333 825 362.333C825.461 362.333 825.854 362.496 826.179 362.821C826.505 363.146 826.667 363.539 826.667 364V364.667H827C827.183 364.667 827.34 364.732 827.471 364.863C827.602 364.993 827.667 365.15 827.667 365.333V368.667C827.667 368.85 827.601 369.007 827.471 369.138C827.34 369.268 827.183 369.333 827 369.333H823ZM825 367.667C825.183 367.667 825.34 367.601 825.471 367.471C825.602 367.34 825.667 367.183 825.667 367C825.667 366.817 825.601 366.66 825.471 366.529C825.34 366.398 825.183 366.333 825 366.333C824.817 366.333 824.66 366.399 824.529 366.529C824.398 366.66 824.333 366.817 824.333 367C824.333 367.183 824.399 367.34 824.529 367.471C824.66 367.602 824.817 367.667 825 367.667ZM824 364.667H826V364C826 363.722 825.903 363.486 825.708 363.292C825.514 363.097 825.278 363 825 363C824.722 363 824.486 363.097 824.292 363.292C824.097 363.486 824 363.722 824 364V364.667Z" fill="white"/>
</svg>
