<svg width="46" height="46" viewBox="0 0 46 46" fill="none" xmlns="http://www.w3.org/2000/svg">
<rect width="46" height="46" rx="10" fill="#626262"/>
<path d="M23 12.5C20.8127 12.5025 18.7157 13.3725 17.1691 14.9191C15.6225 16.4657 14.7525 18.5627 14.75 20.75C14.75 27.8094 22.25 33.1409 22.5697 33.3641C22.6958 33.4524 22.846 33.4998 23 33.4998C23.154 33.4998 23.3042 33.4524 23.4303 33.3641C23.75 33.1409 31.25 27.8094 31.25 20.75C31.2475 18.5627 30.3775 16.4657 28.8309 14.9191C27.2843 13.3725 25.1873 12.5025 23 12.5ZM23 17.75C23.5933 17.75 24.1734 17.9259 24.6667 18.2556C25.1601 18.5852 25.5446 19.0538 25.7716 19.6019C25.9987 20.1501 26.0581 20.7533 25.9424 21.3353C25.8266 21.9172 25.5409 22.4518 25.1213 22.8713C24.7018 23.2909 24.1672 23.5766 23.5853 23.6924C23.0033 23.8081 22.4001 23.7487 21.8519 23.5216C21.3038 23.2946 20.8352 22.9101 20.5056 22.4167C20.1759 21.9234 20 21.3433 20 20.75C20 19.9544 20.3161 19.1913 20.8787 18.6287C21.4413 18.0661 22.2044 17.75 23 17.75Z" fill="white"/>
</svg>
