<svg width="46" height="46" viewBox="0 0 46 46" fill="none" xmlns="http://www.w3.org/2000/svg">
<rect width="46" height="46" rx="10" fill="#626262"/>
<path d="M16.5 19.0134C17.1925 20.228 17.5566 21.602 17.5566 23.0001C17.5566 24.3982 17.1925 25.7722 16.5 26.9867M20.2483 16.7276C21.3306 18.641 21.8994 20.8018 21.8994 23.0001C21.8994 25.1983 21.3306 27.3592 20.2483 29.2726M23.9858 14.4417C25.4782 17.0468 26.2643 19.9964 26.2662 22.9986C26.2681 26.0009 25.4857 28.9515 23.9967 31.5584M27.7342 12.1667C29.619 15.4662 30.6104 19.2002 30.6104 23.0001C30.6104 26.7999 29.619 30.534 27.7342 33.8334" stroke="white" stroke-width="2.5" stroke-linecap="round" stroke-linejoin="round"/>
</svg>
