<svg width="42" height="42" viewBox="0 0 42 42" fill="none" xmlns="http://www.w3.org/2000/svg">
<path d="M14.4952 35.4603C27.7025 35.4603 34.9282 24.507 34.9282 15.0255C34.9282 14.7175 34.9283 14.4095 34.9142 14.1015C36.3214 13.0818 37.5356 11.8196 38.5 10.374C37.1869 10.9542 35.7951 11.3369 34.37 11.5098C35.8716 10.6108 36.9959 9.19733 37.534 7.532C36.1226 8.3693 34.5775 8.95715 32.9665 9.26975C32.2959 8.55326 31.4853 7.98211 30.5849 7.59168C29.6846 7.20126 28.7136 6.99987 27.7323 7C25.827 7.00139 24.0001 7.75888 22.6529 9.10612C21.3056 10.4534 20.5481 12.2802 20.5468 14.1855C20.5468 14.7455 20.6168 15.2915 20.7288 15.8235C17.8726 15.6801 15.0785 14.9376 12.5279 13.6442C9.97728 12.3508 7.72721 10.5354 5.92375 8.316C5.00724 9.89897 4.72747 11.7714 5.14121 13.5531C5.55496 15.3349 6.63122 16.8924 8.1515 17.9095C7.01238 17.8701 5.89853 17.5631 4.9 17.0135V17.1115C4.90154 18.7693 5.47528 20.3757 6.52428 21.6594C7.57329 22.9431 9.03325 23.8253 10.6575 24.157C10.0419 24.3268 9.40604 24.4116 8.7675 24.409C8.30375 24.409 7.85575 24.367 7.42 24.283C7.87786 25.7106 8.77103 26.9592 9.97426 27.8536C11.1775 28.748 12.6305 29.2435 14.1295 29.2705C11.586 31.27 8.44334 32.3549 5.208 32.3505C4.634 32.3505 4.06 32.3225 3.5 32.2525C6.78424 34.3483 10.5993 35.4613 14.4952 35.4603Z" fill="white"/>
</svg>
